<?xml version="1.0" encoding="UTF-8"?> <!-- Generator: Adobe Illustrator 23.1.1, SVG Export Plug-In . SVG Version: 6.00 Build 0) --> <svg xmlns="http://www.w3.org/2000/svg" xmlns:xlink="http://www.w3.org/1999/xlink" version="1.1" x="0px" y="0px" viewBox="0 0 750 500" style="enable-background:new 0 0 750 500;" xml:space="preserve"> <style type="text/css"> .st0{fill:#F5F5F5;} .st1{fill:#EBEBEB;} .st2{fill:#E0E0E0;} .st3{fill:#FFFFFF;} .st4{opacity:0.5;} .st5{display:none;} .st6{display:inline;fill:#E0E0E0;} .st7{fill:#E8505B;} .st8{opacity:0.2;} .st9{fill:#263238;} .st10{opacity:0.3;} .st11{fill:#FAFAFA;} .st12{fill:#FFBE9D;} .st13{fill:#EB996E;} .st14{opacity:0.78;} .st15{fill:#455A64;} .st16{opacity:0.6;} </style> <g id="Background_Complete"> <g> <g> <g> <g> <g> <path class="st0" d="M448.29,61.18c4.02,27.67-15.2,53.36-42.93,57.39c-27.73,4.03-53.47-15.13-57.49-42.8 c-4.02-27.67,15.2-53.36,42.93-57.39C418.53,14.35,444.27,33.51,448.29,61.18z"></path> </g> </g> </g> <g> <g> <g> <path class="st1" d="M436.35,62.91c3.06,21.08-11.58,40.66-32.72,43.73c-21.13,3.07-40.75-11.53-43.81-32.61 c-3.06-21.08,11.58-40.66,32.71-43.74C413.67,27.23,433.28,41.83,436.35,62.91z"></path> </g> </g> </g> <g> <g> <g> <g> <path class="st2" d="M436.16,61.72c-0.23,0.04-0.64-1.61-1.68-4.45c-1.05-2.82-2.82-6.87-6.12-11.09 c-1.64-2.1-3.66-4.23-6.08-6.22c-2.43-1.96-5.25-3.79-8.45-5.22c-1.6-0.72-3.28-1.37-5.04-1.86 c-1.76-0.51-3.59-0.93-5.47-1.16c-1.88-0.24-3.82-0.39-5.78-0.34c-1.96,0.05-3.95,0.24-5.94,0.57 c-1.99,0.37-3.92,0.87-5.78,1.5c-1.86,0.63-3.63,1.43-5.32,2.31c-1.69,0.87-3.26,1.9-4.74,2.98 c-1.48,1.07-2.84,2.26-4.09,3.48c-2.51,2.44-4.52,5.14-6.13,7.81c-1.59,2.69-2.74,5.39-3.56,7.93 c-1.64,5.09-1.91,9.5-1.92,12.51c0,3.03,0.19,4.72-0.04,4.76c-0.17,0.03-0.75-1.6-1.11-4.7c-0.34-3.08-0.4-7.7,1.06-13.16 c0.73-2.72,1.84-5.63,3.44-8.55c1.62-2.91,3.69-5.84,6.33-8.52c1.31-1.34,2.75-2.64,4.33-3.82c1.57-1.19,3.25-2.31,5.07-3.27 c1.81-0.97,3.71-1.84,5.72-2.53c2-0.69,4.09-1.24,6.23-1.64c2.15-0.37,4.29-0.57,6.41-0.61c2.12-0.04,4.21,0.13,6.24,0.41 c2.03,0.28,4,0.75,5.88,1.33c1.89,0.56,3.68,1.29,5.38,2.1c3.4,1.61,6.36,3.65,8.88,5.82c2.5,2.19,4.55,4.55,6.17,6.85 c3.25,4.62,4.79,8.98,5.53,11.99C436.31,59.96,436.33,61.69,436.16,61.72z"></path> </g> </g> </g> </g> </g> <g> <g> <g> <g> <g> <path class="st2" d="M405.73,90.67l1.07,6.65l-5.94,0.95l-1.04-6.47c-5.94,0.58-11.87-0.35-15.54-2.38l2.1-7.77 c3.32,1.72,7.85,2.64,12.2,2.37l-1.59-9.92c-6.85-0.55-14.56-1.56-15.92-10.06c-1.01-6.29,2.7-12.43,11.91-15l-1.06-6.59 l5.94-0.95l1.04,6.47c4.51-0.36,9.03,0.14,12.63,1.69l-1.8,7.78c-3.3-1.24-6.55-1.75-9.58-1.63l1.62,10.1 c6.84,0.49,14.43,1.53,15.77,9.9C418.53,81.98,414.87,88.05,405.73,90.67z M395.59,65.37l-1.35-8.43 c-3.03,1.22-4,3.14-3.69,5.1C390.88,64.12,392.84,64.96,395.59,65.37z M408.09,78.05c-0.33-2.08-2.24-2.93-4.93-3.41 l1.31,8.19C407.34,81.7,408.4,79.95,408.09,78.05z"></path> </g> </g> </g> </g> </g> </g> <g> <g> <g> <path class="st1" d="M713.12,279.66c0,0-11.25-6.5-22.88,20.17c-11.63,26.67-15.73,41.89-15.73,41.89s-3.16,5.63-7.1,2.31 c-3.94-3.32-9.64-13.07-15.86-10.88c-6.45,2.27-8.17,9.73-6.27,20.42c1.9,10.69,5.2,34.27,5.49,36.4 c0.29,2.09-0.73,5.27-3.78,3.43c-3.04-1.83-20.99-19.55-28.89-10.53c-7.9,9.02,2.29,37.93,3.34,41.12 c1.05,3.18,0.5,4.6-0.98,5.49c-1.49,0.89-6.96-5.63-12.27-10.46c-5.31-4.83-12.32-9.5-16.44-3.92 c-4.12,5.59-4.21,27.75,18.95,62.34l11.78,15.33l19.29-2.24c40.99-7.3,56.89-22.74,58.05-29.58c1.17-6.84-7.06-8.65-14.22-9.12 c-7.16-0.48-15.66,0.11-16.05-1.58c-0.39-1.69,0.25-3.07,3.28-4.52c3.02-1.45,30.92-14.17,31.94-26.11 c1.02-11.95-24.19-12.58-27.62-13.51c-3.43-0.92-1.85-3.86-0.15-5.1c1.74-1.27,21.01-15.24,30.03-21.29 c9.02-6.05,13.2-12.46,10.36-18.68c-2.74-6-13.71-3.35-18.84-3.89c-5.12-0.53-3.26-6.72-3.26-6.72s8.12-13.51,19.27-40.39 c11.14-26.88-1.67-30.5-1.67-30.5"></path> </g> </g> <g> <g> <g> <path class="st2" d="M623.22,488.77c8.26-19.71,19.9-46.84,32.86-76.76c12.95-29.92,24.66-57.01,33.03-76.67 c4.17-9.81,7.54-17.76,9.89-23.29c1.16-2.73,2.07-4.85,2.7-6.33c0.31-0.7,0.54-1.24,0.72-1.64c0.16-0.37,0.27-0.55,0.27-0.55 s-0.06,0.2-0.2,0.58c-0.16,0.4-0.38,0.95-0.66,1.67c-0.6,1.49-1.47,3.63-2.58,6.38c-2.25,5.54-5.56,13.52-9.69,23.38 c-8.26,19.71-19.9,46.84-32.85,76.75c-12.96,29.93-24.67,57.02-33.03,76.68"></path> </g> </g> </g> <g> <g> <g> <path class="st2" d="M658.98,347.11c0.04-0.02,0.25,0.44,0.58,1.28c0.33,0.83,0.78,2.06,1.32,3.57 c1.06,3.03,2.42,7.26,3.84,11.95c1.37,4.62,2.61,8.79,3.56,12.02c0.43,1.43,0.8,2.64,1.1,3.64c0.26,0.86,0.39,1.34,0.34,1.36 c-0.04,0.02-0.25-0.44-0.59-1.27c-0.33-0.84-0.78-2.06-1.3-3.58c-1.04-3.04-2.34-7.28-3.75-11.97 c-1.4-4.61-2.67-8.77-3.65-11.99c-0.44-1.42-0.81-2.64-1.11-3.63C659.06,347.61,658.94,347.12,658.98,347.11z"></path> </g> </g> </g> <g> <g> <g> <path class="st2" d="M671.51,381.15c-0.06-0.17,8.52-3.37,19.17-7.13c10.65-3.77,19.33-6.68,19.39-6.51 c0.06,0.17-8.52,3.37-19.17,7.13C680.26,378.41,671.57,381.32,671.51,381.15z"></path> </g> </g> </g> <g> <g> <g> <path class="st2" d="M649.54,426.2c0-0.05,0.5-0.1,1.42-0.16c1.06-0.06,2.35-0.14,3.87-0.23c3.27-0.2,7.78-0.48,12.75-0.97 c4.97-0.48,9.46-1.07,12.7-1.52c1.51-0.21,2.79-0.38,3.84-0.53c0.91-0.12,1.42-0.16,1.42-0.12c0.01,0.05-0.48,0.17-1.38,0.37 c-0.9,0.2-2.2,0.45-3.82,0.73c-3.23,0.57-7.72,1.23-12.71,1.72c-4.98,0.49-9.52,0.71-12.8,0.78c-1.64,0.03-2.97,0.04-3.89,0.02 C650.05,426.28,649.54,426.25,649.54,426.2z"></path> </g> </g> </g> <g> <g> <g> <path class="st2" d="M631.43,397.9c0.04-0.03,0.33,0.34,0.83,1.03c0.5,0.69,1.2,1.69,2.06,2.94c1.71,2.5,4.04,5.97,6.58,9.83 c2.54,3.86,4.81,7.38,6.42,9.94c0.81,1.28,1.45,2.32,1.88,3.05c0.43,0.73,0.65,1.14,0.62,1.17c-0.04,0.02-0.33-0.34-0.83-1.03 c-0.5-0.69-1.2-1.69-2.06-2.94c-1.71-2.5-4.05-5.97-6.59-9.83c-2.54-3.86-4.81-7.37-6.42-9.94c-0.81-1.28-1.45-2.32-1.88-3.05 C631.62,398.34,631.4,397.93,631.43,397.9z"></path> </g> </g> </g> <g> <g> <g> <path class="st2" d="M606.99,435.21c0.04-0.03,0.41,0.45,1.05,1.33c0.7,0.99,1.59,2.25,2.65,3.76 c2.21,3.19,5.23,7.62,8.54,12.53c3.3,4.92,6.26,9.39,8.38,12.64c0.99,1.55,1.82,2.85,2.48,3.87c0.57,0.92,0.87,1.45,0.83,1.47 c-0.04,0.03-0.41-0.45-1.05-1.33c-0.7-0.99-1.59-2.25-2.65-3.76c-2.21-3.19-5.23-7.62-8.54-12.54 c-3.3-4.92-6.26-9.39-8.38-12.64c-0.99-1.55-1.82-2.85-2.48-3.87C607.25,435.76,606.95,435.24,606.99,435.21z"></path> </g> </g> </g> <g> <g> <g> <path class="st2" d="M609.04,451.93c0-0.04,0.59-0.12,1.67-0.23c1.19-0.11,2.72-0.26,4.55-0.43c3.84-0.37,9.15-0.89,14.99-1.63 c5.84-0.73,11.11-1.53,14.93-2.13c1.82-0.28,3.34-0.52,4.52-0.71c1.07-0.16,1.66-0.23,1.67-0.19c0.01,0.04-0.57,0.19-1.63,0.42 c-1.06,0.23-2.59,0.55-4.49,0.9c-3.8,0.71-9.07,1.58-14.92,2.31c-5.85,0.74-11.17,1.2-15.03,1.45 c-1.93,0.12-3.49,0.21-4.57,0.24C609.64,451.97,609.04,451.97,609.04,451.93z"></path> </g> </g> </g> </g> <g> <g> <g> <g> <g> <g> <path class="st2" d="M283.74,361.47L53.4,289.77c-5.92-1.84-9.22-8.13-7.38-14.05l44.29-142.29 c1.84-5.92,8.13-9.22,14.05-7.38l230.34,71.7c5.92,1.84,9.22,8.13,7.38,14.05l-44.29,142.29 C295.95,360,289.66,363.31,283.74,361.47z"></path> </g> </g> <g> <g> <path class="st3" d="M296.47,227.62c-2.99,9.6-13.19,14.96-22.79,11.97c-9.6-2.99-14.96-13.19-11.97-22.79 c2.99-9.6,13.19-14.96,22.78-11.97C294.1,207.82,299.46,218.02,296.47,227.62z"></path> </g> </g> <g> <g> <path class="st3" d="M297.7,247.54c-1.11-0.14-2.21-0.38-3.3-0.72c-9.97-3.11-15.56-13.75-12.46-23.72 c3.1-9.97,13.74-15.56,23.72-12.46c9.97,3.11,15.56,13.75,12.46,23.72c-1.5,4.83-4.8,8.79-9.28,11.14 C305.37,247.32,301.51,248.02,297.7,247.54z M302.21,211.41c-8.23-1.04-16.29,3.94-18.84,12.13 c-2.86,9.19,2.29,18.99,11.48,21.85c4.45,1.39,9.18,0.95,13.31-1.21c4.13-2.17,7.16-5.81,8.55-10.27l0,0 c2.86-9.19-2.29-18.99-11.48-21.86C304.22,211.75,303.22,211.54,302.21,211.41z"></path> </g> </g> <g> <g> <path class="st3" d="M83.34,234.4l-4.35,13.98l-1.44-0.45l3.95-12.7l-3.29-1.03l0.4-1.28L83.34,234.4z"></path> </g> <g> <path class="st3" d="M93.76,251.58l-0.4,1.28l-9.8-3.05l0.32-1.02l7.58-3.88c2.06-1.06,2.65-1.91,2.95-2.87 c0.5-1.62-0.32-2.97-2.46-3.63c-1.64-0.51-3.05-0.4-4.3,0.37l-0.74-1.2c1.48-0.94,3.44-1.12,5.57-0.46 c2.84,0.88,4.19,2.88,3.46,5.22c-0.42,1.34-1.21,2.4-3.66,3.66l-6.21,3.19L93.76,251.58z"></path> </g> <g> <path class="st3" d="M109.22,253.76l-2.8-0.87l-1.14,3.67l-1.44-0.45l1.14-3.67l-7.89-2.45l0.32-1.04l10.29-6.96l1.6,0.5 l-9.96,6.8l6.07,1.89l1.01-3.23l1.4,0.44l-1.01,3.23l2.8,0.87L109.22,253.76z"></path> </g> <g> <path class="st3" d="M130.64,260.43l-2.79-0.87l-1.14,3.67l-1.44-0.45l1.14-3.67l-7.89-2.45l0.32-1.04l10.29-6.96l1.6,0.5 l-9.96,6.8l6.07,1.89l1.01-3.23l1.4,0.43l-1.01,3.23l2.79,0.87L130.64,260.43z"></path> </g> <g> <path class="st3" d="M143,263.79c-0.74,2.38-2.98,3.72-6.39,2.65c-2.02-0.63-3.72-1.92-4.45-3.36l1.05-0.92 c0.61,1.22,1.99,2.39,3.79,2.95c2.38,0.74,3.99-0.03,4.52-1.72c0.56-1.8-0.21-3.26-3.77-4.37l-2.97-0.93l2.9-6.79l7.65,2.38 l-0.4,1.28l-6.39-1.99l-1.86,4.3l1.8,0.56C142.68,259.16,143.77,261.31,143,263.79z"></path> </g> <g> <path class="st3" d="M156.83,268.03c-0.81,2.62-3.39,3.65-6.11,2.81c-3.71-1.16-4.93-4.36-3.55-8.77 c1.48-4.75,4.85-6.42,8.64-5.24c1.26,0.39,2.37,0.98,3.08,1.79l-0.94,0.98c-0.57-0.7-1.47-1.18-2.51-1.5 c-3.01-0.94-5.56,0.39-6.74,4.19c-0.1,0.32-0.2,0.72-0.29,1.16c1.18-1.32,3.08-1.67,5.02-1.07 C156.2,263.24,157.62,265.48,156.83,268.03z M155.4,267.63c0.57-1.84-0.42-3.44-2.58-4.11c-2.14-0.66-4,0.2-4.54,1.94 c-0.48,1.54,0.35,3.39,2.76,4.14C153.06,270.23,154.82,269.49,155.4,267.63z"></path> </g> <g> <path class="st3" d="M175.9,274.14c-0.73,2.34-2.98,3.6-6.36,2.56c-2.02-0.63-3.74-1.93-4.47-3.36l1.05-0.92 c0.61,1.22,2.01,2.4,3.83,2.97c2.32,0.72,3.93,0.04,4.47-1.7c0.52-1.68-0.31-3.14-2.91-3.95l-1-0.31l0.33-1.06l5.38-3.65 l-7.15-2.22l0.4-1.28l8.98,2.8l-0.32,1.02l-5.5,3.74C175.59,269.86,176.6,271.91,175.9,274.14z"></path> </g> <g> <path class="st3" d="M189.96,278.35c-0.81,2.62-3.39,3.65-6.11,2.81c-3.71-1.16-4.93-4.36-3.55-8.77 c1.48-4.75,4.85-6.42,8.64-5.24c1.26,0.39,2.37,0.98,3.08,1.79l-0.94,0.98c-0.57-0.7-1.47-1.18-2.51-1.5 c-3.01-0.94-5.55,0.39-6.73,4.19c-0.1,0.32-0.21,0.72-0.3,1.16c1.18-1.32,3.08-1.67,5.02-1.06 C189.33,273.55,190.76,275.79,189.96,278.35z M188.53,277.94c0.57-1.84-0.42-3.44-2.58-4.11c-2.14-0.67-4,0.2-4.54,1.94 c-0.48,1.54,0.34,3.39,2.76,4.14C186.19,280.54,187.96,279.8,188.53,277.94z"></path> </g> <g> <path class="st3" d="M205.87,272.54l-0.32,1.02l-9.88,11.14l-1.56-0.49l9.7-10.91l-7.19-2.24l-0.81,2.62l-1.42-0.44 l1.21-3.89L205.87,272.54z"></path> </g> <g> <path class="st3" d="M225.85,278.76l-0.32,1.02l-9.88,11.14l-1.56-0.48l9.7-10.91l-7.19-2.24l-0.81,2.62l-1.42-0.44 l1.21-3.89L225.85,278.76z"></path> </g> <g> <path class="st3" d="M236.47,293.13c-0.77,2.48-3.34,3.36-6.68,2.32c-3.35-1.04-4.91-3.22-4.14-5.69 c0.52-1.68,1.85-2.56,3.76-2.6c-1.24-1-1.69-2.3-1.24-3.76c0.71-2.28,3.09-3.09,6.04-2.17c2.96,0.92,4.49,2.95,3.78,5.23 c-0.45,1.46-1.58,2.27-3.19,2.38C236.38,289.97,236.98,291.47,236.47,293.13z M235,292.65c0.53-1.72-0.61-3.25-3.09-4.03 c-2.47-0.77-4.27-0.15-4.8,1.57c-0.54,1.74,0.58,3.27,3.06,4.04C232.64,295,234.46,294.38,235,292.65z M232.27,287.48 c2.18,0.68,3.78,0.1,4.25-1.41c0.49-1.58-0.59-2.96-2.68-3.62c-2.12-0.66-3.75-0.12-4.24,1.44 C229.12,285.43,230.09,286.81,232.27,287.48z"></path> </g> <g> <path class="st3" d="M251.04,294.14c-1.48,4.75-4.85,6.42-8.64,5.24c-1.26-0.39-2.37-0.98-3.08-1.79l0.94-0.98 c0.57,0.7,1.47,1.18,2.51,1.5c3.01,0.94,5.56-0.39,6.73-4.19c0.1-0.32,0.21-0.72,0.29-1.16c-1.18,1.32-3.08,1.67-5.02,1.06 c-2.77-0.86-4.2-3.1-3.41-5.66c0.81-2.61,3.39-3.65,6.11-2.81C251.2,286.52,252.41,289.72,251.04,294.14z M249.93,290.75 c0.48-1.54-0.34-3.39-2.76-4.14c-2.02-0.63-3.78,0.11-4.36,1.97c-0.57,1.84,0.42,3.44,2.58,4.11 C247.52,293.35,249.39,292.48,249.93,290.75z"></path> </g> <g> <path class="st3" d="M267.35,291.68L263,305.66l-1.44-0.45l3.95-12.7l-3.29-1.03l0.4-1.28L267.35,291.68z"></path> </g> <g> <path class="st3" d="M277.77,308.85l-0.4,1.28l-9.8-3.05l0.32-1.02l7.58-3.88c2.06-1.07,2.65-1.91,2.95-2.87 c0.5-1.62-0.33-2.97-2.46-3.63c-1.64-0.51-3.05-0.4-4.3,0.37l-0.75-1.2c1.48-0.94,3.44-1.12,5.57-0.46 c2.83,0.88,4.18,2.88,3.46,5.22c-0.42,1.34-1.21,2.4-3.66,3.66l-6.21,3.19L277.77,308.85z"></path> </g> <g> <path class="st3" d="M291.16,310.02c-0.73,2.34-2.98,3.61-6.36,2.55c-2.02-0.63-3.73-1.93-4.47-3.36l1.05-0.92 c0.61,1.22,2.01,2.4,3.83,2.96c2.32,0.72,3.93,0.04,4.47-1.7c0.52-1.68-0.31-3.14-2.91-3.95l-1-0.31l0.33-1.06l5.38-3.65 l-7.15-2.22l0.4-1.28l8.99,2.8l-0.32,1.02l-5.5,3.74C290.85,305.74,291.86,307.78,291.16,310.02z"></path> </g> </g> <g> <g> <rect x="231.21" y="252.8" transform="matrix(0.2972 -0.9548 0.9548 0.2972 -132.6168 442.6791)" class="st3" width="6.36" height="117.25"></rect> </g> </g> <g> <g> <rect x="254.7" y="301.96" transform="matrix(0.2972 -0.9548 0.9548 0.2972 -135.7775 479.5997)" class="st3" width="6.36" height="60.13"></rect> </g> </g> <g class="st4"> <g> <path class="st1" d="M120.8,232.85l-37.5-11.67c-2.62-0.81-4.08-3.6-3.26-6.21l7.97-25.61c0.81-2.62,3.6-4.08,6.21-3.26 l37.49,11.67c2.62,0.81,4.08,3.6,3.26,6.21l-7.97,25.61C126.21,232.2,123.42,233.66,120.8,232.85z"></path> </g> </g> <g> <g> <path class="st2" d="M81.59,209.99l0.7-2.25l24.18,7.53c2.79,0.87,5.77-0.7,6.64-3.49c0.87-2.79-0.72-5.81-3.49-6.64 l-24.19-7.53l0.7-2.25l24.18,7.53c4.03,1.26,6.29,5.56,5.04,9.59c-1.26,4.03-5.56,6.29-9.59,5.04L81.59,209.99z"></path> </g> </g> <g> <g> <rect x="121.36" y="206.02" transform="matrix(0.2981 -0.9545 0.9545 0.2981 -118.9359 267.6765)" class="st2" width="2.36" height="17.39"></rect> </g> </g> <g> <g> <rect x="99.55" y="176.02" transform="matrix(0.9548 0.2973 -0.2973 0.9548 61.2976 -40.1961)" class="st3" width="126.52" height="10.86"></rect> </g> </g> </g> </g> </g> </g> <g> <g> <g> <g> <g> <path class="st0" d="M141.53,428.93c2.54,17.5-9.61,33.75-27.15,36.3c-17.54,2.55-33.82-9.57-36.36-27.07 c-2.54-17.5,9.61-33.75,27.15-36.3C122.71,399.32,138.99,411.44,141.53,428.93z"></path> </g> </g> </g> <g> <g> <g> <path class="st1" d="M133.98,430.03c1.94,13.33-7.33,25.72-20.69,27.66c-13.36,1.94-25.77-7.29-27.71-20.63 c-1.94-13.33,7.33-25.72,20.69-27.66C119.63,407.46,132.04,416.7,133.98,430.03z"></path> </g> </g> </g> <g> <g> <g> <g> <path class="st2" d="M133.86,429.27c-0.15,0.03-0.4-1.02-1.06-2.82c-0.67-1.78-1.79-4.34-3.87-7.01 c-1.04-1.33-2.31-2.68-3.84-3.93c-1.54-1.24-3.32-2.4-5.34-3.3c-1.01-0.46-2.07-0.86-3.19-1.18 c-1.11-0.32-2.27-0.59-3.46-0.74c-1.19-0.15-2.42-0.25-3.66-0.21c-1.24,0.03-2.5,0.15-3.76,0.36 c-1.26,0.23-2.48,0.55-3.65,0.95c-1.18,0.4-2.3,0.9-3.36,1.46c-1.07,0.55-2.06,1.2-3,1.88c-0.94,0.68-1.8,1.43-2.59,2.2 c-1.59,1.55-2.86,3.25-3.88,4.94c-1,1.7-1.73,3.41-2.25,5.01c-1.04,3.22-1.21,6.01-1.22,7.91c0,1.91,0.12,2.99-0.03,3.01 c-0.11,0.02-0.47-1.01-0.7-2.97c-0.22-1.95-0.25-4.87,0.67-8.32c0.46-1.72,1.16-3.56,2.18-5.41 c1.02-1.84,2.34-3.69,4.01-5.39c0.83-0.85,1.74-1.67,2.74-2.42c0.99-0.75,2.06-1.46,3.2-2.07c1.14-0.61,2.35-1.17,3.62-1.6 c1.27-0.44,2.59-0.79,3.94-1.04c1.36-0.23,2.71-0.36,4.05-0.38c1.34-0.03,2.66,0.08,3.95,0.26c1.29,0.18,2.53,0.48,3.72,0.84 c1.19,0.36,2.33,0.82,3.4,1.33c2.15,1.02,4.02,2.31,5.62,3.68c1.58,1.39,2.88,2.88,3.91,4.33c2.06,2.92,3.03,5.68,3.5,7.58 C133.96,428.16,133.97,429.26,133.86,429.27z"></path> </g> </g> </g> </g> </g> <g> <g> <g> <g> <g> <path class="st2" d="M114.61,447.59l0.67,4.21l-3.76,0.6l-0.66-4.09c-3.75,0.37-7.51-0.22-9.83-1.51l1.33-4.91 c2.1,1.09,4.97,1.67,7.71,1.5l-1-6.27c-4.33-0.35-9.21-0.99-10.07-6.36c-0.64-3.98,1.71-7.86,7.53-9.49l-0.67-4.17l3.76-0.6 l0.66,4.09c2.85-0.23,5.71,0.09,7.99,1.07l-1.14,4.92c-2.09-0.78-4.14-1.11-6.06-1.03l1.02,6.38 c4.32,0.31,9.13,0.97,9.98,6.26C122.71,442.09,120.39,445.93,114.61,447.59z M108.2,431.59l-0.85-5.33 c-1.92,0.77-2.53,1.98-2.33,3.22C105.22,430.79,106.46,431.33,108.2,431.59z M116.11,439.6c-0.21-1.32-1.41-1.85-3.12-2.16 l0.83,5.18C115.63,441.91,116.3,440.81,116.11,439.6z"></path> </g> </g> </g> </g> </g> </g> </g> <g id="Background_Simple" class="st5"> <path class="st6" d="M674.66,234.99c-10.07-47.74-48.64-90.63-97.3-94.09c-31.53-2.25-61.93,10.39-91.9,20.44 c-29.97,10.05-63.36,17.57-92.6,5.53c-33.07-13.62-51.87-48.32-80.08-70.3c-38.59-30.06-95.02-33.36-138.53-11 c-43.5,22.36-73.15,68.1-79.38,116.62c-6.23,48.52,9.92,98.76,40.39,137.02c0.3,0.38,0.61,0.76,0.92,1.15 c41.34,51.46,102.5,83.08,168.37,87.48l125.13,8.37c98.56-1.71,141.41-27.89,182.6-54.02C653.48,356.06,688.1,298.71,674.66,234.99 z"></path> </g> <g id="Plant"> <g> <g> <g> <path class="st7" d="M620.96,442.29c-2.34,3.35-6.9,2.24-9.01,0.2c-2.11-2.04-3-5-3.82-7.83c-1.86-6.45-3.73-13.22-2.35-19.78 c0.41-1.96,1.15-3.92,2.53-5.38c1.38-1.46,3.5-2.32,5.44-1.81c2.3,0.61,3.72,2.86,4.75,4.99c3.03,6.29,4.64,13.26,4.66,20.24 C623.19,436.18,622.8,439.6,620.96,442.29"></path> </g> </g> <g class="st8"> <g> <path d="M620.96,442.29c-2.34,3.35-6.9,2.24-9.01,0.2c-2.11-2.04-3-5-3.82-7.83c-1.86-6.45-3.73-13.22-2.35-19.78 c0.41-1.96,1.15-3.92,2.53-5.38c1.38-1.46,3.5-2.32,5.44-1.81c2.3,0.61,3.72,2.86,4.75,4.99c3.03,6.29,4.64,13.26,4.66,20.24 C623.19,436.18,622.8,439.6,620.96,442.29"></path> </g> </g> <g> <g> <path class="st7" d="M591.96,442.11c-3.56-1.84-7.75-2.08-11.7-1.42c-2.12,0.35-4.34,0.99-5.78,2.58 c-1.44,1.59-1.72,4.4-0.06,5.77c0.99,0.82,2.36,0.94,3.64,0.92c3.09-0.04,6.53-0.58,9,1.28c1.41,1.06,2.35,2.83,4.03,3.35 c1.65,0.51,3.51-0.46,4.38-1.95c0.87-1.49,0.9-3.35,0.5-5.03C595.98,447.62,595.55,443.96,591.96,442.11z"></path> </g> </g> <g> <g> <path class="st7" d="M627.4,447.09c-2.54-3.02-3.03-7.42-1.89-11.2c1.13-3.78,3.69-7,6.64-9.63c3.46-3.08,7.52-5.48,11.88-7.01 c1.72-0.6,3.53-1.08,5.34-0.91c1.81,0.17,3.64,1.1,4.48,2.71c1.25,2.39,0.05,5.28-1.25,7.64c-2.28,4.16-4.9,8.14-7.81,11.89 c-2.34,3.02-5.02,5.99-8.58,7.35c-3.57,1.36-7.27,1.2-9.16-1.27"></path> </g> </g> <g> <g> <g> <path class="st9" d="M600.26,473.26c-0.04,0-0.11-0.5-0.2-1.41c-0.1-1.03-0.23-2.32-0.38-3.85c-0.18-1.62-0.42-3.55-0.87-5.65 c-0.45-2.1-1.15-4.37-2.05-6.67c-0.94-2.29-2.08-4.37-3.41-6.04c-1.32-1.67-2.86-2.88-4.31-3.58c-1.44-0.71-2.73-1-3.63-1.13 c-0.9-0.09-1.41-0.16-1.41-0.2c0-0.04,0.51-0.05,1.43-0.02c0.92,0.06,2.26,0.29,3.78,0.98c1.52,0.68,3.16,1.91,4.54,3.61 c1.4,1.7,2.58,3.83,3.53,6.16c0.92,2.34,1.61,4.64,2.04,6.78c0.43,2.14,0.62,4.09,0.75,5.73c0.12,1.64,0.17,2.96,0.19,3.88 C600.31,472.75,600.3,473.26,600.26,473.26z"></path> </g> </g> </g> <g> <g> <g> <path class="st9" d="M620.84,489.58c-0.02,0-0.03-0.24-0.04-0.71c0-0.53,0-1.2,0.01-2.02c0-1.75,0-4.28-0.09-7.41 c-0.15-6.26-0.69-14.9-1.73-24.39c-1.05-9.5-2.44-18.04-3.7-24.17c-0.3-1.54-0.6-2.92-0.88-4.13c-0.27-1.21-0.5-2.26-0.72-3.11 c-0.19-0.8-0.35-1.45-0.47-1.96c-0.1-0.45-0.14-0.69-0.12-0.7c0.02-0.01,0.1,0.22,0.25,0.66c0.15,0.51,0.35,1.15,0.59,1.93 c0.26,0.84,0.53,1.88,0.83,3.09c0.32,1.21,0.65,2.59,0.98,4.12c1.38,6.12,2.84,14.68,3.89,24.19 c1.04,9.51,1.51,18.18,1.55,24.45c0.04,3.14-0.03,5.68-0.11,7.43c-0.05,0.82-0.09,1.49-0.12,2.02 C620.89,489.34,620.86,489.58,620.84,489.58z"></path> </g> </g> </g> <g> <g> <g> <path class="st9" d="M620.8,472.87c-0.04,0-0.04-0.75,0.01-2.11c0.08-1.35,0.26-3.31,0.65-5.71c0.4-2.39,0.97-5.23,1.86-8.32 c0.84-3.1,2-6.44,3.48-9.84c2.89-6.84,6.81-12.44,10.22-15.91c0.8-0.92,1.69-1.58,2.4-2.23c0.37-0.31,0.69-0.62,1.03-0.87 c0.33-0.23,0.64-0.44,0.93-0.64c1.12-0.77,1.75-1.17,1.77-1.14c0.1,0.14-2.51,1.68-5.82,5.19c-3.29,3.51-7.1,9.06-9.96,15.85 c-1.46,3.37-2.63,6.69-3.5,9.75c-0.91,3.06-1.52,5.87-1.98,8.24c-0.44,2.37-0.69,4.31-0.84,5.65 C620.93,472.12,620.84,472.87,620.8,472.87z"></path> </g> </g> </g> </g> </g> <g id="Credit_Card"> <g> <g> <g> <g> <path class="st7" d="M358.2,377.01L171.14,179.13c-1.97-2.09-1.88-5.37,0.21-7.35L294.11,55.72c2.09-1.97,5.37-1.88,7.35,0.21 L488.53,253.8c1.97,2.09,1.88,5.37-0.21,7.35L365.55,377.21C363.46,379.18,360.18,379.09,358.2,377.01z"></path> </g> </g> <g class="st10"> <g> <path d="M358.2,377.01L171.14,179.13c-1.97-2.09-1.88-5.37,0.21-7.35L294.11,55.72c2.09-1.97,5.37-1.88,7.35,0.21L488.53,253.8 c1.97,2.09,1.88,5.37-0.21,7.35L365.55,377.21C363.46,379.18,360.18,379.09,358.2,377.01z"></path> </g> </g> <g> <g> <g> <path class="st7" d="M487.16,252.35L302.83,57.37c-2.73-2.88-7.28-3.01-10.16-0.29l-34.88,32.98 c-0.7,0.66-1.03,1.62-0.87,2.57c3.48,19.5,17.44,36.94,34.06,48.49c20.1,13.97,43.9,21.32,66.53,30.64 c22.63,9.32,45.33,21.6,58.89,41.97c12.8,19.22,15.83,43.06,22.34,65.22c1.74,5.91,3.91,11.89,6.58,17.62 c0.83,1.78,3.16,2.24,4.59,0.89l36.97-34.95C489.76,259.79,489.89,255.24,487.16,252.35z"></path> </g> </g> </g> <g> <g> <path class="st3" d="M300.1,114.12c-1.67,1.58-3.88,1.16-6.28-1.37l-4.72-4.99l9.64-9.12l4.45,4.71 c2.28,2.41,2.45,4.6,0.94,6.02c-0.96,0.91-2.18,1.12-3.33,0.72C301.49,111.51,301.31,112.98,300.1,114.12z M299.17,102.46 l-2.27,2.15l2.1,2.22c1.03,1.09,1.97,1.32,2.73,0.6c0.76-0.72,0.57-1.66-0.46-2.75L299.17,102.46z M298.21,111.66 c0.81-0.77,0.61-1.75-0.48-2.91l-2.46-2.6l-2.38,2.25l2.46,2.6C296.44,112.16,297.39,112.44,298.21,111.66z"></path> </g> <g> <path class="st3" d="M307.14,122.7l-4.23-4.48l-2.87,1.1l-2.16-2.29l13.71-4.82l2.08,2.2l-5.57,13.43l-2.21-2.34L307.14,122.7z M308.17,120.39l2.25-5.02l-5.14,1.96L308.17,120.39z"></path> </g> <g> <path class="st3" d="M327.04,128.57l-9.64,9.12l-1.73-1.83l1.31-10.34l-5.86,5.54l-2.08-2.2l9.64-9.12l1.75,1.85l-1.32,10.33 l5.85-5.53L327.04,128.57z"></path> </g> <g> <path class="st3" d="M326.66,139.9l-2.57-0.02l-2.44,2.31l-2.1-2.22l9.64-9.12l2.1,2.22l-4.5,4.26l8.54,0.01l2.34,2.48 l-8.07,0.07l-1.35,9.28l-2.46-2.6L326.66,139.9z"></path> </g> </g> <g> <g> <path class="st3" d="M258.3,150.23l-1.67-1.77l-2.33,2.2l-0.86-0.91l2.33-2.2l-4.72-4.99l0.66-0.62l10.3-0.86l0.96,1.01 l-9.99,0.88l3.63,3.84l2.05-1.94l0.84,0.88l-2.05,1.94l1.67,1.77L258.3,150.23z"></path> </g> <g> <path class="st3" d="M264.66,156.52c-1.48,1.4-3.63,1.4-5.65-0.74c-1.21-1.28-1.92-2.92-1.88-4.26l1.14-0.24 c-0.06,1.13,0.48,2.56,1.57,3.71c1.39,1.47,2.83,1.63,3.93,0.59c1.06-1,1.05-2.41-0.5-4.05l-0.6-0.63l0.67-0.63l5.39-0.45 l-4.28-4.53l0.81-0.77l5.38,5.69l-0.65,0.61l-5.51,0.47C266.17,153.29,266.07,155.18,264.66,156.52z"></path> </g> <g> <path class="st3" d="M271.49,163.62c-1.5,1.42-3.67,1.48-5.72-0.68c-1.21-1.28-1.91-2.91-1.86-4.25l1.14-0.24 c-0.06,1.13,0.47,2.55,1.54,3.69c1.42,1.5,2.91,1.61,3.98,0.59c1.14-1.08,1.18-2.45-0.95-4.7l-1.78-1.88l4.87-3.74l4.58,4.84 l-0.81,0.76l-3.83-4.05l-3.11,2.36l1.08,1.14C273.15,160.13,273.05,162.14,271.49,163.62z"></path> </g> <g> <path class="st3" d="M278.9,171.39c-1.66,1.57-3.95,1.27-5.58-0.45c-2.22-2.35-1.8-5.17,1-7.81c3.01-2.84,6.13-2.68,8.4-0.28 c0.75,0.8,1.32,1.67,1.5,2.55l-1.08,0.33c-0.13-0.74-0.59-1.46-1.21-2.11c-1.81-1.91-4.19-1.98-6.59,0.29 c-0.2,0.19-0.44,0.44-0.68,0.72c1.39-0.48,2.92,0.05,4.08,1.27C280.39,167.65,280.52,169.85,278.9,171.39z M278.02,170.51 c1.16-1.1,1.1-2.66-0.19-4.03c-1.28-1.35-2.99-1.49-4.09-0.45c-0.97,0.92-1.13,2.6,0.31,4.13 C275.27,171.44,276.85,171.62,278.02,170.51z"></path> </g> <g> <path class="st3" d="M294.34,193.01l0.79-4.74l-4.79,0.51l-0.96-1.01l5.9-0.6l0.87-5.56l0.96,1.01l-0.72,4.46l4.49-0.46 l0.93,0.99l-5.6,0.56l-0.9,5.88L294.34,193.01z"></path> </g> <g> <path class="st3" d="M300.72,199.76l0.79-4.74l-4.79,0.51l-0.96-1.01l5.9-0.6l0.87-5.56l0.96,1.01l-0.72,4.46l4.49-0.46 l0.93,0.99l-5.6,0.56l-0.9,5.88L300.72,199.76z"></path> </g> <g> <path class="st3" d="M307.11,206.52l0.79-4.74l-4.79,0.51l-0.96-1.01l5.9-0.6l0.87-5.56l0.96,1.01l-0.72,4.46l4.49-0.46 l0.93,0.99l-5.6,0.56l-0.9,5.88L307.11,206.52z"></path> </g> <g> <path class="st3" d="M313.49,213.27l0.79-4.74l-4.79,0.51l-0.96-1.01l5.9-0.6l0.87-5.56l0.96,1.01l-0.72,4.46l4.49-0.46 l0.93,0.99l-5.6,0.56l-0.9,5.88L313.49,213.27z"></path> </g> <g> <path class="st3" d="M335.53,236.58l0.79-4.74l-4.79,0.51l-0.96-1.01l5.9-0.6l0.87-5.56l0.96,1.01l-0.72,4.46l4.49-0.46 l0.93,0.99l-5.6,0.56l-0.9,5.88L335.53,236.58z"></path> </g> <g> <path class="st3" d="M341.91,243.33l0.79-4.74l-4.79,0.51l-0.96-1.01l5.9-0.6l0.87-5.56l0.96,1.01l-0.72,4.46l4.49-0.46 l0.93,0.99l-5.6,0.56l-0.9,5.88L341.91,243.33z"></path> </g> <g> <path class="st3" d="M348.3,250.09l0.79-4.74l-4.79,0.51l-0.96-1.01l5.9-0.6l0.87-5.56l0.96,1.01l-0.72,4.46l4.49-0.46 l0.93,0.99l-5.6,0.56l-0.9,5.88L348.3,250.09z"></path> </g> <g> <path class="st3" d="M354.68,256.84l0.79-4.74l-4.79,0.51l-0.96-1.01l5.9-0.6l0.87-5.56l0.96,1.01l-0.72,4.46l4.49-0.46 l0.93,0.99l-5.6,0.56l-0.9,5.88L354.68,256.84z"></path> </g> <g> <path class="st3" d="M383.33,269.41l-8.85,8.37l-0.86-0.91l8.04-7.6l-1.97-2.09l0.81-0.77L383.33,269.41z"></path> </g> <g> <path class="st3" d="M384.55,283.34c-1.48,1.4-3.63,1.4-5.65-0.74c-1.21-1.28-1.92-2.92-1.88-4.26l1.14-0.24 c-0.06,1.13,0.48,2.56,1.57,3.71c1.39,1.47,2.83,1.63,3.93,0.59c1.06-1,1.05-2.41-0.5-4.05l-0.6-0.63l0.67-0.63l5.39-0.45 l-4.28-4.53l0.81-0.77l5.38,5.69l-0.65,0.61l-5.51,0.47C386.07,280.11,385.96,282,384.55,283.34z"></path> </g> <g> <path class="st3" d="M392.65,292.34l-1.67-1.77l-2.33,2.2l-0.86-0.91l2.33-2.2l-4.72-4.99l0.66-0.62l10.3-0.86l0.96,1.01 l-9.99,0.88l3.63,3.84l2.05-1.94l0.84,0.88l-2.05,1.94l1.67,1.77L392.65,292.34z"></path> </g> <g> <path class="st3" d="M397.59,300.6l-0.81,0.77l-5.87-6.21l0.64-0.61l7.08,0.27c1.93,0.07,2.7-0.31,3.31-0.88 c1.02-0.97,0.98-2.29-0.3-3.64c-0.98-1.04-2.05-1.54-3.27-1.48l-0.05-1.17c1.46-0.08,2.95,0.59,4.23,1.94 c1.7,1.8,1.86,3.79,0.38,5.19c-0.85,0.8-1.86,1.25-4.14,1.16l-5.8-0.21L397.59,300.6z"></path> </g> </g> <g> <g> <path class="st3" d="M226.04,157.57c1.27-1.2,3.11-1.09,4.35,0.23c0.69,0.73,1,1.59,0.89,2.45l-1.17-0.08 c0.06-0.59-0.11-1.11-0.51-1.53c-0.75-0.79-1.83-0.83-2.63-0.07c-0.8,0.75-0.82,1.84-0.07,2.63c0.4,0.42,0.9,0.62,1.51,0.59 l0.01,1.18c-0.87,0.06-1.71-0.29-2.4-1.03C224.78,160.61,224.76,158.77,226.04,157.57z"></path> </g> <g> <path class="st3" d="M231.82,166.1l-1.85-1.96l-1.26,0.48l-0.95-1l6-2.11l0.91,0.97l-2.44,5.88l-0.97-1.03L231.82,166.1z M232.27,165.09l0.98-2.2l-2.25,0.86L232.27,165.09z"></path> </g> <g> <path class="st3" d="M235.21,171.5l0.41-1.93l-0.05-0.05l-0.8-0.85l-1.18,1.11l-0.92-0.98l4.22-3.99l1.73,1.83 c1.07,1.13,1.15,2.39,0.2,3.28c-0.63,0.6-1.4,0.72-2.15,0.39l-0.46,2.23L235.21,171.5z M237.77,167.34l-0.75-0.8l-1.47,1.39 l0.75,0.8c0.57,0.6,1.13,0.64,1.59,0.2C238.34,168.49,238.33,167.94,237.77,167.34z"></path> </g> <g> <path class="st3" d="M236.96,172.52l1.05-0.36c0.08,0.6,0.4,1.3,0.88,1.81c0.55,0.58,0.96,0.63,1.22,0.39 c0.79-0.75-2.07-2.69-0.5-4.17c0.72-0.68,1.86-0.66,3,0.54c0.5,0.53,0.89,1.19,1.01,1.82l-1.03,0.4 c-0.15-0.6-0.42-1.11-0.78-1.49c-0.55-0.58-0.98-0.6-1.24-0.35c-0.78,0.74,2.08,2.68,0.53,4.15c-0.71,0.67-1.86,0.65-3-0.56 C237.47,174.03,237.03,173.17,236.96,172.52z"></path> </g> <g> <path class="st3" d="M250.01,178.69l-4.22,3.99l-0.92-0.98l1.73-1.64l-1.81-1.92l-1.73,1.64l-0.92-0.98l4.22-3.99l0.92,0.98 l-1.67,1.57l1.81,1.92l1.67-1.57L250.01,178.69z"></path> </g> <g> <path class="st3" d="M248.6,181.43c1.26-1.19,3.11-1.09,4.37,0.25c1.25,1.33,1.26,3.18,0,4.38c-1.26,1.19-3.11,1.08-4.37-0.25 C247.34,184.48,247.34,182.62,248.6,181.43z M252.03,185.07c0.8-0.76,0.82-1.84,0.1-2.6c-0.71-0.76-1.8-0.8-2.6-0.04 c-0.8,0.76-0.82,1.84-0.1,2.6C250.15,185.78,251.23,185.82,252.03,185.07z"></path> </g> <g> <path class="st3" d="M255.79,184.8l0.92,0.98l-3.43,3.24l2,2.12l-0.8,0.75l-2.93-3.1L255.79,184.8z"></path> </g> <g> <path class="st3" d="M259.24,188.45l1.81,1.92c1.31,1.38,1.37,3.12,0.09,4.33c-1.28,1.21-3.01,1.05-4.31-0.33l-1.81-1.92 L259.24,188.45z M257.58,193.56c0.79,0.84,1.81,0.92,2.62,0.15c0.81-0.76,0.79-1.79,0-2.63l-0.84-0.89l-2.62,2.48 L257.58,193.56z"></path> </g> <g> <path class="st3" d="M263.61,199.97l-0.78,0.74l-3.09-3.27l4.22-3.99l3.02,3.19l-0.78,0.74l-2.1-2.22l-0.92,0.87l1.85,1.96 l-0.76,0.72l-1.85-1.96l-0.98,0.92L263.61,199.97z"></path> </g> <g> <path class="st3" d="M266.11,204.18l0.41-1.93l-0.05-0.05l-0.8-0.85l-1.18,1.11l-0.92-0.98l4.22-3.99l1.73,1.83 c1.07,1.13,1.15,2.39,0.2,3.28c-0.63,0.6-1.4,0.72-2.15,0.39l-0.46,2.23L266.11,204.18z M268.67,200.03l-0.75-0.8l-1.47,1.39 l0.75,0.8c0.57,0.6,1.13,0.64,1.59,0.2C269.25,201.18,269.23,200.62,268.67,200.03z"></path> </g> </g> <g> <g> <path class="st3" d="M209.13,172.75l2.24-0.14c-0.18,1-0.02,1.78,0.53,2.36c0.71,0.76,1.54,0.72,2.44-0.12l3.87-3.66l-2.7-2.86 l1.51-1.43l4.47,4.73l-5.28,4.99c-2.01,1.9-3.96,1.82-5.77-0.09C209.42,175.43,208.93,174.07,209.13,172.75z"></path> </g> <g> <path class="st3" d="M215.54,179.53c0.67-0.64,1.59-0.56,2.18,0.07c0.59,0.63,0.62,1.55-0.05,2.18 c-0.66,0.63-1.61,0.58-2.21-0.05C214.88,181.11,214.88,180.16,215.54,179.53z"></path> </g> <g> <path class="st3" d="M237.26,188.3l-10.65,5.03l-1.91-2.02l3.82-7l-7.26,3.36l-1.9-2.01l5.61-10.37l1.85,1.95l-3.98,7.24 l7.53-3.49l1.65,1.74l-4.01,7.31l7.56-3.56L237.26,188.3z"></path> </g> <g> <path class="st3" d="M238.02,189.1c0.57-0.54,1.44-0.5,2.08,0.17c0.64,0.67,0.65,1.52,0.09,2.05c-0.6,0.57-1.47,0.54-2.11-0.14 C237.44,190.51,237.45,189.64,238.02,189.1z M236.34,191.11l1.71,1.81l-6.25,5.91l-1.71-1.81L236.34,191.11z"></path> </g> <g> <path class="st3" d="M242.02,192.36l1.71,1.81l-8.63,8.15l-1.71-1.81L242.02,192.36z"></path> </g> <g> <path class="st3" d="M245.33,195.85l1.71,1.81l-8.63,8.15l-1.71-1.81L245.33,195.85z"></path> </g> <g> <path class="st3" d="M247.93,199.59c0.57-0.54,1.44-0.5,2.08,0.17c0.64,0.67,0.65,1.52,0.09,2.05 c-0.6,0.57-1.47,0.54-2.11-0.14C247.35,201,247.36,200.13,247.93,199.59z M246.26,201.59l1.71,1.81l-6.25,5.91L240,207.5 L246.26,201.59z"></path> </g> <g> <path class="st3" d="M252.11,213.16l-3.57,3.37l-1.61-1.7l0.78-0.74c-0.89,0.2-1.81-0.16-2.67-1.08 c-1.39-1.47-1.4-3.11-0.31-4.13c1.1-1.04,2.61-0.99,4.41,0.92l1.36,1.44c0.78-0.74,0.79-1.63-0.13-2.61 c-0.63-0.66-1.5-1.14-2.28-1.25l0.65-1.85c1.14,0.22,2.36,0.98,3.31,1.98C253.84,209.43,254,211.37,252.11,213.16z M248.8,212.85l0.64-0.6l-1.18-1.25c-0.8-0.85-1.37-0.82-1.79-0.42c-0.45,0.43-0.39,1.1,0.21,1.74 C247.26,212.92,248.03,213.18,248.8,212.85z"></path> </g> <g> <path class="st3" d="M263.65,225.35l-3.58,3.38l-1.71-1.81l3.3-3.12c1.01-0.96,1.05-1.85,0.35-2.58 c-0.77-0.81-1.83-0.89-2.95,0.17l-3.14,2.97l-1.71-1.81l3.3-3.12c1.01-0.96,1.07-1.83,0.36-2.58c-0.76-0.8-1.82-0.88-2.94,0.18 l-3.14,2.97l-1.72-1.81l6.25-5.91l1.64,1.73l-0.72,0.68c0.97-0.04,1.91,0.39,2.67,1.2c0.82,0.87,1.19,1.93,0.92,3.02 c1.11-0.1,2.26,0.35,3.16,1.29C265.41,221.66,265.56,223.54,263.65,225.35z"></path> </g> <g> <path class="st3" d="M261.61,229.19l1.87-0.63c0.17,0.9,0.72,1.98,1.45,2.75c0.79,0.84,1.31,0.94,1.66,0.61 c1.02-0.97-3.6-3.76-1.1-6.12c1.19-1.12,3.03-0.84,4.76,0.98c0.81,0.86,1.52,2,1.73,2.92l-1.86,0.62 c-0.23-0.95-0.7-1.67-1.24-2.24c-0.77-0.81-1.36-0.92-1.68-0.61c-1.07,1.01,3.54,3.81,1.07,6.14c-1.16,1.1-3.01,0.8-4.78-1.07 C262.5,231.48,261.78,230.14,261.61,229.19z"></path> </g> </g> <g> <g> <path class="st3" d="M333.82,299.08c2.69-2.54,5.62-2.49,7.51-0.49c1.9,2.01,1.77,4.93-0.91,7.47c-2.68,2.54-5.6,2.5-7.5,0.49 C331.02,304.55,331.14,301.62,333.82,299.08z M338.62,304.16c1.85-1.75,2-3.12,1.11-4.06c-0.88-0.93-2.26-0.86-4.11,0.89 c-1.85,1.75-2,3.12-1.12,4.05C335.39,305.99,336.78,305.91,338.62,304.16z"></path> </g> <g> <path class="st3" d="M346.13,315.11c-1.66,1.57-3.99,1.2-5.62-0.52c-2.12-2.24-2.03-4.97,0.59-7.45 c2.81-2.66,5.99-2.45,8.31,0.01c0.81,0.86,1.41,1.88,1.59,2.8l-2.04,0.61c-0.13-0.74-0.52-1.36-1.03-1.91 c-1.29-1.36-2.91-1.47-4.53-0.06c0.93,0.03,1.82,0.48,2.62,1.33C347.5,311.48,347.66,313.66,346.13,315.11z M344.31,313.37 c0.74-0.7,0.7-1.7-0.09-2.54c-0.78-0.82-1.84-0.92-2.55-0.25c-0.7,0.66-0.71,1.67,0.14,2.57 C342.58,313.95,343.57,314.07,344.31,313.37z"></path> </g> <g> <path class="st3" d="M356.94,312.08l1.53,1.62l-14.58,6.52l-1.53-1.62L356.94,312.08z"></path> </g> <g> <path class="st3" d="M355.9,327.51l-1.53,1.45l-5.81-6.15l1.22-1.15l5.93,0.34c1.37,0.07,1.91-0.2,2.3-0.57 c0.64-0.6,0.59-1.4-0.22-2.26c-0.66-0.7-1.49-1.04-2.41-0.92l-0.41-2.21c1.51-0.24,3.18,0.34,4.57,1.8 c1.72,1.81,1.93,3.9,0.45,5.3c-0.79,0.75-1.72,1.21-3.86,1.07l-3.54-0.2L355.9,327.51z"></path> </g> <g> <path class="st3" d="M363.74,335.45l-1.25-1.32l-1.71,1.62l-1.74-1.84l1.71-1.62l-4.14-4.38l1.27-1.2l8.79-1.04l1.87,1.98 l-8.26,1.07l2.07,2.19l1.52-1.44l1.68,1.78l-1.52,1.44l1.25,1.32L363.74,335.45z"></path> </g> </g> <g> <g> <g> <path class="st7" d="M401.92,234.79c4.58-7.05,2.79-16.43-3.37-22.16c-1.93-1.79-4.12-3.25-6.41-4.21 c-5.89-2.46-13.69-0.66-16.78,4.92c-2.52,4.56-1.5,10.25,0.26,15.15c1.85,5.13,4.85,10.38,9.93,12.38 c4.89,1.92,10.77,0.16,14.43-3.62C400.7,236.49,401.35,235.67,401.92,234.79z"></path> </g> </g> </g> </g> </g> </g> <g id="Wallet"> <g> <g> <g> <path class="st7" d="M535.08,258.78v212.74c0,11.64-9.44,21.08-21.08,21.08H204.95c-11.64,0-21.08-9.44-21.08-21.08V258.78 c0-11.64,9.44-21.08,21.08-21.08H514C525.65,237.7,535.08,247.14,535.08,258.78z"></path> </g> <g> <g> <path class="st9" d="M535.08,258.78c0,0-0.02-0.26-0.05-0.76c-0.05-0.51-0.02-1.27-0.22-2.26c-0.28-1.97-1-4.95-3.09-8.26 c-1.07-1.63-2.45-3.35-4.31-4.89c-1.86-1.52-4.16-2.89-6.88-3.77c-0.67-0.23-1.39-0.37-2.1-0.57 c-0.72-0.15-1.47-0.23-2.23-0.36c-0.77-0.04-1.55-0.07-2.34-0.11c-0.8,0-1.61,0-2.43,0c-3.3,0-6.81,0.01-10.53,0.01 c-29.76,0.02-72.82,0.06-126.01,0.1c-26.6,0.01-55.74,0.02-87.02,0.04c-15.64,0.01-31.82,0.01-48.48,0.02 c-8.33,0-16.78,0-25.35,0.01c-2.14,0-4.29,0-6.45,0c-2.16,0.02-4.31-0.08-6.42,0.36c-2.1,0.41-4.15,1.1-6.06,2.12 c-1.89,1.04-3.62,2.36-5.13,3.92c-1.53,1.54-2.75,3.38-3.71,5.33c-0.96,1.96-1.63,4.07-1.89,6.25 c-0.29,2.16-0.2,4.41-0.21,6.64c0,2.24,0,4.48,0,6.73c0,9.01,0,18.11,0,27.32c0,18.41,0.01,37.21,0.01,56.34 c0,38.27,0,77.9,0.01,118.49c0.01,5.01,1.87,9.96,5.15,13.69c3.25,3.76,7.89,6.27,12.8,6.89c2.43,0.32,4.96,0.18,7.45,0.21 c2.5,0,4.99,0,7.48,0c4.98,0,9.94,0,14.88,0c19.77,0,39.25,0,58.39,0c38.28,0.01,75.21,0.01,110.39,0.02 c35.18,0.01,68.6,0.02,99.89,0.03c3.91,0,7.79,0,11.63,0c1.93,0.02,3.81-0.03,5.67-0.38c1.83-0.39,3.65-0.92,5.3-1.79 c0.86-0.37,1.62-0.92,2.42-1.38c0.73-0.57,1.52-1.06,2.18-1.72c1.41-1.19,2.57-2.65,3.61-4.15c1.98-3.07,3.2-6.61,3.36-10.2 c0.13-14.49,0.05-28.45,0.08-41.74c0.04-53.2,0.08-96.25,0.1-126.01c0.03-14.87,0.05-26.42,0.06-34.26 c0.01-3.91,0.02-6.9,0.03-8.91C535.06,259.81,535.08,258.78,535.08,258.78s0.02,1.03,0.03,3.04c0.01,2.01,0.02,5,0.03,8.91 c0.01,7.84,0.03,19.39,0.06,34.26c0.02,29.76,0.06,72.81,0.1,126.01c-0.02,13.31,0.08,27.22-0.04,41.77 c-0.16,3.67-1.4,7.3-3.43,10.45c-1.06,1.54-2.24,3.03-3.69,4.25c-0.67,0.67-1.48,1.17-2.23,1.76c-0.82,0.47-1.6,1.04-2.48,1.42 c-1.69,0.89-3.55,1.43-5.43,1.84c-1.89,0.36-3.85,0.4-5.76,0.39c-3.84,0-7.72,0-11.63,0c-31.28,0.01-64.71,0.02-99.89,0.03 c-35.18,0.01-72.1,0.01-110.39,0.02c-19.14,0-38.62,0-58.39,0c-4.94,0-9.9,0-14.88,0c-2.49,0-4.98,0-7.48,0 c-2.49-0.03-5,0.11-7.54-0.22c-5.05-0.64-9.83-3.23-13.19-7.1c-3.39-3.84-5.31-8.95-5.31-14.1c0-40.59,0-80.21,0.01-118.49 c0-19.14,0.01-37.93,0.01-56.34c0-9.21,0-18.31,0-27.32c0-2.25,0-4.5,0-6.73c0.02-2.23-0.08-4.47,0.22-6.72 c0.27-2.24,0.96-4.42,1.95-6.43c0.99-2.01,2.24-3.9,3.82-5.48c1.55-1.6,3.34-2.95,5.28-4.02c1.96-1.04,4.07-1.76,6.23-2.17 l1.63-0.25l1.64-0.09c1.1-0.06,2.17-0.02,3.25-0.03c2.16,0,4.31,0,6.45,0c8.57,0,17.02,0,25.35,0.01 c16.66,0.01,32.84,0.01,48.48,0.02c31.28,0.01,60.42,0.03,87.02,0.04c53.2,0.04,96.25,0.08,126.01,0.1 c3.72,0.01,7.23,0.01,10.53,0.01c0.82,0,1.64,0,2.43,0c0.8,0.04,1.59,0.08,2.36,0.12c0.76,0.13,1.52,0.21,2.25,0.37 c0.72,0.2,1.44,0.34,2.12,0.58c2.73,0.9,5.05,2.29,6.92,3.83c1.87,1.56,3.25,3.3,4.32,4.94c2.09,3.34,2.79,6.34,3.05,8.32 c0.18,0.99,0.15,1.76,0.19,2.26C535.08,258.52,535.08,258.78,535.08,258.78z"></path> </g> </g> </g> <g> <g> <g> <path class="st9" d="M522.78,253.42c0-0.17,1.62-0.31,3.63-0.31c2,0,3.63,0.14,3.63,0.31c0,0.17-1.62,0.31-3.63,0.31 C524.4,253.73,522.78,253.59,522.78,253.42z"></path> </g> </g> <g> <g> <path class="st9" d="M493.2,253.42c0-0.17,3.31-0.31,7.39-0.31c4.08,0,7.4,0.14,7.4,0.31c0,0.17-3.31,0.31-7.4,0.31 C496.51,253.73,493.2,253.59,493.2,253.42z"></path> </g> </g> <g> <g> <path class="st9" d="M463.62,253.42c0-0.17,3.31-0.31,7.39-0.31c4.08,0,7.4,0.14,7.4,0.31c0,0.17-3.31,0.31-7.4,0.31 C466.93,253.73,463.62,253.59,463.62,253.42z"></path> </g> </g> <g> <g> <path class="st9" d="M434.04,253.42c0-0.17,3.31-0.31,7.39-0.31c4.08,0,7.4,0.14,7.4,0.31c0,0.17-3.31,0.31-7.4,0.31 C437.35,253.73,434.04,253.59,434.04,253.42z"></path> </g> </g> <g> <g> <path class="st9" d="M404.46,253.42c0-0.17,3.31-0.31,7.39-0.31c4.08,0,7.4,0.14,7.4,0.31c0,0.17-3.31,0.31-7.4,0.31 C407.77,253.73,404.46,253.59,404.46,253.42z"></path> </g> </g> <g> <g> <path class="st9" d="M374.88,253.42c0-0.17,3.31-0.31,7.39-0.31c4.08,0,7.4,0.14,7.4,0.31c0,0.17-3.31,0.31-7.4,0.31 C378.19,253.73,374.88,253.59,374.88,253.42z"></path> </g> </g> <g> <g> <path class="st9" d="M345.3,253.42c0-0.17,3.31-0.31,7.39-0.31c4.08,0,7.4,0.14,7.4,0.31c0,0.17-3.31,0.31-7.4,0.31 C348.61,253.73,345.3,253.59,345.3,253.42z"></path> </g> </g> <g> <g> <path class="st9" d="M315.72,253.42c0-0.17,3.31-0.31,7.39-0.31c4.08,0,7.4,0.14,7.4,0.31c0,0.17-3.31,0.31-7.4,0.31 C319.03,253.73,315.72,253.59,315.72,253.42z"></path> </g> </g> <g> <g> <path class="st9" d="M286.14,253.42c0-0.17,3.31-0.31,7.39-0.31c4.08,0,7.4,0.14,7.4,0.31c0,0.17-3.31,0.31-7.4,0.31 C289.45,253.73,286.14,253.59,286.14,253.42z"></path> </g> </g> <g> <g> <path class="st9" d="M256.56,253.42c0-0.17,3.31-0.31,7.39-0.31c4.09,0,7.4,0.14,7.4,0.31c0,0.17-3.31,0.31-7.4,0.31 C259.87,253.73,256.56,253.59,256.56,253.42z"></path> </g> </g> <g> <g> <path class="st9" d="M226.98,253.42c0-0.17,3.31-0.31,7.39-0.31c4.08,0,7.4,0.14,7.4,0.31c0,0.17-3.31,0.31-7.4,0.31 C230.29,253.73,226.98,253.59,226.98,253.42z"></path> </g> </g> <g> <g> <path class="st9" d="M204.94,260.67c-0.17,0-0.31-3.25-0.31-7.25c0.63-0.63,0.18-0.17,0.32-0.32h0h0.01h0.01h0.02h0.05l0.09,0 l0.19,0l0.37,0c0.24,0,0.48,0,0.72,0c0.46,0.01,0.91,0.01,1.36,0.02c0.79,0.02,1.56,0.05,2.31,0.07 c1.31,0.06,2.12,0.14,2.12,0.22c0,0.09-0.81,0.17-2.12,0.22c-0.75,0.02-1.51,0.04-2.31,0.07c-0.45,0.01-0.9,0.01-1.36,0.02 c-0.24,0-0.48,0-0.72,0l-0.37,0l-0.19,0h-0.09h-0.05h-0.02h-0.01h-0.01h0c0.14-0.14-0.32,0.31,0.31-0.31 C205.26,257.42,205.12,260.67,204.94,260.67z"></path> </g> </g> <g> <g> <path class="st9" d="M204.94,287.78c-0.17,0-0.31-3.03-0.31-6.78c0-3.74,0.14-6.78,0.31-6.78c0.17,0,0.31,3.03,0.31,6.78 C205.26,284.74,205.12,287.78,204.94,287.78z"></path> </g> </g> <g> <g> <path class="st9" d="M204.94,314.88c-0.17,0-0.31-3.03-0.31-6.78c0-3.74,0.14-6.78,0.31-6.78c0.17,0,0.31,3.03,0.31,6.78 C205.26,311.85,205.12,314.88,204.94,314.88z"></path> </g> </g> <g> <g> <path class="st9" d="M204.94,341.99c-0.17,0-0.31-3.03-0.31-6.78c0-3.74,0.14-6.78,0.31-6.78c0.17,0,0.31,3.03,0.31,6.78 C205.26,338.95,205.12,341.99,204.94,341.99z"></path> </g> </g> <g> <g> <path class="st9" d="M204.94,369.09c-0.17,0-0.31-3.03-0.31-6.78c0-3.74,0.14-6.78,0.31-6.78c0.17,0,0.31,3.03,0.31,6.78 C205.26,366.06,205.12,369.09,204.94,369.09z"></path> </g> </g> <g> <g> <path class="st9" d="M204.94,396.2c-0.17,0-0.31-3.03-0.31-6.78c0-3.74,0.14-6.78,0.31-6.78c0.17,0,0.31,3.03,0.31,6.78 C205.26,393.16,205.12,396.2,204.94,396.2z"></path> </g> </g> <g> <g> <path class="st9" d="M204.94,423.3c-0.17,0-0.31-3.03-0.31-6.78c0-3.74,0.14-6.78,0.31-6.78c0.17,0,0.31,3.03,0.31,6.78 C205.26,420.27,205.12,423.3,204.94,423.3z"></path> </g> </g> <g> <g> <path class="st9" d="M204.94,450.41c-0.17,0-0.31-3.03-0.31-6.78c0-3.74,0.14-6.78,0.31-6.78c0.17,0,0.31,3.03,0.31,6.78 C205.26,447.38,205.12,450.41,204.94,450.41z"></path> </g> </g> <g> <g> <path class="st9" d="M220.4,453.24c0,0.16-3.02,0.29-6.74,0.29c-0.58-0.58-0.16-0.16-0.29-0.29v0v-0.01v-0.01v-0.02l0-0.04 v-0.09l0-0.17l0-0.34c0-0.23,0-0.45,0-0.67c0.01-0.43,0.01-0.85,0.02-1.26c0.02-0.74,0.04-1.45,0.06-2.14 c0.05-1.22,0.13-1.97,0.21-1.97c0.08,0,0.15,0.75,0.21,1.97c0.02,0.69,0.04,1.4,0.06,2.14c0.01,0.41,0.01,0.83,0.02,1.26 c0,0.22,0,0.44,0,0.67l0,0.34l0,0.17l0,0.09v0.04v0.02v0.01v0.01v0c-0.13-0.13,0.29,0.29-0.29-0.29 C217.38,452.95,220.4,453.08,220.4,453.24z"></path> </g> </g> <g> <g> <path class="st9" d="M247.48,453.24c0,0.16-3.03,0.29-6.77,0.29c-3.74,0-6.77-0.13-6.77-0.29c0-0.16,3.03-0.29,6.77-0.29 C244.45,452.95,247.48,453.08,247.48,453.24z"></path> </g> </g> <g> <g> <path class="st9" d="M274.56,453.24c0,0.16-3.03,0.29-6.77,0.29c-3.74,0-6.77-0.13-6.77-0.29c0-0.16,3.03-0.29,6.77-0.29 C271.53,452.95,274.56,453.08,274.56,453.24z"></path> </g> </g> <g> <g> <path class="st9" d="M301.64,453.24c0,0.16-3.03,0.29-6.77,0.29c-3.74,0-6.77-0.13-6.77-0.29c0-0.16,3.03-0.29,6.77-0.29 C298.61,452.95,301.64,453.08,301.64,453.24z"></path> </g> </g> <g> <g> <path class="st9" d="M328.72,453.24c0,0.16-3.03,0.29-6.77,0.29c-3.74,0-6.77-0.13-6.77-0.29c0-0.16,3.03-0.29,6.77-0.29 C325.69,452.95,328.72,453.08,328.72,453.24z"></path> </g> </g> <g> <g> <path class="st9" d="M355.8,453.24c0,0.16-3.03,0.29-6.77,0.29c-3.74,0-6.77-0.13-6.77-0.29c0-0.16,3.03-0.29,6.77-0.29 C352.76,452.95,355.8,453.08,355.8,453.24z"></path> </g> </g> <g> <g> <path class="st9" d="M382.87,453.24c0,0.16-3.03,0.29-6.77,0.29c-3.74,0-6.77-0.13-6.77-0.29c0-0.16,3.03-0.29,6.77-0.29 C379.84,452.95,382.87,453.08,382.87,453.24z"></path> </g> </g> <g> <g> <path class="st9" d="M409.95,453.24c0,0.16-3.03,0.29-6.77,0.29c-3.74,0-6.77-0.13-6.77-0.29c0-0.16,3.03-0.29,6.77-0.29 C406.92,452.95,409.95,453.08,409.95,453.24z"></path> </g> </g> <g> <g> <path class="st9" d="M437.03,453.24c0,0.16-3.03,0.29-6.77,0.29c-3.74,0-6.77-0.13-6.77-0.29c0-0.16,3.03-0.29,6.77-0.29 C434,452.95,437.03,453.08,437.03,453.24z"></path> </g> </g> <g> <g> <path class="st9" d="M464.11,453.24c0,0.16-3.03,0.29-6.77,0.29c-3.74,0-6.77-0.13-6.77-0.29c0-0.16,3.03-0.29,6.77-0.29 C461.08,452.95,464.11,453.08,464.11,453.24z"></path> </g> </g> <g> <g> <path class="st9" d="M491.19,453.24c0,0.16-3.03,0.29-6.77,0.29c-3.74,0-6.77-0.13-6.77-0.29c0-0.16,3.03-0.29,6.77-0.29 C488.16,452.95,491.19,453.08,491.19,453.24z"></path> </g> </g> <g> <g> <path class="st9" d="M511.47,453.24c0,0.16-1.51,0.29-3.37,0.29c-1.86,0-3.37-0.13-3.37-0.29c0-0.16,1.51-0.29,3.37-0.29 C509.96,452.95,511.47,453.08,511.47,453.24z"></path> </g> </g> </g> <g class="st10"> <path d="M305.06,379.08c0,0,0.08,12.09-3.58,19.4c-3.65,7.31-4.88,10.12-12.56,12.93c-7.68,2.81-105.05,13.49-105.05,13.49 v-32.89L305.06,379.08z"></path> </g> <g class="st10"> <path d="M303.32,333.51c0,0,1.11-12.33-29.84-16.91c-35.4-5.24-89.6-11.67-89.6-11.67v23.34L303.32,333.51z"></path> </g> <g> <g> <g> <path class="st7" d="M187.09,401.99h100.67c9.55,0,17.3-7.75,17.3-17.3v-45.06c0-9.55-7.75-17.3-17.3-17.3H187.09 c-9.55,0-17.3,7.75-17.3,17.3v45.06C169.79,394.24,177.53,401.99,187.09,401.99z"></path> </g> <g> <g> <path class="st9" d="M187.09,401.99c0,0-0.35,0-1.03-0.02c-0.68-0.01-1.7-0.12-3.01-0.41c-1.31-0.27-2.88-0.85-4.6-1.79 c-1.7-0.96-3.52-2.38-5.1-4.39c-1.55-2.01-2.93-4.59-3.44-7.67c-0.31-1.53-0.28-3.17-0.29-4.83c0-1.67-0.01-3.41-0.01-5.2 c-0.01-7.19-0.03-15.38-0.05-24.43c0.01-4.53-0.04-9.26,0.01-14.21c0.13-4.99,2.57-10.18,6.94-13.41 c2.15-1.62,4.71-2.82,7.47-3.28c1.37-0.25,2.8-0.3,4.19-0.29c1.4,0,2.8,0,4.22,0c5.67,0,11.5-0.01,17.49-0.01 c23.94-0.01,50.25-0.02,77.87-0.02c1.76,0.04,3.51,0.28,5.18,0.78c1.66,0.54,3.25,1.29,4.7,2.25c1.43,0.99,2.7,2.18,3.81,3.5 c1.09,1.34,1.95,2.85,2.62,4.42c0.65,1.59,1.03,3.26,1.23,4.95c0.12,1.71,0.08,3.36,0.09,5.02c0,3.31,0,6.6,0,9.85 c0,6.51-0.01,12.91-0.01,19.18c0,3.13,0,6.23,0,9.3c-0.03,1.54,0.06,3.04-0.06,4.59c0,0.77-0.19,1.52-0.28,2.28 c-0.19,0.74-0.33,1.49-0.6,2.21c-1.92,5.81-6.98,10.18-12.6,11.45c-0.69,0.21-1.42,0.25-2.12,0.37 c-0.71,0.06-1.43,0.09-2.13,0.11c-1.4,0-2.78,0-4.16,0c-2.75,0-5.46-0.01-8.12-0.01c-10.64-0.01-20.56-0.03-29.61-0.04 c-18.09-0.04-32.74-0.08-42.88-0.1c-5.05-0.03-8.97-0.05-11.66-0.06c-1.32-0.01-2.33-0.02-3.03-0.03 C187.44,402.01,187.09,401.99,187.09,401.99s0.35-0.02,1.03-0.03c0.7-0.01,1.71-0.02,3.03-0.03 c2.68-0.01,6.61-0.03,11.66-0.06c10.14-0.02,24.78-0.06,42.88-0.1c9.05-0.01,18.97-0.02,29.61-0.04 c2.66,0,5.37-0.01,8.12-0.01c2.75-0.07,5.57,0.23,8.28-0.48c5.44-1.24,10.33-5.48,12.17-11.1c1.05-2.79,0.9-5.82,0.9-8.89 c0-3.06,0-6.16,0-9.3c0-6.27-0.01-12.66-0.01-19.18c0-3.26,0-6.54,0-9.85c-0.01-1.65,0.03-3.33-0.08-4.96 c-0.2-1.63-0.55-3.24-1.19-4.77c-0.65-1.52-1.48-2.97-2.53-4.26c-1.06-1.28-2.3-2.42-3.67-3.38c-1.4-0.92-2.92-1.65-4.53-2.17 c-1.62-0.48-3.3-0.71-5-0.75c-27.62-0.01-53.93-0.02-77.87-0.02c-5.98,0-11.82-0.01-17.49-0.01c-1.42,0-2.82,0-4.22,0 c-1.41-0.01-2.75,0.03-4.09,0.28c-2.68,0.44-5.16,1.6-7.25,3.17c-4.25,3.13-6.63,8.16-6.77,13.01 c-0.06,4.92-0.03,9.68-0.05,14.2c-0.02,9.05-0.03,17.24-0.05,24.43c0,1.8-0.01,3.53-0.01,5.2c0.01,1.67-0.04,3.27,0.26,4.78 c0.48,3.03,1.82,5.58,3.33,7.57c1.53,1.99,3.32,3.41,5,4.38c1.69,0.95,3.24,1.54,4.53,1.83c1.29,0.31,2.3,0.44,2.98,0.47 C186.74,401.95,187.09,401.99,187.09,401.99z"></path> </g> </g> </g> <g> <g> <circle class="st9" cx="264.31" cy="365.15" r="28.96"></circle> </g> <g> <g> <path class="st11" d="M271.73,388.81c-0.07-0.16,2.98-0.77,6.91-3.62c1.95-1.41,4.05-3.42,5.85-6.04 c1.8-2.61,3.25-5.87,3.85-9.48c0.55-3.62,0.19-7.17-0.72-10.21c-0.9-3.05-2.27-5.61-3.69-7.55c-2.85-3.92-5.56-5.45-5.44-5.58 c0.01-0.02,0.18,0.08,0.48,0.27c0.29,0.21,0.76,0.47,1.28,0.91c1.09,0.82,2.55,2.19,4.04,4.14c1.49,1.94,2.93,4.54,3.89,7.65 c0.96,3.1,1.35,6.75,0.78,10.48c-0.62,3.72-2.12,7.06-3.99,9.71c-1.87,2.66-4.05,4.68-6.07,6.07 c-2.02,1.39-3.83,2.24-5.12,2.68c-0.63,0.26-1.16,0.36-1.5,0.46C271.93,388.79,271.74,388.83,271.73,388.81z"></path> </g> </g> </g> </g> </g> </g> <g id="Money"> <g> <g> <g> <g> <g> <g> <path class="st7" d="M717.63,179.55c2.62,29.36-19.1,55.29-48.53,57.92c-29.43,2.63-55.41-19.03-58.04-48.39 c-2.63-29.36,19.1-55.29,48.53-57.92C689.02,128.52,715.01,150.19,717.63,179.55z"></path> </g> </g> </g> <g> <g> <g> <g class="st10"> <path d="M704.83,179.41c-0.25,0.03-0.58-1.74-1.51-4.79c-0.95-3.03-2.57-7.39-5.8-12.03c-1.61-2.31-3.6-4.67-6.04-6.9 c-2.45-2.2-5.31-4.3-8.59-5.99c-1.64-0.85-3.37-1.63-5.2-2.25c-1.82-0.64-3.72-1.18-5.69-1.54c-1.97-0.37-4-0.63-6.07-0.69 c-2.07-0.06-4.17,0.02-6.29,0.26c-2.11,0.27-4.17,0.69-6.17,1.25c-2,0.55-3.9,1.3-5.73,2.12c-1.83,0.82-3.54,1.81-5.16,2.86 c-1.62,1.04-3.12,2.21-4.51,3.43c-2.79,2.43-5.06,5.15-6.91,7.87c-1.83,2.74-3.2,5.51-4.21,8.14 c-2.02,5.27-2.56,9.89-2.75,13.06c-0.17,3.18-0.07,4.98-0.32,5.01c-0.18,0.03-0.69-1.73-0.89-5.01 c-0.18-3.26,0.03-8.13,1.89-13.79c0.93-2.82,2.27-5.82,4.12-8.8c1.87-2.97,4.23-5.94,7.16-8.6 c1.46-1.34,3.05-2.62,4.78-3.77c1.72-1.16,3.56-2.24,5.52-3.15c1.96-0.91,4.01-1.72,6.17-2.33 c2.15-0.61,4.38-1.07,6.65-1.36c2.28-0.26,4.55-0.35,6.78-0.27c2.23,0.08,4.42,0.38,6.54,0.79 c2.12,0.41,4.16,1.02,6.11,1.74c1.96,0.7,3.8,1.57,5.54,2.52c3.49,1.89,6.48,4.21,9.01,6.64c2.51,2.46,4.52,5.05,6.1,7.57 c3.16,5.05,4.52,9.73,5.13,12.94C705.09,177.57,705.01,179.39,704.83,179.41z"></path> </g> </g> </g> </g> </g> <g class="st10"> <g> <g> <g> <g> <path d="M671.11,208.12l0.74,7.06l-6.31,0.65l-0.71-6.87c-6.28,0.27-12.48-1.06-16.23-3.41l2.67-8.05 c3.4,2.01,8.11,3.24,12.7,3.2l-1.1-10.53c-7.18-0.97-15.24-2.49-16.18-11.51c-0.69-6.68,3.56-12.93,13.41-15.1l-0.73-7 l6.31-0.66l0.71,6.88c4.77-0.11,9.5,0.67,13.2,2.51l-2.34,8.09c-3.41-1.49-6.8-2.22-9.99-2.28l1.12,10.72 c7.17,0.91,15.11,2.44,16.03,11.33C685.09,199.72,680.89,205.89,671.11,208.12z M661.91,180.9l-0.93-8.95 c-3.26,1.1-4.4,3.07-4.18,5.15C657.02,179.31,659.04,180.31,661.91,180.9z M674.33,194.97c-0.23-2.21-2.18-3.21-4.99-3.88 l0.91,8.7C673.33,198.77,674.54,196.99,674.33,194.97z"></path> </g> </g> </g> </g> </g> </g> <g> <g> <g> <g> <path class="st9" d="M623.76,188.05c0.01,0,0.04,0.11,0.08,0.32c0.04,0.25,0.1,0.56,0.17,0.95c0.07,0.43,0.16,0.95,0.25,1.55 c0.1,0.61,0.18,1.33,0.42,2.1c0.69,3.14,2.16,7.64,5.19,12.54c1.48,2.47,3.49,4.91,5.83,7.35c0.63,0.57,1.26,1.15,1.91,1.73 c0.33,0.29,0.64,0.6,0.99,0.88c0.36,0.27,0.71,0.53,1.07,0.8c0.73,0.53,1.43,1.11,2.21,1.61c0.79,0.48,1.59,0.97,2.4,1.46 c3.32,1.81,7.02,3.42,11.06,4.29c4.04,0.87,8.33,1.19,12.71,0.85c4.36-0.46,8.53-1.56,12.34-3.15 c3.82-1.6,7.16-3.85,10.1-6.24c0.71-0.63,1.41-1.26,2.1-1.88c0.68-0.63,1.26-1.34,1.88-1.99c0.31-0.33,0.61-0.66,0.91-0.98 c0.29-0.33,0.54-0.7,0.81-1.04c0.53-0.69,1.05-1.38,1.56-2.05c1.85-2.82,3.39-5.59,4.39-8.29c2.08-5.37,2.7-10.06,2.81-13.28 c0.09-0.8,0.04-1.52,0.03-2.14c-0.01-0.61-0.02-1.13-0.03-1.57c0-0.4-0.01-0.71-0.01-0.97c0-0.22,0.01-0.33,0.02-0.33 c0.01,0,0.03,0.11,0.05,0.33c0.02,0.25,0.04,0.57,0.07,0.97c0.03,0.44,0.06,0.97,0.1,1.58c0.03,0.62,0.1,1.34,0.03,2.15 c-0.03,3.23-0.59,7.98-2.64,13.43c-0.98,2.74-2.52,5.56-4.38,8.43c-0.51,0.68-1.04,1.38-1.57,2.09 c-0.27,0.35-0.52,0.72-0.82,1.06c-0.3,0.33-0.61,0.67-0.92,1c-0.63,0.66-1.21,1.38-1.9,2.03c-0.7,0.63-1.4,1.27-2.12,1.91 c-2.97,2.44-6.35,4.73-10.23,6.37c-3.86,1.63-8.1,2.75-12.53,3.21c-4.44,0.35-8.8,0.02-12.9-0.87 c-4.11-0.9-7.85-2.54-11.21-4.39c-0.82-0.5-1.63-1-2.43-1.49c-0.79-0.51-1.5-1.11-2.23-1.64c-0.36-0.28-0.72-0.55-1.08-0.82 c-0.35-0.28-0.67-0.6-1-0.89c-0.65-0.6-1.29-1.19-1.92-1.77c-2.35-2.48-4.37-4.97-5.84-7.49c-3.01-4.99-4.42-9.55-5.05-12.72 c-0.22-0.78-0.28-1.5-0.36-2.12c-0.08-0.61-0.14-1.13-0.19-1.57c-0.04-0.39-0.08-0.71-0.11-0.96 C623.75,188.16,623.75,188.05,623.76,188.05z"></path> </g> </g> </g> </g> </g> <g> <g> <g> <g> <g> <g> <path class="st7" d="M642.25,337.28c-7.44,15.43-26,21.89-41.46,14.44c-15.46-7.45-21.97-26-14.54-41.43 c7.44-15.43,26-21.89,41.46-14.44C643.17,303.3,649.68,321.85,642.25,337.28z"></path> </g> </g> </g> <g> <g> <g> <g class="st10"> <path d="M635.9,333.4c-0.13-0.06,0.23-1.04,0.67-2.84c0.43-1.79,0.92-4.45,0.69-7.73c-0.12-1.63-0.41-3.4-0.96-5.24 c-0.57-1.83-1.37-3.72-2.5-5.55c-0.56-0.91-1.2-1.82-1.92-2.67c-0.72-0.86-1.5-1.7-2.38-2.47 c-0.87-0.77-1.81-1.51-2.82-2.15c-1.01-0.65-2.09-1.23-3.21-1.74c-1.13-0.49-2.29-0.9-3.45-1.22 c-1.16-0.32-2.33-0.52-3.49-0.65c-1.16-0.14-2.31-0.15-3.43-0.11c-1.12,0.04-2.22,0.17-3.27,0.37 c-2.11,0.38-4.06,1.06-5.79,1.87c-1.73,0.82-3.24,1.8-4.53,2.81c-2.58,2.03-4.22,4.17-5.26,5.7 c-1.04,1.54-1.52,2.46-1.65,2.4c-0.1-0.04,0.17-1.07,1.05-2.77c0.88-1.68,2.44-4.05,5.05-6.32c1.3-1.13,2.86-2.23,4.68-3.17 c1.82-0.92,3.88-1.7,6.14-2.16c1.13-0.23,2.3-0.4,3.51-0.46c1.21-0.06,2.44-0.06,3.69,0.07c1.25,0.13,2.52,0.34,3.77,0.67 c1.25,0.33,2.5,0.77,3.72,1.3c1.22,0.55,2.37,1.18,3.46,1.89c1.09,0.7,2.09,1.51,3.03,2.35c0.94,0.84,1.77,1.75,2.53,2.69 c0.77,0.93,1.43,1.92,2.01,2.91c1.18,1.98,1.98,4.03,2.52,6c0.52,1.97,0.75,3.87,0.79,5.59c0.07,3.46-0.64,6.2-1.3,7.99 C636.58,332.55,636,333.44,635.9,333.4z"></path> </g> </g> </g> </g> </g> <g class="st10"> <g> <g> <g> <g> <path d="M610.53,337.67l-1.74,3.74l-3.34-1.55l1.69-3.64c-3.21-1.74-5.91-4.25-7.08-6.54l3.73-3.22 c1.1,2.01,3.08,4.03,5.38,5.38l2.59-5.58c-3.29-2.62-6.86-5.78-4.64-10.56c1.64-3.54,5.63-5.39,11.19-3.54l1.72-3.71 l3.34,1.55l-1.69,3.64c2.41,1.36,4.54,3.16,5.84,5.19l-3.58,3.34c-1.25-1.76-2.73-3.13-4.31-4.11l-2.64,5.68 c3.31,2.59,6.81,5.72,4.62,10.43C620,337.65,616.07,339.47,610.53,337.67z M614.04,321.35l2.2-4.74 c-1.96-0.42-3.11,0.22-3.62,1.33C612.08,319.1,612.79,320.2,614.04,321.35z M616.05,332.07c0.54-1.17-0.13-2.25-1.34-3.42 l-2.14,4.61C614.42,333.67,615.55,333.14,616.05,332.07z"></path> </g> </g> </g> </g> </g> </g> <g> <g> <g> <g> <path class="st9" d="M592.88,313.55c0.06,0.03-0.37,0.98-0.96,2.75c-0.57,1.77-1.17,4.45-1.1,7.78 c0.01,1.67,0.29,3.48,0.73,5.38c0.54,1.88,1.24,3.86,2.35,5.76c1.12,1.88,2.47,3.77,4.22,5.4c1.74,1.63,3.78,3.06,6.05,4.18 c2.3,1.06,4.69,1.76,7.06,2.1c2.37,0.34,4.69,0.21,6.86-0.1c2.18-0.33,4.16-1.03,5.96-1.78c1.76-0.85,3.35-1.76,4.65-2.8 c2.64-2.04,4.35-4.18,5.37-5.74c1.01-1.57,1.48-2.5,1.54-2.47c0.02,0.01-0.09,0.25-0.3,0.69c-0.24,0.43-0.51,1.13-1.03,1.91 c-0.97,1.62-2.65,3.83-5.31,5.96c-1.31,1.08-2.92,2.04-4.71,2.93c-1.83,0.79-3.86,1.52-6.08,1.88 c-2.22,0.34-4.6,0.48-7.03,0.14c-2.43-0.34-4.89-1.05-7.25-2.14c-2.33-1.15-4.42-2.63-6.21-4.3c-1.79-1.68-3.17-3.63-4.3-5.57 c-1.12-1.96-1.82-3.99-2.35-5.92c-0.43-1.95-0.69-3.8-0.67-5.5c-0.01-3.4,0.67-6.1,1.32-7.87c0.29-0.9,0.66-1.54,0.85-2 C592.74,313.77,592.86,313.54,592.88,313.55z"></path> </g> </g> </g> </g> </g> <g> <g> <g> <g> <g> <g> <path class="st7" d="M129.1,332.84c4.02,27.67-15.2,53.36-42.93,57.39c-27.73,4.03-53.47-15.13-57.49-42.8 c-4.02-27.67,15.2-53.36,42.93-57.39C99.34,286.01,125.08,305.17,129.1,332.84z"></path> </g> </g> </g> <g> <g> <g> <g class="st10"> <path d="M116.97,333.38c-0.23,0.04-0.64-1.61-1.68-4.45c-1.05-2.82-2.82-6.87-6.12-11.09c-1.64-2.1-3.66-4.23-6.08-6.22 c-2.43-1.96-5.25-3.79-8.45-5.22c-1.6-0.72-3.28-1.37-5.04-1.86c-1.76-0.51-3.59-0.93-5.47-1.16 c-1.88-0.24-3.82-0.39-5.78-0.34c-1.96,0.05-3.95,0.24-5.94,0.57c-1.99,0.37-3.92,0.87-5.78,1.5 c-1.86,0.63-3.63,1.43-5.32,2.31c-1.69,0.87-3.26,1.9-4.74,2.98c-1.48,1.07-2.84,2.26-4.09,3.48 c-2.51,2.44-4.52,5.14-6.13,7.81c-1.59,2.69-2.74,5.39-3.56,7.93c-1.64,5.09-1.91,9.5-1.92,12.51 c0,3.03,0.19,4.72-0.04,4.76c-0.17,0.03-0.75-1.6-1.11-4.7c-0.34-3.08-0.4-7.7,1.06-13.16c0.73-2.72,1.84-5.63,3.44-8.55 c1.62-2.91,3.69-5.84,6.33-8.52c1.31-1.34,2.75-2.64,4.33-3.82c1.57-1.19,3.25-2.31,5.07-3.27 c1.81-0.97,3.71-1.84,5.72-2.53c2-0.69,4.09-1.24,6.23-1.64c2.15-0.37,4.29-0.57,6.41-0.61c2.12-0.04,4.21,0.13,6.24,0.41 c2.03,0.28,4,0.75,5.88,1.33c1.89,0.56,3.68,1.29,5.38,2.1c3.4,1.61,6.36,3.65,8.88,5.82c2.5,2.19,4.55,4.55,6.17,6.85 c3.25,4.62,4.79,8.98,5.53,11.99C117.12,331.62,117.14,333.35,116.97,333.38z"></path> </g> </g> </g> </g> </g> <g class="st10"> <g> <g> <g> <g> <path d="M86.53,362.33l1.07,6.65l-5.94,0.95l-1.04-6.47c-5.94,0.58-11.87-0.35-15.54-2.38l2.1-7.77 c3.32,1.72,7.85,2.64,12.2,2.37l-1.59-9.92c-6.85-0.55-14.56-1.56-15.92-10.06c-1.01-6.29,2.7-12.43,11.91-15l-1.06-6.59 l5.94-0.95l1.04,6.47c4.51-0.36,9.03,0.14,12.63,1.69l-1.8,7.78c-3.3-1.24-6.55-1.75-9.58-1.63l1.62,10.1 c6.84,0.49,14.43,1.53,15.77,9.9C99.33,353.64,95.67,359.71,86.53,362.33z M76.39,337.03l-1.35-8.43 c-3.03,1.22-4,3.14-3.69,5.1C71.69,335.78,73.65,336.62,76.39,337.03z M88.9,349.71c-0.33-2.08-2.24-2.93-4.93-3.41 l1.31,8.19C88.14,353.36,89.2,351.61,88.9,349.71z"></path> </g> </g> </g> </g> </g> </g> <g> <g> <g> <g> <path class="st9" d="M40.64,345.79c0.01,0,0.04,0.1,0.09,0.3c0.06,0.24,0.13,0.53,0.21,0.89c0.09,0.41,0.2,0.89,0.32,1.46 c0.13,0.58,0.24,1.25,0.51,1.97c0.82,2.94,2.45,7.12,5.57,11.6c1.53,2.26,3.57,4.47,5.91,6.65c0.62,0.5,1.25,1.02,1.9,1.54 c0.33,0.26,0.64,0.54,0.98,0.78c0.35,0.23,0.7,0.47,1.06,0.7c0.72,0.46,1.41,0.98,2.18,1.41c0.77,0.41,1.56,0.83,2.35,1.26 c3.24,1.54,6.82,2.87,10.7,3.49c3.87,0.62,7.95,0.69,12.07,0.14c4.11-0.66,8-1.92,11.52-3.63c3.53-1.71,6.57-4.02,9.23-6.43 c0.64-0.64,1.27-1.27,1.89-1.89c0.61-0.63,1.12-1.33,1.68-1.98c0.27-0.33,0.54-0.66,0.81-0.98c0.26-0.33,0.48-0.69,0.71-1.03 c0.46-0.69,0.92-1.36,1.37-2.02c1.61-2.77,2.92-5.47,3.73-8.08c1.69-5.19,2.04-9.67,1.97-12.72c0.04-0.77-0.04-1.44-0.08-2.03 c-0.04-0.57-0.08-1.07-0.11-1.49c-0.02-0.37-0.04-0.67-0.06-0.92c-0.01-0.21-0.01-0.31,0-0.32c0.01,0,0.03,0.1,0.06,0.31 c0.03,0.24,0.07,0.54,0.12,0.91c0.05,0.42,0.11,0.91,0.17,1.49c0.06,0.59,0.17,1.27,0.14,2.04c0.14,3.07-0.14,7.59-1.8,12.86 c-0.79,2.65-2.09,5.39-3.7,8.21c-0.45,0.68-0.91,1.36-1.38,2.06c-0.24,0.34-0.46,0.71-0.72,1.05c-0.27,0.33-0.54,0.66-0.81,1 c-0.56,0.66-1.08,1.37-1.69,2.02c-0.63,0.63-1.26,1.27-1.9,1.92c-2.69,2.47-5.77,4.82-9.36,6.57 c-3.58,1.75-7.53,3.03-11.7,3.7c-4.19,0.56-8.34,0.48-12.27-0.15c-3.94-0.63-7.57-1.99-10.85-3.58 c-0.8-0.44-1.6-0.86-2.38-1.29c-0.77-0.44-1.48-0.97-2.2-1.44c-0.36-0.24-0.72-0.48-1.07-0.72c-0.35-0.25-0.66-0.53-0.99-0.79 c-0.65-0.53-1.29-1.06-1.91-1.57c-2.36-2.23-4.4-4.48-5.92-6.79c-3.11-4.57-4.69-8.82-5.44-11.79 c-0.25-0.73-0.35-1.41-0.45-1.99c-0.1-0.57-0.19-1.06-0.26-1.47c-0.06-0.37-0.11-0.67-0.15-0.91 C40.64,345.9,40.63,345.79,40.64,345.79z"></path> </g> </g> </g> </g> </g> </g> <g id="Floor"> </g> <g id="Character"> <g> <g> <g> <g> <g> <path class="st12" d="M579.36,265.6c0,0-0.09-8.04-0.43-8.11l-16.53,3.68c-0.17,1.05-2.26,14.24-1.9,15.53l18.59,5.16 C579.09,281.85,579.36,266.07,579.36,265.6z"></path> </g> </g> <g> <g> <g> <g> <g> <g> <g> <path class="st12" d="M579.37,280.63c0.03-0.02,0.06-0.15,0.08-0.36c0.19-1.8,0.07-9.66-0.88-10 c-1.08-0.38-3.76,0.24-3.95,1.27c-0.19,1.04,0.44,9.88,0.44,9.88s0.19,1.39,2.53,1.73 C579.05,283.37,579.37,280.63,579.37,280.63z"></path> </g> </g> </g> <g> <g> <g> <path class="st12" d="M574.66,283.46c0.03-0.02,0.06-0.15,0.08-0.36c0.19-1.8,0.07-9.66-0.88-10 c-1.08-0.38-3.76,0.24-3.95,1.27c-0.18,1.04,0.44,9.88,0.44,9.88s0.19,1.39,2.53,1.73 C574.34,286.19,574.66,283.46,574.66,283.46z"></path> </g> </g> </g> <g> <g> <g> <path class="st12" d="M570.05,284.87c0.03-0.02,0.06-0.15,0.08-0.36c0.19-1.8,0.07-9.66-0.88-10 c-1.08-0.38-3.76,0.24-3.95,1.27c-0.19,1.04,0.44,9.88,0.44,9.88s0.19,1.39,2.53,1.73 C569.72,287.6,570.05,284.87,570.05,284.87z"></path> </g> </g> </g> <g> <g> <g> <path class="st12" d="M565.46,286.19c0.03-0.02,0.06-0.15,0.08-0.36c0.19-1.8,0.07-9.66-0.88-10 c-1.08-0.38-3.76,0.24-3.95,1.27c-0.19,1.04,0.45,9.88,0.45,9.88s0.19,1.39,2.53,1.73 C565.14,288.93,565.46,286.19,565.46,286.19z"></path> </g> </g> </g> <g> <g> <g> <g> <path class="st13" d="M574.59,273.84c0.14,0.01,0.3,1.72,0.37,3.83c0.07,2.1,0.01,3.8-0.12,3.79 c-0.14-0.01-0.3-1.72-0.37-3.83C574.4,275.53,574.45,273.83,574.59,273.84z"></path> </g> </g> </g> </g> <g> <g> <g> <g> <path class="st13" d="M569.96,273.82c0.14,0,0.33,2.43,0.44,5.44c0.11,3.01,0.08,5.45-0.05,5.46 c-0.14,0-0.33-2.43-0.44-5.44C569.8,276.26,569.82,273.82,569.96,273.82z"></path> </g> </g> </g> </g> <g class="st14"> <g> <g> <g> <path class="st13" d="M565.25,274.21c0.14,0,0.33,2.43,0.44,5.44c0.11,3.01,0.08,5.45-0.05,5.46 c-0.14,0-0.33-2.43-0.44-5.44C565.09,276.65,565.11,274.21,565.25,274.21z"></path> </g> </g> </g> </g> </g> </g> <g> <g> <path class="st12" d="M562.29,261.6c0,0-6.54,14.86-5.59,15.79c0.96,0.92,4.03,2.34,4.03,2.34L562.29,261.6z"></path> </g> </g> </g> </g> </g> </g> <g> <g> <g> <g> <g> <g> <g> <g> <g> <g> <g> <g> <g> <g> <g> <g> <g> <path class="st12" d="M526.12,62.25l-4.79,55.59l-27.84-2.22c-0.17-3.25,0.06-15.83,0.06-15.83 s-11.58-1.8-11.73-13.38c-0.07-5.62,0.73-17.25,1.58-27.72c0.94-11.62,10.98-20.35,22.62-19.67h0 C518.06,39.72,527.15,50.23,526.12,62.25z"></path> </g> </g> </g> </g> </g> </g> </g> </g> </g> </g> </g> </g> <g> <g> <g> <g> <g> <g> <g> <g> <g> <g> <g> <g> <path class="st13" d="M493.52,99.62c0,0,7.32,0.6,15.1-4.29c0,0-3.57,8.33-15.13,7.29L493.52,99.62z"></path> </g> </g> </g> </g> </g> </g> </g> </g> </g> </g> </g> </g> </g> </g> </g> <g> <g> <g> <g> <g> <g> <g> <g> <g> <g> <g> <g> <g> <g> <g> <g> <g> <g> <path class="st9" d="M486.48,66.8c-0.03,0.87,0.68,1.62,1.59,1.67c0.91,0.05,1.67-0.62,1.7-1.49 c0.03-0.87-0.68-1.62-1.59-1.67C487.28,65.26,486.51,65.93,486.48,66.8z"></path> </g> </g> </g> </g> </g> </g> </g> </g> </g> </g> </g> </g> <g> <g> <g> <g> <g> <g> <g> <g> <g> <g> <g> <g> <g> <path class="st9" d="M485.87,64.52c0.2,0.22,1.46-0.71,3.24-0.71c1.78-0.02,3.08,0.89,3.28,0.68 c0.09-0.1-0.11-0.49-0.68-0.9c-0.56-0.41-1.51-0.81-2.62-0.81c-1.11,0.01-2.04,0.41-2.58,0.83 C485.96,64.04,485.77,64.43,485.87,64.52z"></path> </g> </g> </g> </g> </g> </g> </g> </g> </g> </g> </g> </g> </g> </g> <g> <g> <g> <g> <g> <g> <g> <g> <g> <g> <g> <g> <g> <path class="st9" d="M504.01,66.8c-0.03,0.87,0.68,1.62,1.59,1.67c0.91,0.05,1.67-0.62,1.7-1.49 c0.03-0.87-0.68-1.62-1.59-1.67C504.8,65.26,504.04,65.93,504.01,66.8z"></path> </g> </g> </g> </g> </g> </g> </g> </g> </g> </g> </g> </g> <g> <g> <g> <g> <g> <g> <g> <g> <g> <g> <g> <g> <g> <path class="st9" d="M503.37,64.86c0.21,0.22,1.46-0.71,3.24-0.71c1.78-0.02,3.08,0.89,3.28,0.68 c0.09-0.1-0.11-0.49-0.68-0.9c-0.56-0.41-1.51-0.81-2.62-0.81c-1.11,0.01-2.04,0.41-2.58,0.83 C503.45,64.37,503.27,64.76,503.37,64.86z"></path> </g> </g> </g> </g> </g> </g> </g> </g> </g> </g> </g> </g> </g> </g> <g> <g> <g> <g> <g> <g> <g> <g> <g> <g> <g> <g> <g> <path class="st9" d="M496.91,78.06c0.01-0.1-1.1-0.29-2.89-0.52c-0.45-0.05-0.88-0.14-0.96-0.45 c-0.11-0.33,0.08-0.82,0.3-1.35c0.43-1.1,0.87-2.25,1.34-3.46c1.87-4.93,3.22-8.98,3.02-9.05 c-0.2-0.07-1.87,3.86-3.74,8.79c-0.45,1.22-0.88,2.37-1.29,3.48c-0.17,0.52-0.47,1.1-0.24,1.78 c0.12,0.34,0.46,0.59,0.75,0.66c0.29,0.09,0.55,0.09,0.77,0.11C495.78,78.15,496.9,78.16,496.91,78.06z"></path> </g> </g> </g> </g> </g> </g> </g> </g> </g> </g> </g> </g> </g> <g> <g> <g> <g> <g> <g> <g> <g> <g> <g> <g> <g> <g> <path class="st9" d="M502.15,79.29c-0.29-0.02-0.29,1.91-1.95,3.29c-1.65,1.38-3.71,1.16-3.73,1.43 c-0.03,0.12,0.46,0.38,1.33,0.4c0.85,0.03,2.1-0.24,3.11-1.08c1.01-0.84,1.44-1.96,1.51-2.76 C502.49,79.75,502.28,79.28,502.15,79.29z"></path> </g> </g> </g> </g> </g> </g> </g> </g> </g> </g> </g> </g> </g> </g> </g> </g> <g> <g> <g> <g> <g> <g> <g> <g> <g> <g> <g> <g> <path class="st9" d="M502.91,57.88c0.18,0.48,1.95,0.25,4.04,0.51c2.09,0.21,3.78,0.82,4.05,0.39 c0.12-0.21-0.17-0.66-0.85-1.13c-0.67-0.47-1.75-0.91-3-1.05c-1.25-0.14-2.4,0.06-3.16,0.37 C503.22,57.27,502.83,57.65,502.91,57.88z"></path> </g> </g> </g> </g> </g> </g> </g> </g> </g> </g> </g> </g> <g> <g> <g> <g> <g> <g> <g> <g> <g> <g> <g> <g> <path class="st9" d="M486.53,59.37c0.31,0.4,1.54-0.02,3.01-0.04c1.47-0.07,2.72,0.27,3.01-0.15 c0.13-0.21-0.07-0.61-0.62-0.99c-0.54-0.38-1.44-0.69-2.45-0.66c-1.01,0.03-1.89,0.4-2.4,0.81 C486.56,58.76,486.39,59.18,486.53,59.37z"></path> </g> </g> </g> </g> </g> </g> </g> </g> </g> </g> </g> </g> </g> </g> </g> <g> <g> <g> <path class="st9" d="M528.6,55.09c-0.66,5.63-2.19,12.74-2.64,18.5c-0.04,0.53-0.09,1.09-0.41,1.51 c-0.83,1.1-2.79,3.46-3.79,2.52c-2.44-2.27-3.39-8.64-3.88-11.93c-0.48-3.3-0.4-6.66-0.86-9.96 c-0.01-0.07-0.02-0.15-0.03-0.23c-0.32-2.32-1.53-4.42-3.37-5.87c-0.43-0.29-0.88-0.55-1.36-0.72 c-3.4-1.2-9.08,1.02-12.46,2.25c-1.75,0.64-3.44,1.42-5.14,2.19c-3.89,1.76-8.5,1.5-11.96-1c-2.06-1.49-2.24-6.22-1.34-9.2 c2.44-8.07,12.59-10.84,25.6-7.76C519.88,38.44,529.92,43.52,528.6,55.09z"></path> </g> </g> </g> <g> <g> <g> <g> <g> <g> <g> <g> <g> <g> <g> <g> <g> <path class="st12" d="M522.21,67.49c0.2-0.09,7.96-2.35,7.7,5.56c-0.25,7.92-8.15,6.03-8.16,5.8 C521.75,78.63,522.21,67.49,522.21,67.49z"></path> </g> </g> </g> </g> </g> </g> </g> </g> </g> </g> </g> </g> <g> <g> <g> <g> <g> <g> <g> <g> <g> <g> <g> <g> <g> <path class="st13" d="M524.27,75.94c0.04-0.02,0.14,0.1,0.36,0.22c0.22,0.11,0.61,0.2,1.03,0.05 c0.85-0.28,1.59-1.59,1.68-3.01c0.04-0.72-0.09-1.41-0.32-1.99c-0.22-0.59-0.58-1-1-1.09 c-0.42-0.11-0.72,0.13-0.83,0.35c-0.11,0.22-0.07,0.38-0.11,0.39c-0.02,0.02-0.17-0.14-0.09-0.46 c0.04-0.16,0.14-0.34,0.33-0.49c0.2-0.15,0.48-0.22,0.77-0.18c0.61,0.06,1.14,0.64,1.4,1.27 c0.29,0.64,0.46,1.41,0.41,2.22c-0.1,1.59-0.97,3.06-2.12,3.35c-0.56,0.13-1.02-0.06-1.25-0.25 C524.28,76.13,524.25,75.95,524.27,75.94z"></path> </g> </g> </g> </g> </g> </g> </g> </g> </g> </g> </g> </g> </g> </g> <g> <g> <path class="st15" d="M528.48,55.63c0.09,0.13-2.33,1.47-5.66,1.51c-3.33,0.08-5.8-1.17-5.71-1.3c0.06-0.18,2.53,0.75,5.7,0.68 C525.98,56.47,528.41,55.45,528.48,55.63z"></path> </g> </g> <g> <g> <path class="st15" d="M528.2,57.89c0.1,0.12-2.22,1.47-5.42,1.51c-3.21,0.08-5.57-1.18-5.48-1.3c0.06-0.18,2.42,0.75,5.47,0.68 C525.81,58.74,528.13,57.71,528.2,57.89z"></path> </g> </g> </g> <g> <g> <g> <g> <g> <g> <g> <g> <path class="st9" d="M473.1,452.34l5.14,23.69c0,0-22.35,13.18-21.83,17.66l46.29-8.32l-6.5-37.24L473.1,452.34z"></path> </g> </g> </g> </g> </g> </g> </g> </g> <g> <g> <g> <g> <g> <g> <g> <g> <path class="st9" d="M525.65,457.72l3.11,22.3c0,0-21.63,10.65-21.46,14.82l43.46-4.47l-3.41-34.95L525.65,457.72z"></path> </g> </g> </g> </g> </g> </g> <g class="st16"> <g> <g> <g> <g> <g> <path class="st15" d="M550.76,487.35l-0.48-0.48l-41.49,5.6c0,0-1.85-1.99-1.49-0.65L550.76,487.35z"></path> </g> </g> </g> </g> </g> </g> </g> </g> <g> <g> <g> <g> <path class="st9" d="M470.57,472.66c0,0-24.11-118.27-24.13-120.64l43.07-22.77l16.68,138.8L470.57,472.66z"></path> </g> </g> </g> <g> <g> <g> <path class="st9" d="M524.8,476.62l-33.3-205v-44.21l45.5,4.22c0.57,1.72,15.47,245.26,15.47,245.26l-4.7-0.27H524.8"></path> </g> </g> </g> <g> <g> <g> <polygon class="st9" points="465.32,224.28 446.44,352.01 488.65,341.78 505.85,228.43 "></polygon> </g> </g> </g> <g> <g> <g> <g> <path class="st15" d="M504.37,235.11c0,0,0.01,0.21,0.05,0.63c0.05,0.44,0.11,1.04,0.19,1.83c0.19,1.63,0.46,4,0.8,7.04 c0.72,6.11,1.81,14.95,3.23,25.86c2.82,21.82,7.09,51.92,11.68,85.17c2.29,16.63,4.39,32.49,6.18,46.92 c0.46,3.61,0.83,7.13,1.34,10.55c0.52,3.41,1.03,6.71,1.52,9.91c0.97,6.39,1.87,12.35,2.7,17.79 c1.63,10.88,2.93,19.69,3.77,25.78c0.42,3.05,0.73,5.41,0.92,7.02c0.09,0.8,0.16,1.42,0.18,1.83 c0.01,0.21,0.02,0.36,0.01,0.46c-0.01,0.13-0.07-0.01-0.07,0.02c0,0,0,0.01,0.02,0.04c0.01,0.05,0.09,0.01,0.08-0.05 c0.02-0.11,0.03-0.26,0.02-0.47c-0.01-0.42-0.05-1.03-0.12-1.84c-0.15-1.61-0.43-3.99-0.81-7.04 c-0.78-6.1-2.01-14.92-3.59-25.81c-0.8-5.44-1.68-11.4-2.63-17.8c-0.48-3.2-0.98-6.51-1.49-9.91 c-0.5-3.4-0.86-6.93-1.32-10.54c-1.77-14.44-3.85-30.3-6.14-46.93c-4.59-33.25-8.93-63.34-11.85-85.14 c-1.44-10.89-2.6-19.71-3.41-25.83c-0.39-3.03-0.7-5.4-0.91-7.03c-0.11-0.79-0.19-1.39-0.25-1.83 C504.41,235.32,504.37,235.11,504.37,235.11z"></path> </g> </g> </g> </g> <g> <g> <g> <g> <path class="st15" d="M478.98,471.56c0,0-0.02-0.21-0.08-0.61c-0.07-0.42-0.16-1.01-0.29-1.77c-0.27-1.58-0.66-3.87-1.16-6.8 c-1.04-5.93-2.54-14.46-4.38-25c-3.76-21.12-8.95-50.27-14.68-82.46c-0.42-1.98-0.56-3.99-0.36-5.97 c0.25-1.98,0.58-3.97,0.87-5.94c0.61-3.93,1.21-7.81,1.8-11.62c1.2-7.62,2.38-14.96,3.55-21.95 c2.32-13.98,4.57-26.54,6.57-37.07c2.01-10.52,3.77-19.02,5.11-24.86c0.63-2.93,1.21-5.18,1.56-6.72 c0.17-0.75,0.31-1.33,0.4-1.75c0.09-0.39,0.12-0.6,0.12-0.6s-0.07,0.2-0.18,0.59c-0.11,0.41-0.26,0.99-0.46,1.73 c-0.39,1.53-1,3.78-1.67,6.7c-1.41,5.83-3.23,14.31-5.29,24.83c-2.06,10.52-4.34,23.08-6.7,37.06 c-1.18,6.99-2.38,14.33-3.58,21.95c-0.59,3.81-1.2,7.69-1.81,11.62c-0.29,1.98-0.62,3.94-0.88,5.97 c-0.22,2.04-0.06,4.13,0.36,6.15c5.79,32.17,11.04,61.3,14.84,82.42c1.92,10.53,3.48,19.05,4.56,24.97 c0.55,2.93,0.98,5.21,1.27,6.78c0.15,0.76,0.26,1.34,0.34,1.76C478.92,471.36,478.98,471.56,478.98,471.56z"></path> </g> </g> </g> </g> <g> <g> <g> <g> <path class="st15" d="M491.5,270.18c-0.16,0.03,1.81,13.27,4.39,29.58c2.59,16.31,4.81,29.51,4.97,29.49 c0.16-0.03-1.81-13.27-4.39-29.58C493.88,283.36,491.66,270.15,491.5,270.18z"></path> </g> </g> </g> </g> </g> <g> <g> <g> <g> <path class="st15" d="M407.18,148.78l27.16,20.65c0,0,25.27-43.09,27.5-45.77c2.23-2.68,7.91-5.55,7.91-5.55l-3.14,55.25 c0,0-13.67,34.88-32.42,32.98C419.82,204.9,395,167.01,395,167.01L407.18,148.78z"></path> </g> </g> <g class="st8"> <g> <g> <path d="M433.83,168.78c-3.78,5.78-4.81,13.28-2.75,19.87c0.21,0.67,0.49,1.39,1.1,1.75c0.91,0.54,2.15-0.01,2.72-0.91 c0.57-0.89,0.64-2,0.7-3.06c0.53,0.98,1.09,2,2.01,2.63s2.31,0.72,3.06-0.11c0.9-0.99,0.41-2.56-0.14-3.79 c-2.31-5.24-4.63-10.48-6.94-15.73"></path> </g> </g> </g> <g> <g> <g> <path class="st9" d="M414.01,154.97c0.17,0.11-2.61,4.77-6.22,10.42c-3.61,5.65-6.67,10.13-6.84,10.02 c-0.17-0.11,2.61-4.77,6.22-10.42C410.78,159.35,413.84,154.86,414.01,154.97z"></path> </g> </g> </g> <g> <g> <g> <path class="st9" d="M407.1,154.21c-0.07-0.06,0.28-0.42,0.9-0.19c0.28,0.11,0.62,0.37,0.72,0.85 c0.11,0.49-0.21,1.03-0.66,1.25c-0.44,0.24-1.06,0.2-1.4-0.17c-0.33-0.36-0.35-0.78-0.29-1.08c0.16-0.64,0.66-0.73,0.67-0.63 c0.05,0.09-0.17,0.3-0.15,0.69c0.01,0.41,0.34,0.79,0.83,0.53c0.49-0.25,0.37-0.74,0.03-0.99 C407.44,154.24,407.15,154.31,407.1,154.21z"></path> </g> </g> </g> <g> <g> <g> <path class="st9" d="M434.37,182.52c-0.17,0.06-1.19-2.8-1.23-6.51c-0.07-3.71,0.86-6.61,1.03-6.55 c0.22,0.05-0.36,2.94-0.3,6.54C433.91,179.59,434.58,182.47,434.37,182.52z"></path> </g> </g> </g> <g> <g> <g> <path class="st9" d="M439.63,182.33c-0.16,0.1-1.94-2.52-3.48-6.11c-1.55-3.58-2.23-6.68-2.05-6.72 c0.21-0.06,1.2,2.91,2.72,6.43C438.34,179.47,439.82,182.23,439.63,182.33z"></path> </g> </g> </g> </g> <g> <g> <g> <path class="st15" d="M526.56,112.86l-4.11-8.12h-29.69l-4.67,9.22l-18.35,4.15l-7.9,118.31c-0.05,1.5,0.31,2.98,1.05,4.29 l0,0l72.14,2.77l2.94,1.2c2.59-1.59,0.97-8.19,1-11.28l0.92-58.59l14.27-46.82L526.56,112.86z"></path> </g> </g> <g class="st8"> <g> <g> <path d="M495.78,116.97c1.75-1.75,3.5-3.5,5.25-5.25c1.97,4.74,3.93,9.48,5.9,14.22c6.78-3.99,13.25-8.51,19.32-13.52 c-6.66,2.14-13.32,4.27-19.98,6.41c-1.69-4.48-3.38-8.96-5.06-13.44c-1.18,4.07-2.88,7.98-5.02,11.64"></path> </g> </g> </g> <g> <g> <g> <path class="st15" d="M579.49,261.21l-19.44,1.01l-0.04-55.8l-20.11-31.61l14.27-46.82c2.94,1.16,25.09,56.78,30.73,71.88 c0.81,2.18,1.17,4.5,1.05,6.82L579.49,261.21z"></path> </g> </g> </g> <g> <g> <g> <path class="st9" d="M469.74,142.53c0.2,0.02-0.76,11.46-2.15,25.55c-1.39,14.1-2.68,25.5-2.89,25.48 c-0.2-0.02,0.76-11.46,2.15-25.55C468.25,153.92,469.54,142.51,469.74,142.53z"></path> </g> </g> </g> <g> <g> <g> <path class="st9" d="M501.18,105.43c0.19,0.08-1.4,4.34-3.54,9.51c-0.13,0.32-0.27,0.64-0.4,0.96 c-0.14,0.32-0.29,0.69-0.65,0.98c-0.37,0.33-0.98,0.27-1.29,0.08c-0.34-0.17-0.57-0.35-0.83-0.52 c-0.94-0.64-1.83-1.24-2.67-1.81c-1.51-1.05-2.41-1.74-2.36-1.82c0.05-0.09,1.06,0.45,2.64,1.39 c0.87,0.53,1.78,1.09,2.75,1.68c0.53,0.33,1.06,0.72,1.3,0.44c0.32-0.27,0.53-1.04,0.81-1.66 C499.11,109.48,500.99,105.35,501.18,105.43z"></path> </g> </g> </g> <g> <g> <g> <path class="st9" d="M524.8,112.68c0.03,0.1-1.7,0.79-4.53,1.83c-2.83,1.04-6.76,2.43-11.11,3.92 c-0.81,0.28-1.61,0.55-2.38,0.81l-0.32,0.11l-0.13-0.31c-1.53-3.71-2.86-6.99-3.77-9.35c-0.92-2.36-1.43-3.81-1.35-3.85 c0.08-0.04,0.75,1.35,1.79,3.66c1.04,2.31,2.44,5.56,4,9.26l-0.45-0.2c0.76-0.26,1.56-0.54,2.38-0.82 c4.35-1.49,8.31-2.8,11.18-3.71C522.97,113.1,524.76,112.58,524.8,112.68z"></path> </g> </g> </g> <g> <g> <g> <path class="st9" d="M551.11,129.66c0.06,0.22-4.12,1.35-8.97,3.52c-4.86,2.15-8.5,4.49-8.62,4.31 c-0.05-0.08,0.79-0.77,2.27-1.73c1.48-0.96,3.6-2.16,6.05-3.25c2.46-1.09,4.77-1.86,6.47-2.32 C550.01,129.74,551.09,129.57,551.11,129.66z"></path> </g> </g> </g> <g> <g> <g> <path class="st9" d="M501.18,105.43c0.01,0,0.03,0.12,0.04,0.35c0.01,0.28,0.03,0.62,0.05,1.04c0.03,0.91,0.08,2.26,0.1,4 c0.04,3.47,0.02,8.5-0.23,14.7c-0.44,12.41-2,29.51-4.47,48.28c-1.2,9.4-2.53,18.32-3.42,26.46 c-0.9,8.14-1.3,15.52-1.18,21.71c0.09,6.19,0.65,11.19,1.15,14.61c0.21,1.72,0.49,3.04,0.62,3.94 c0.06,0.42,0.11,0.75,0.16,1.03c0.03,0.23,0.04,0.35,0.03,0.36c-0.01,0-0.05-0.11-0.1-0.34c-0.06-0.27-0.14-0.6-0.23-1.01 c-0.18-0.9-0.5-2.21-0.76-3.93c-0.59-3.42-1.24-8.43-1.39-14.64c-0.19-6.22,0.16-13.63,1.02-21.79 c0.86-8.17,2.16-17.1,3.37-26.49c2.47-18.76,4.1-35.82,4.68-48.21c0.31-6.19,0.41-11.21,0.46-14.68 c0.02-1.69,0.03-3.02,0.04-3.99c0.01-0.42,0.02-0.76,0.03-1.04C501.16,105.55,501.17,105.43,501.18,105.43z"></path> </g> </g> </g> <g> <g> <g> <path class="st9" d="M580.54,252.67c-0.01,0.2-4.62,0.14-10.3-0.14c-5.68-0.28-10.28-0.67-10.27-0.87 c0.01-0.2,4.62-0.14,10.31,0.14C575.95,252.08,580.55,252.47,580.54,252.67z"></path> </g> </g> </g> <g> <g> <g> <path class="st9" d="M563.29,254.85c0.06,0.08-0.03,0.28,0.06,0.53c0.11,0.28,0.31,0.41,0.57,0.2 c0.25-0.21,0.17-0.44-0.08-0.6c-0.22-0.15-0.44-0.09-0.5-0.17c-0.08-0.05,0.13-0.4,0.65-0.33c0.24,0.04,0.55,0.19,0.71,0.56 c0.17,0.38,0,0.87-0.33,1.11c-0.31,0.26-0.82,0.33-1.16,0.08c-0.33-0.24-0.4-0.57-0.39-0.82 C562.87,254.88,563.26,254.75,563.29,254.85z"></path> </g> </g> </g> <g class="st8"> <g> <g> <path d="M540.18,174.66c-2.11-3.82-4.23-7.63-6.34-11.45c-2.53,20.14-1.1,40.76,4.18,60.36c0.65-16.22,1.3-32.44,1.96-48.66"></path> </g> </g> </g> <g> <g> <g> <path class="st9" d="M508,153.63c-0.02-0.03,0.37-0.05,1.15-0.08c0.88-0.02,2.01-0.05,3.38-0.08 c2.93-0.06,7.17-0.13,12.27-0.16l0.35,0l-0.03,0.35c-0.33,4.46-0.71,9.64-1.11,15.15l-0.01,0.2l-0.18,0.1 c-0.24,0.13-0.5,0.26-0.75,0.4c-2.86,1.5-5.61,2.95-8.21,4.32l-0.21,0.11l-0.18-0.15c-2.77-2.26-5.33-4.36-7.62-6.23 l-0.12-0.1l0.01-0.15c0.36-4.1,0.65-7.51,0.87-10.04c0.11-1.1,0.2-2,0.27-2.72C507.93,153.92,507.98,153.61,508,153.63 s0.02,0.38-0.01,1.03c-0.03,0.74-0.07,1.67-0.12,2.79c-0.14,2.48-0.33,5.85-0.55,9.88l-0.11-0.25 c2.31,1.85,4.9,3.91,7.69,6.15l-0.39-0.04c2.6-1.37,5.35-2.83,8.2-4.34c0.26-0.14,0.52-0.27,0.75-0.4l-0.2,0.3 c0.44-5.51,0.85-10.68,1.21-15.14l0.32,0.34c-4.96-0.03-9.12-0.1-12.07-0.16c-1.4-0.03-2.55-0.06-3.45-0.08 C508.47,153.68,508.02,153.66,508,153.63z"></path> </g> </g> </g> <g> <g> <g> <path class="st9" d="M472.33,241.3c-0.01,0.2-1.52-0.07-2.49-1.53c-0.99-1.45-0.68-2.95-0.48-2.89 c0.21,0.01,0.25,1.27,1.09,2.48C471.25,240.59,472.4,241.1,472.33,241.3z"></path> </g> </g> </g> <g> <g> <g> <path class="st9" d="M474.21,240.52c-0.13,0.14-1.49-1.16-2.04-3.35c-0.56-2.18,0.02-3.98,0.2-3.91 c0.21,0.04-0.01,1.74,0.51,3.73C473.38,238.99,474.39,240.39,474.21,240.52z"></path> </g> </g> </g> <g> <g> <g> <path class="st9" d="M528.66,232.39c0.18-0.03,0.36,2.84-1.13,5.96c-1.45,3.13-3.78,4.82-3.87,4.67 c-0.16-0.16,1.83-2.01,3.2-4.98C528.28,235.08,528.44,232.37,528.66,232.39z"></path> </g> </g> </g> </g> </g> <g> <path class="st12" d="M405.67,151.04c0,0-21.97-16.64-25.05-17.76c-5.11-1.85-6.34-1.36-6.34-1.36l12.05,12.98 c0,0-12.74,4.3-13.66,4.8c-1.03,0.56-1.37,3.31,1.73,3.31c2.55,0,14.76,0.28,14.76,0.28l10.08,7.36L405.67,151.04z"></path> </g> </g> </g> <g id="Speech_Bubble"> <g> <g> <g> <g> <g> <g> <g> <path class="st9" d="M600.06,7.65c0-0.02,0.25-0.02,0.72-0.01c0.53,0.01,1.23,0.03,2.13,0.06c0.47,0.02,0.99,0.02,1.57,0.07 c0.58,0.08,1.2,0.17,1.88,0.26c0.68,0.1,1.41,0.2,2.19,0.32c0.77,0.19,1.59,0.39,2.45,0.61c3.44,0.89,7.61,2.4,11.88,5.18 c4.26,2.73,8.69,6.65,12.28,11.96c3.53,5.32,6.25,12.02,6.97,19.54c0.07,1.88,0.3,3.8,0.12,5.74 c-0.07,0.97-0.05,1.96-0.19,2.94c-0.15,0.98-0.3,1.96-0.45,2.96c-0.8,3.92-1.97,7.94-3.99,11.69 c-1.98,3.75-4.52,7.32-7.63,10.5c-3.17,3.12-6.88,5.82-11,7.9c-4.11,2.1-8.66,3.55-13.4,4.11c-1.17,0.23-2.38,0.23-3.58,0.3 c-1.2,0.08-2.4,0.12-3.61,0.07c-2.42-0.1-4.84-0.4-7.24-0.91c-5.21-1.11-10.11-3.23-14.41-6.06l0.44,0.04 c-5,2-9.9,3.97-14.68,5.89l-0.87,0.35l0.25-0.9c1.48-5.39,2.92-10.63,4.32-15.69l0.07,0.39 c-4.12-5.47-6.75-11.73-7.83-17.93c-0.55-3.1-0.78-6.2-0.57-9.19c0.06-1.5,0.14-2.98,0.42-4.41 c0.11-0.72,0.22-1.44,0.33-2.15c0.13-0.71,0.35-1.39,0.51-2.08c2.84-11.05,9.64-19.21,16.38-23.88 c3.37-2.38,6.7-4.08,9.75-5.14c0.76-0.27,1.49-0.53,2.2-0.79c0.72-0.18,1.42-0.36,2.08-0.53c0.66-0.16,1.3-0.32,1.91-0.47 c0.61-0.12,1.2-0.18,1.76-0.27c1.11-0.14,2.08-0.33,2.94-0.37c0.84-0.03,1.56-0.05,2.16-0.07c0.55-0.01,0.98-0.02,1.32-0.03 C599.91,7.64,600.06,7.64,600.06,7.65c0,0.01-0.15,0.03-0.45,0.06c-0.34,0.03-0.77,0.06-1.31,0.1 c-0.59,0.04-1.31,0.09-2.14,0.14c-0.85,0.07-1.81,0.28-2.91,0.44c-4.32,0.79-10.8,2.51-17.41,7.35 c-6.61,4.67-13.24,12.75-15.97,23.61c-0.16,0.68-0.37,1.35-0.49,2.04c-0.1,0.7-0.21,1.4-0.32,2.11 c-0.27,1.41-0.33,2.86-0.39,4.33c-0.19,2.94,0.05,5.97,0.59,9.01c1.09,6.08,3.68,12.19,7.73,17.54l0.13,0.18l-0.06,0.21 c-1.38,5.07-2.81,10.31-4.28,15.7l-0.62-0.55c4.78-1.93,9.68-3.9,14.67-5.91l0.23-0.09l0.21,0.14 c4.21,2.77,9,4.84,14.09,5.92c2.34,0.5,4.71,0.8,7.08,0.9c1.18,0.06,2.36,0.01,3.53-0.06c1.17-0.07,2.35-0.07,3.5-0.29 c4.64-0.55,9.09-1.96,13.11-4.01c4.03-2.03,7.66-4.67,10.77-7.71c3.05-3.11,5.55-6.6,7.5-10.26 c1.99-3.66,3.15-7.59,3.95-11.44c0.15-0.97,0.3-1.94,0.45-2.9c0.14-0.96,0.13-1.93,0.2-2.88c0.19-1.91-0.03-3.79-0.09-5.64 c-0.67-7.38-3.31-13.97-6.74-19.24c-3.5-5.25-7.83-9.15-12.01-11.89c-4.18-2.79-8.29-4.34-11.68-5.27 c-0.85-0.23-1.66-0.44-2.42-0.64c-0.77-0.13-1.5-0.25-2.17-0.36c-0.67-0.11-1.29-0.21-1.86-0.31 c-0.57-0.06-1.09-0.08-1.56-0.12c-0.89-0.07-1.6-0.12-2.12-0.15C600.31,7.7,600.06,7.67,600.06,7.65z"></path> </g> </g> </g> </g> </g> </g> </g> <g> <g> <g> <g> <path class="st7" d="M613.85,59.72c0,0.01-0.17,0.02-0.5,0.03c-0.35,0.01-0.83,0.02-1.43,0.04c-1.27,0.02-3.07,0.05-5.28,0.08 c-4.51,0.04-10.73,0.1-17.73,0.16l-0.14,0l-0.02-0.14c-0.14-0.94-0.28-1.93-0.43-2.94c-1.23-8.59-2.32-16.26-3.04-21.28 l0.11,0.09c-2-0.01-3.59-0.02-4.72-0.02c-0.53-0.01-0.94-0.02-1.26-0.02c-0.29-0.01-0.43-0.02-0.43-0.03 c0-0.01,0.15-0.02,0.43-0.03c0.31-0.01,0.73-0.02,1.26-0.04c1.13-0.02,2.72-0.04,4.72-0.08l0.09,0l0.01,0.09 c0.74,5.01,1.88,12.67,3.16,21.26c0.15,1.01,0.29,2,0.43,2.94l-0.17-0.14c7-0.02,13.22-0.04,17.73-0.05 c2.22,0.01,4.01,0.02,5.28,0.02c0.6,0.01,1.07,0.02,1.43,0.02C613.68,59.7,613.85,59.71,613.85,59.72z"></path> <path class="st7" d="M589.29,60.22l-0.05-0.04l-0.6,0.01l-0.09-0.6l-0.04-0.04h0.04l-0.02-0.15l-0.36-2.43l-3.01-21.06 l-5.76-0.04c-0.51-0.01-0.58-0.02-0.58-0.18v-0.06l0.04-0.04c0.05-0.06,0.06-0.07,0.54-0.08l1.26-0.04l4.43-0.07l-0.02-0.11 l0.13,0.11l0.41-0.01l0.03,0.22c0.01,0.06,0.02,0.13,0.03,0.19l0.13,0.11l-0.11,0c0.74,5.01,1.86,12.54,3.12,20.96l0.39,2.66 l17.46-0.05l6.71,0.04c0.57,0.01,0.64,0.02,0.64,0.18c0,0.16-0.06,0.16-0.64,0.19l-1.43,0.04l-5.28,0.08l-17.37,0.15 L589.29,60.22z M589.23,59.85l0,0.03l4.72-0.04L589.23,59.85z M587.67,51.29l1.19,8.26h0.03l-0.38-2.62 C588.22,55,587.94,53.11,587.67,51.29z"></path> </g> </g> </g> </g> <g> <g> <g> <g> <path class="st7" d="M588.16,54.71c0,0,0.04-0.01,0.12-0.01c0.1,0,0.22-0.01,0.37-0.02c0.35-0.01,0.82-0.02,1.43-0.03 c1.27-0.02,3.08-0.05,5.34-0.08c4.58-0.04,10.99-0.1,18.4-0.17l-0.16,0.13c0.53-3.1,1.1-6.45,1.69-9.92 c0.31-1.78,0.61-3.54,0.89-5.21l0.16,0.19c-8.61,0.03-16.21,0.05-21.69,0.07c-2.71-0.01-4.89-0.01-6.42-0.01 c-0.73-0.01-1.31-0.01-1.73-0.02c-0.18-0.01-0.33-0.01-0.45-0.01c-0.1,0-0.15-0.01-0.15-0.01c0-0.01,0.05-0.01,0.15-0.02 c0.12,0,0.27-0.01,0.45-0.02c0.42-0.01,1-0.02,1.73-0.04c1.53-0.02,3.71-0.05,6.42-0.09c5.48-0.05,13.08-0.11,21.69-0.18l0.2,0 l-0.03,0.2c-0.28,1.67-0.58,3.43-0.89,5.21c-0.59,3.47-1.17,6.82-1.7,9.92l-0.02,0.13l-0.13,0c-7.42,0.02-13.82,0.04-18.4,0.05 c-2.26-0.01-4.07-0.01-5.34-0.02c-0.6-0.01-1.08-0.01-1.43-0.02c-0.15,0-0.27-0.01-0.37-0.01 C588.21,54.72,588.16,54.71,588.16,54.71z"></path> <path class="st7" d="M595.42,54.92l-7.14-0.04c-0.13-0.01-0.27-0.01-0.27-0.16c0-0.15,0.14-0.16,0.27-0.17l1.8-0.05l5.34-0.08 l18.14-0.17l1.64-9.67c0.28-1.65,0.56-3.28,0.83-4.84l-21.31,0.07l-8.61-0.04c-0.16-0.01-0.3-0.01-0.3-0.17 c0-0.15,0.14-0.16,0.3-0.17l2.18-0.06l6.42-0.09l21.43-0.18l0.01-0.06l0.05,0.06l0.58-0.01l-0.1,0.58l0.05,0.06l-0.06,0 l-2.48,14.5h0.04l-0.05,0.04l-0.1,0.58l-0.59,0l-0.05,0.04l0.01-0.04L595.42,54.92z M613.51,54.55l-2.68,0.02L613.51,54.55z M616.34,39.74c-0.27,1.58-0.55,3.22-0.84,4.89l-1.63,9.61h0.02l2.48-14.5H616.34z M616.09,39.41l-5.31,0.04l5.31-0.02 C616.08,39.43,616.08,39.42,616.09,39.41z"></path> </g> </g> </g> </g> <g> <g> <g> <g> <path class="st7" d="M595.19,66.6c-0.03,0-0.03-0.22-0.14-0.59c-0.11-0.36-0.37-0.89-0.92-1.29c-0.53-0.4-1.4-0.62-2.24-0.3 c-0.83,0.29-1.53,1.18-1.52,2.21c0,1.03,0.71,1.9,1.54,2.19c0.84,0.31,1.7,0.08,2.23-0.32c0.55-0.41,0.8-0.94,0.91-1.3 C595.16,66.82,595.16,66.6,595.19,66.6c0.01,0,0.06,0.22-0.01,0.62c-0.07,0.39-0.31,0.98-0.89,1.46 c-0.56,0.47-1.53,0.76-2.48,0.43c-0.95-0.3-1.78-1.3-1.77-2.48c-0.02-1.18,0.8-2.18,1.74-2.5c0.95-0.35,1.92-0.07,2.48,0.4 c0.59,0.46,0.83,1.05,0.91,1.45C595.25,66.38,595.2,66.6,595.19,66.6z"></path> <path class="st7" d="M592.66,69.41c-0.29,0-0.59-0.05-0.9-0.15c-0.93-0.3-1.88-1.3-1.88-2.62c-0.02-1.32,0.91-2.33,1.85-2.64 c1.08-0.39,2.09-0.02,2.63,0.42c0.7,0.56,0.91,1.26,0.96,1.53c0.04,0.23,0.06,0.5,0.03,0.65c0.04,0.17,0.01,0.48-0.02,0.65 c-0.05,0.28-0.24,0.98-0.94,1.55C594.01,69.12,593.38,69.41,592.66,69.41z M592.14,64.19c-0.1,0.02-0.2,0.05-0.31,0.09 c-0.81,0.27-1.66,1.19-1.65,2.35c0,1.17,0.86,2.07,1.67,2.34c0.1,0.04,0.21,0.06,0.31,0.09c-0.1-0.02-0.2-0.05-0.3-0.09 c-0.82-0.28-1.64-1.17-1.64-2.33c-0.01-1.02,0.67-2.01,1.62-2.35C591.94,64.24,592.04,64.21,592.14,64.19z M592.72,64.42 c-0.25,0-0.51,0.04-0.78,0.15c-0.72,0.26-1.43,1.05-1.42,2.06c0,1.02,0.72,1.8,1.44,2.05c0.85,0.31,1.66,0.03,2.09-0.3 c0.55-0.41,0.77-0.94,0.85-1.22c0.06-0.2,0.08-0.35,0.1-0.45c0.01-0.03,0.01-0.07,0.02-0.1c-0.01-0.03-0.02-0.07-0.02-0.1 c-0.02-0.1-0.04-0.25-0.1-0.45c-0.08-0.28-0.31-0.81-0.87-1.21C593.73,64.62,593.26,64.42,592.72,64.42z"></path> </g> </g> </g> </g> <g> <g> <g> <g> <path class="st7" d="M611.24,66.51c-0.03,0-0.03-0.22-0.14-0.59c-0.11-0.36-0.37-0.89-0.92-1.29c-0.53-0.4-1.4-0.62-2.24-0.3 c-0.83,0.29-1.53,1.18-1.52,2.21c0,1.03,0.71,1.9,1.54,2.19c0.84,0.31,1.7,0.08,2.23-0.32c0.55-0.41,0.8-0.94,0.91-1.3 C611.21,66.73,611.21,66.51,611.24,66.51c0.01,0,0.06,0.22-0.01,0.62c-0.07,0.39-0.31,0.99-0.89,1.46 c-0.56,0.47-1.53,0.76-2.48,0.43c-0.95-0.3-1.78-1.3-1.77-2.48c-0.02-1.18,0.8-2.18,1.74-2.5c0.95-0.35,1.92-0.07,2.48,0.4 c0.59,0.46,0.83,1.05,0.91,1.45C611.3,66.28,611.25,66.51,611.24,66.51z"></path> <path class="st7" d="M608.71,69.31c-0.29,0-0.59-0.05-0.9-0.15c-0.93-0.3-1.88-1.3-1.87-2.62c-0.02-1.32,0.91-2.33,1.85-2.64 c1.08-0.39,2.09-0.02,2.63,0.42c0.7,0.55,0.91,1.26,0.96,1.53c0.04,0.23,0.06,0.5,0.03,0.65c0.04,0.17,0.01,0.48-0.02,0.65 c-0.05,0.28-0.24,0.98-0.94,1.55C610.05,69.02,609.43,69.31,608.71,69.31z M608.17,64.1c-0.1,0.02-0.19,0.05-0.29,0.09 c-0.81,0.27-1.66,1.19-1.65,2.35c0,1.17,0.86,2.07,1.67,2.34c0.12,0.04,0.23,0.07,0.35,0.09c-0.11-0.02-0.23-0.06-0.34-0.1 c-0.82-0.28-1.65-1.17-1.64-2.33c-0.02-1.15,0.8-2.06,1.62-2.35C607.98,64.15,608.08,64.12,608.17,64.1z M608.77,64.33 c-0.25,0-0.51,0.04-0.78,0.15c-0.72,0.26-1.44,1.05-1.42,2.06c0,1.02,0.72,1.8,1.44,2.05c0.84,0.31,1.65,0.04,2.09-0.3 c0.56-0.41,0.77-0.94,0.85-1.22c0.06-0.2,0.08-0.35,0.1-0.45c0-0.03,0.01-0.07,0.02-0.1c-0.01-0.03-0.02-0.07-0.02-0.1 c-0.02-0.1-0.04-0.25-0.1-0.45c-0.08-0.28-0.31-0.81-0.87-1.21C609.78,64.52,609.31,64.33,608.77,64.33z"></path> </g> </g> </g> </g> </g> </svg> 