<?xml version="1.0" encoding="UTF-8"?> <!-- Generator: Adobe Illustrator 23.1.1, SVG Export Plug-In . SVG Version: 6.00 Build 0) --> <svg xmlns="http://www.w3.org/2000/svg" xmlns:xlink="http://www.w3.org/1999/xlink" version="1.1" id="refer_a_friend_infographic" x="0px" y="0px" viewBox="0 0 2446.57 1947.61" style="enable-background:new 0 0 2446.57 1947.61;" xml:space="preserve"> <style type="text/css"> .st0{fill:#FFD9D9;} .st1{display:none;} .st2{display:inline;} .st3{fill:#FFFFFF;} .st4{fill:#E6E6E6;} .st5{fill:#FFA6A6;} .st6{fill:#1A1A1A;} .st7{fill:#C46060;} .st8{fill:#313642;} .st9{fill:#5A5E68;} .st10{fill:#5D6AB1;} .st11{fill:#FAB234;} .st12{fill:#1A2635;} .st13{fill:#33314F;} .st14{fill:#5C5A72;} .st15{fill:#26243B;} .st16{fill:#253657;} .st17{fill:#C94041;} .st18{fill:#D13F30;} .st19{fill:#515E79;} .st20{fill:#FFBE9D;} .st21{fill:#D6AEA1;} .st22{fill:#B03D3E;} .st23{fill:#BA4142;} .st24{fill:#C86768;} .st25{fill:#9D2F24;} .st26{fill:#E8505B;} .st27{fill:#999999;} .st28{fill:#333333;} .st29{fill:#6FB2F2;} .st30{fill:#F2F2F2;} .st31{fill:#FCE3C6;} .st32{fill:#634545;} .st33{fill:#332525;} .st34{fill:#B98B55;} </style> <g id="refer_a_friend_infographic_1_"> <g id="backcolor"> <path class="st0" d="M60.79,1947.61c72.08-417.08,166.98-492.5,293.46-494.99c126.48-2.49,99.62-369.04,225.74-358.31 c152.08,12.94,259.89-36.18,410.4-63.45c117.93-21.37,236.41-56.14,336.06-128.72c83.93-61.13,113.15-282.7,217.52-305.61 c147.76-32.43,322.23,206.67,466.02,59.91s164.5,211.88,338.75,378.07c88.12,84.05,102.85,272.48-17.29,913.09h192.22H60.79 L60.79,1947.61z"></path> </g> <g id="texting" class="st1"> <g id="lorem" class="st2"> <path class="st3" d="M2031.21,1520.31h0.72v24.87h14.43l-0.25,0.65h-14.9V1520.31z"></path> <path class="st3" d="M2064.17,1536.81c0,6.05-3.19,9.53-7.98,9.53c-4.75,0-7.79-3.66-7.79-9.46c0-6.24,3.52-9.57,7.98-9.57 C2060.8,1527.31,2064.17,1530.79,2064.17,1536.81z M2049.16,1536.84c0,4.78,2.39,8.85,7.03,8.85c4.68,0,7.21-3.81,7.21-8.85 c0-4.86-2.5-8.88-7.11-8.88C2051.62,1527.96,2049.16,1532.1,2049.16,1536.84z"></path> <path class="st3" d="M2069.06,1533.98c0-3.95,0-5.04-0.04-6.16h0.69c0.07,0.91,0.07,2.97,0.07,5.22 c0.91-3.15,3.92-5.55,6.82-5.66v0.73c-3.7,0.14-6.82,3.84-6.82,8.01v9.72h-0.73V1533.98z"></path> <path class="st3" d="M2079.14,1536.63c0,5.62,2.79,8.92,6.71,8.92c3.55,0,5.26-1.92,6.31-4.28h0.72c-1.09,2.83-3.15,4.93-7,4.93 c-5.55,0-7.47-4.97-7.47-9.43c0-5.76,3.12-9.39,7.54-9.39c5.58,0,7.32,4.89,7.32,8.34c0,0.4,0,0.51-0.04,0.91H2079.14z M2092.59,1535.97c0-4.35-2.17-7.94-6.67-7.94c-3.99,0-6.53,3.3-6.74,7.94H2092.59z"></path> <path class="st3" d="M2098.28,1531.91c0-1.49,0-3.26-0.04-4.1h0.73c0.04,0.62,0.07,2.79,0.04,4.24c0.62-2.03,2.28-4.68,6.24-4.68 c3.04,0,4.86,1.74,5.47,4.28c0.54-1.52,2.14-4.28,6.24-4.28c3.23,0,5.91,1.96,5.91,6.67v11.78h-0.76v-11.71 c0-3.23-1.52-6.05-5.22-6.05c-3.84,0-5.94,2.79-5.94,6.6v11.17h-0.76v-11.82c0-3.44-1.6-5.95-5.04-5.95 c-3.59,0-6.13,2.9-6.13,7.79v9.97h-0.72V1531.91z"></path> <path class="st3" d="M2137.54,1521.91v-3.3h0.72v3.3H2137.54z M2137.54,1527.82h0.72v18.02h-0.72V1527.82z"></path> <path class="st3" d="M2144.43,1553.96v-20.92c0-2.46,0-4.1-0.04-5.22h0.72c0.04,0.8,0.07,3.26,0.04,4.75 c1.05-3.01,3.23-5.18,6.92-5.18c4.28,0,7.32,3.48,7.32,8.95c0,6.85-3.52,9.93-7.61,9.93c-3.55,0-5.55-1.74-6.63-4.68v12.36 H2144.43z M2152.04,1528.07c-4.21,0-6.96,3.37-6.96,8.88c0,4.86,1.85,8.63,6.71,8.63c4.02,0,6.85-3.44,6.85-9.21 C2158.64,1531.33,2155.78,1528.07,2152.04,1528.07z"></path> <path class="st3" d="M2163.61,1541.05c0.62,3.04,2.39,4.57,5.95,4.57c3.66,0,5.4-1.89,5.4-4.17c0-2.32-0.94-3.63-5.58-4.86 c-4.53-1.2-5.55-2.5-5.55-4.82c0-2.28,1.74-4.39,5.58-4.39c3.7,0,5.69,2.18,5.98,4.89h-0.73c-0.29-1.99-1.6-4.24-5.29-4.24 c-3.48,0-4.82,1.81-4.82,3.66c0,2.1,0.98,3.23,5.11,4.28c4.71,1.2,6.05,2.76,6.05,5.4c0,3.01-2.43,4.89-6.16,4.89 c-4.24,0-6.16-2.03-6.67-5.22H2163.61z"></path> <path class="st3" d="M2193.55,1540.9c0,1.78,0.04,4.13,0.04,4.93h-0.73c-0.04-0.25-0.11-2.68-0.07-4.46 c-0.83,2.72-2.86,4.82-6.45,4.82c-2.54,0-6.24-1.16-6.24-6.78v-11.6h0.73v11.89c0,2.97,1.56,5.8,5.55,5.8 c3.73,0,6.42-2.54,6.42-7.79v-9.9h0.76V1540.9z"></path> <path class="st3" d="M2199.71,1531.91c0-1.49,0-3.26-0.04-4.1h0.73c0.04,0.62,0.07,2.79,0.04,4.24c0.62-2.03,2.28-4.68,6.24-4.68 c3.05,0,4.86,1.74,5.47,4.28c0.54-1.52,2.14-4.28,6.24-4.28c3.23,0,5.91,1.96,5.91,6.67v11.78h-0.76v-11.71 c0-3.23-1.52-6.05-5.22-6.05c-3.84,0-5.95,2.79-5.95,6.6v11.17h-0.76v-11.82c0-3.44-1.59-5.95-5.04-5.95 c-3.59,0-6.13,2.9-6.13,7.79v9.97h-0.72V1531.91z"></path> <path class="st3" d="M2252.68,1518.61v22.91c0,1.27,0.04,3.26,0.04,4.31h-0.69c-0.04-0.62-0.07-2.61-0.07-4.53 c-0.83,2.65-2.61,4.97-6.82,4.97c-3.92,0-7.43-3.08-7.43-9.24c0-6.53,3.77-9.64,7.9-9.64c4.46,0,5.91,3.08,6.34,4.28v-13.05 H2252.68z M2245.17,1545.58c4.46,0,6.85-3.04,6.85-9.13c0-5.33-2.1-8.37-6.49-8.37c-4.39,0-7.07,3.81-7.07,8.88 C2238.47,1542.39,2241.33,1545.58,2245.17,1545.58z"></path> <path class="st3" d="M2273.34,1536.81c0,6.05-3.19,9.53-7.98,9.53c-4.75,0-7.79-3.66-7.79-9.46c0-6.24,3.52-9.57,7.98-9.57 C2269.97,1527.31,2273.34,1530.79,2273.34,1536.81z M2258.33,1536.84c0,4.78,2.39,8.85,7.03,8.85c4.68,0,7.21-3.81,7.21-8.85 c0-4.86-2.5-8.88-7.1-8.88C2260.8,1527.96,2258.33,1532.1,2258.33,1536.84z"></path> <path class="st3" d="M2278.24,1545.83v-27.23h0.73v27.23H2278.24z"></path> <path class="st3" d="M2299.62,1536.81c0,6.05-3.19,9.53-7.98,9.53c-4.75,0-7.79-3.66-7.79-9.46c0-6.24,3.52-9.57,7.98-9.57 C2296.25,1527.31,2299.62,1530.79,2299.62,1536.81z M2284.62,1536.84c0,4.78,2.39,8.85,7.03,8.85c4.68,0,7.21-3.81,7.21-8.85 c0-4.86-2.5-8.88-7.1-8.88C2287.08,1527.96,2284.62,1532.1,2284.62,1536.84z"></path> <path class="st3" d="M2304.52,1533.98c0-3.95,0-5.04-0.04-6.16h0.69c0.07,0.91,0.07,2.97,0.07,5.22 c0.91-3.15,3.92-5.55,6.82-5.66v0.73c-3.7,0.14-6.82,3.84-6.82,8.01v9.72h-0.72V1533.98z"></path> <path class="st3" d="M2323.01,1541.05c0.62,3.04,2.39,4.57,5.95,4.57c3.66,0,5.4-1.89,5.4-4.17c0-2.32-0.94-3.63-5.58-4.86 c-4.53-1.2-5.55-2.5-5.55-4.82c0-2.28,1.74-4.39,5.58-4.39c3.7,0,5.69,2.18,5.98,4.89h-0.73c-0.29-1.99-1.59-4.24-5.29-4.24 c-3.48,0-4.82,1.81-4.82,3.66c0,2.1,0.98,3.23,5.11,4.28c4.71,1.2,6.05,2.76,6.05,5.4c0,3.01-2.43,4.89-6.16,4.89 c-4.24,0-6.16-2.03-6.67-5.22H2323.01z"></path> <path class="st3" d="M2339.83,1521.91v-3.3h0.72v3.3H2339.83z M2339.83,1527.82h0.72v18.02h-0.72V1527.82z"></path> <path class="st3" d="M2344.03,1527.82h3.37v-5.98h0.73v5.98h4.49v0.65h-4.49v13.63c0,1.96,0.4,3.41,2.65,3.41 c0.47,0,1.12-0.04,1.45-0.18v0.65c-0.47,0.18-1.01,0.22-1.49,0.22c-2.39,0-3.33-1.05-3.33-4.28v-13.45h-3.37V1527.82z"></path> <path class="st3" d="M2376.73,1541.77c0,2.28,0.11,3.59,0.18,4.06h-0.73c-0.07-0.58-0.18-1.74-0.18-4.02 c-0.98,3.05-3.26,4.46-6.56,4.46c-4.35,0-6.05-2.57-6.05-5.15c0-3.88,3.01-5.47,8.05-5.47c2.07,0,3.26,0,4.57,0.04v-2.54 c0-2.61-1.09-5.11-5.36-5.11c-3.99,0-5.37,1.99-5.62,4.75h-0.73c0.15-2.61,1.6-5.4,6.38-5.4c4.31,0,6.05,2.39,6.05,5.55V1541.77z M2376.01,1536.34c-1.23-0.04-2.72-0.04-4.6-0.04c-4.89,0-7.25,1.56-7.25,4.79c0,2.79,2.21,4.49,5.33,4.49 c4.21,0,6.53-2.57,6.53-7.5V1536.34z"></path> <path class="st3" d="M2383.04,1531.91c0-1.49,0-3.26-0.04-4.1h0.73c0.04,0.62,0.07,2.79,0.04,4.24c0.62-2.03,2.28-4.68,6.24-4.68 c3.05,0,4.86,1.74,5.47,4.28c0.54-1.52,2.14-4.28,6.24-4.28c3.23,0,5.91,1.96,5.91,6.67v11.78h-0.76v-11.71 c0-3.23-1.52-6.05-5.22-6.05c-3.84,0-5.95,2.79-5.95,6.6v11.17h-0.76v-11.82c0-3.44-1.59-5.95-5.04-5.95 c-3.59,0-6.13,2.9-6.13,7.79v9.97h-0.72V1531.91z"></path> <path class="st3" d="M2413.24,1536.63c0,5.62,2.79,8.92,6.71,8.92c3.55,0,5.26-1.92,6.31-4.28h0.72c-1.09,2.83-3.15,4.93-7,4.93 c-5.55,0-7.47-4.97-7.47-9.43c0-5.76,3.12-9.39,7.54-9.39c5.58,0,7.32,4.89,7.32,8.34c0,0.4,0,0.51-0.04,0.91H2413.24z M2426.69,1535.97c0-4.35-2.17-7.94-6.67-7.94c-3.99,0-6.53,3.3-6.74,7.94H2426.69z"></path> <path class="st3" d="M2429.88,1527.82h3.37v-5.98h0.73v5.98h4.49v0.65h-4.49v13.63c0,1.96,0.4,3.41,2.65,3.41 c0.47,0,1.12-0.04,1.45-0.18v0.65c-0.47,0.18-1.01,0.22-1.49,0.22c-2.39,0-3.33-1.05-3.33-4.28v-13.45h-3.37V1527.82z"></path> <path class="st3" d="M2440.9,1550.04c1.34-2.61,2.07-5.18,2.32-8.27h0.72c-0.22,3.19-1.41,6.6-2.36,8.27H2440.9z"></path> <path class="st3" d="M2470.73,1540.94c-1.09,3.81-3.55,5.33-6.85,5.33c-4.71,0-7.61-3.63-7.61-9.43c0-5.69,3.19-9.46,7.79-9.46 c3.95,0,6.09,2.68,6.67,5.47h-0.76c-0.73-2.72-2.47-4.82-5.98-4.82c-4.64,0-6.96,4.13-6.96,8.81c0,5,2.28,8.77,6.89,8.77 c3.12,0,5.11-1.67,6.09-4.68H2470.73z"></path> <path class="st3" d="M2489.91,1536.81c0,6.05-3.19,9.53-7.98,9.53c-4.75,0-7.79-3.66-7.79-9.46c0-6.24,3.52-9.57,7.98-9.57 C2486.54,1527.31,2489.91,1530.79,2489.91,1536.81z M2474.9,1536.84c0,4.78,2.39,8.85,7.03,8.85c4.68,0,7.21-3.81,7.21-8.85 c0-4.86-2.5-8.88-7.1-8.88C2477.37,1527.96,2474.9,1532.1,2474.9,1536.84z"></path> <path class="st3" d="M2494.8,1532.2c0-1.78-0.04-3.99-0.04-4.39h0.73c0.04,0.83,0.07,2.39,0.04,4.53 c0.65-1.96,2.5-4.97,6.85-4.97c3.01,0,6.09,1.74,6.09,6.96v11.49h-0.76v-11.42c0-3.59-1.74-6.34-5.44-6.34 c-4.31,0-6.74,3.63-6.74,7.87v9.9h-0.72V1532.2z"></path> <path class="st3" d="M2513.69,1541.05c0.62,3.04,2.39,4.57,5.94,4.57c3.66,0,5.4-1.89,5.4-4.17c0-2.32-0.94-3.63-5.58-4.86 c-4.53-1.2-5.55-2.5-5.55-4.82c0-2.28,1.74-4.39,5.58-4.39c3.7,0,5.69,2.18,5.98,4.89h-0.73c-0.29-1.99-1.59-4.24-5.29-4.24 c-3.48,0-4.82,1.81-4.82,3.66c0,2.1,0.98,3.23,5.11,4.28c4.71,1.2,6.05,2.76,6.05,5.4c0,3.01-2.43,4.89-6.16,4.89 c-4.24,0-6.16-2.03-6.67-5.22H2513.69z"></path> <path class="st3" d="M2530.15,1536.63c0,5.62,2.79,8.92,6.71,8.92c3.55,0,5.26-1.92,6.31-4.28h0.73c-1.09,2.83-3.15,4.93-7,4.93 c-5.55,0-7.47-4.97-7.47-9.43c0-5.76,3.12-9.39,7.54-9.39c5.58,0,7.32,4.89,7.32,8.34c0,0.4,0,0.51-0.04,0.91H2530.15z M2543.6,1535.97c0-4.35-2.18-7.94-6.67-7.94c-3.99,0-6.53,3.3-6.74,7.94H2543.6z"></path> <path class="st3" d="M2562.41,1540.94c-1.09,3.81-3.55,5.33-6.85,5.33c-4.71,0-7.61-3.63-7.61-9.43c0-5.69,3.19-9.46,7.79-9.46 c3.95,0,6.09,2.68,6.67,5.47h-0.76c-0.72-2.72-2.47-4.82-5.98-4.82c-4.64,0-6.96,4.13-6.96,8.81c0,5,2.28,8.77,6.89,8.77 c3.12,0,5.11-1.67,6.09-4.68H2562.41z"></path> <path class="st3" d="M2564.84,1527.82h3.37v-5.98h0.72v5.98h4.5v0.65h-4.5v13.63c0,1.96,0.4,3.41,2.65,3.41 c0.47,0,1.12-0.04,1.45-0.18v0.65c-0.47,0.18-1.01,0.22-1.49,0.22c-2.39,0-3.33-1.05-3.33-4.28v-13.45h-3.37V1527.82z"></path> <path class="st3" d="M2576.12,1536.63c0,5.62,2.79,8.92,6.71,8.92c3.55,0,5.26-1.92,6.31-4.28h0.73c-1.09,2.83-3.15,4.93-7,4.93 c-5.55,0-7.47-4.97-7.47-9.43c0-5.76,3.12-9.39,7.54-9.39c5.58,0,7.32,4.89,7.32,8.34c0,0.4,0,0.51-0.04,0.91H2576.12z M2589.57,1535.97c0-4.35-2.17-7.94-6.67-7.94c-3.99,0-6.53,3.3-6.74,7.94H2589.57z"></path> <path class="st3" d="M2592.76,1527.82h3.37v-5.98h0.72v5.98h4.5v0.65h-4.5v13.63c0,1.96,0.4,3.41,2.65,3.41 c0.47,0,1.12-0.04,1.45-0.18v0.65c-0.47,0.18-1.01,0.22-1.49,0.22c-2.39,0-3.33-1.05-3.33-4.28v-13.45h-3.37V1527.82z"></path> <path class="st3" d="M2617.84,1540.9c0,1.78,0.04,4.13,0.04,4.93h-0.72c-0.04-0.25-0.11-2.68-0.07-4.46 c-0.83,2.72-2.86,4.82-6.45,4.82c-2.54,0-6.24-1.16-6.24-6.78v-11.6h0.72v11.89c0,2.97,1.56,5.8,5.55,5.8 c3.73,0,6.42-2.54,6.42-7.79v-9.9h0.76V1540.9z"></path> <path class="st3" d="M2624.01,1533.98c0-3.95,0-5.04-0.04-6.16h0.69c0.07,0.91,0.07,2.97,0.07,5.22 c0.91-3.15,3.92-5.55,6.82-5.66v0.73c-3.7,0.14-6.82,3.84-6.82,8.01v9.72h-0.72V1533.98z"></path> <path class="st3" d="M2655.51,1541.77c0,2.28,0.11,3.59,0.18,4.06h-0.73c-0.07-0.58-0.18-1.74-0.18-4.02 c-0.98,3.05-3.26,4.46-6.56,4.46c-4.35,0-6.05-2.57-6.05-5.15c0-3.88,3.01-5.47,8.05-5.47c2.07,0,3.26,0,4.57,0.04v-2.54 c0-2.61-1.09-5.11-5.37-5.11c-3.99,0-5.37,1.99-5.62,4.75h-0.72c0.15-2.61,1.59-5.4,6.38-5.4c4.31,0,6.05,2.39,6.05,5.55V1541.77 z M2654.78,1536.34c-1.23-0.04-2.72-0.04-4.6-0.04c-4.89,0-7.25,1.56-7.25,4.79c0,2.79,2.21,4.49,5.33,4.49 c4.21,0,6.53-2.57,6.53-7.5V1536.34z"></path> <path class="st3" d="M2675.38,1518.61v22.91c0,1.27,0.04,3.26,0.04,4.31h-0.69c-0.04-0.62-0.07-2.61-0.07-4.53 c-0.83,2.65-2.61,4.97-6.82,4.97c-3.92,0-7.43-3.08-7.43-9.24c0-6.53,3.77-9.64,7.9-9.64c4.46,0,5.91,3.08,6.34,4.28v-13.05 H2675.38z M2667.87,1545.58c4.46,0,6.85-3.04,6.85-9.13c0-5.33-2.1-8.37-6.49-8.37c-4.39,0-7.07,3.81-7.07,8.88 C2661.16,1542.39,2664.03,1545.58,2667.87,1545.58z"></path> <path class="st3" d="M2681.68,1521.91v-3.3h0.72v3.3H2681.68z M2681.68,1527.82h0.72v18.02h-0.72V1527.82z"></path> <path class="st3" d="M2688.57,1553.96v-20.92c0-2.46,0-4.1-0.04-5.22h0.72c0.04,0.8,0.07,3.26,0.04,4.75 c1.05-3.01,3.23-5.18,6.92-5.18c4.28,0,7.32,3.48,7.32,8.95c0,6.85-3.52,9.93-7.61,9.93c-3.55,0-5.55-1.74-6.63-4.68v12.36 H2688.57z M2696.18,1528.07c-4.21,0-6.96,3.37-6.96,8.88c0,4.86,1.85,8.63,6.71,8.63c4.02,0,6.85-3.44,6.85-9.21 C2702.78,1531.33,2699.92,1528.07,2696.18,1528.07z"></path> <path class="st3" d="M2708.44,1521.91v-3.3h0.72v3.3H2708.44z M2708.44,1527.82h0.72v18.02h-0.72V1527.82z"></path> <path class="st3" d="M2714.49,1541.05c0.62,3.04,2.39,4.57,5.95,4.57c3.66,0,5.4-1.89,5.4-4.17c0-2.32-0.94-3.63-5.58-4.86 c-4.53-1.2-5.55-2.5-5.55-4.82c0-2.28,1.74-4.39,5.58-4.39c3.7,0,5.69,2.18,5.98,4.89h-0.72c-0.29-1.99-1.6-4.24-5.29-4.24 c-3.48,0-4.82,1.81-4.82,3.66c0,2.1,0.98,3.23,5.11,4.28c4.71,1.2,6.05,2.76,6.05,5.4c0,3.01-2.43,4.89-6.16,4.89 c-4.24,0-6.16-2.03-6.67-5.22H2714.49z"></path> <path class="st3" d="M2744.69,1540.94c-1.09,3.81-3.55,5.33-6.85,5.33c-4.71,0-7.61-3.63-7.61-9.43c0-5.69,3.19-9.46,7.79-9.46 c3.95,0,6.09,2.68,6.67,5.47h-0.76c-0.72-2.72-2.47-4.82-5.98-4.82c-4.64,0-6.96,4.13-6.96,8.81c0,5,2.28,8.77,6.89,8.77 c3.12,0,5.11-1.67,6.09-4.68H2744.69z"></path> <path class="st3" d="M2749.58,1521.91v-3.3h0.73v3.3H2749.58z M2749.58,1527.82h0.73v18.02h-0.73V1527.82z"></path> <path class="st3" d="M2756.47,1532.2c0-1.78-0.04-3.99-0.04-4.39h0.72c0.04,0.83,0.07,2.39,0.04,4.53 c0.65-1.96,2.5-4.97,6.85-4.97c3.01,0,6.09,1.74,6.09,6.96v11.49h-0.76v-11.42c0-3.59-1.74-6.34-5.44-6.34 c-4.31,0-6.74,3.63-6.74,7.87v9.9h-0.72V1532.2z"></path> <path class="st3" d="M2789.9,1545.22c0,5.76-1.81,9.03-7.69,9.03c-4.31,0-6.42-2.46-6.82-5.18h0.73 c0.54,2.65,2.57,4.53,6.13,4.53c5.4,0,6.92-3.01,6.92-8.48v-3.99c-0.94,3.08-3.15,4.71-6.6,4.71c-4.24,0-7.5-3.33-7.5-8.99 c0-6.31,3.88-9.46,7.83-9.46s5.73,2.25,6.31,4.39c0-1.99,0.04-3.7,0.04-3.95h0.69c0,0.44-0.04,2.54-0.04,4.89V1545.22z M2782.61,1545.15c5.4,0,6.6-4.28,6.6-8.66c0-3.59-0.58-8.41-6.34-8.41c-4.31,0-7.03,3.66-7.03,8.74 C2775.83,1542.14,2778.88,1545.15,2782.61,1545.15z"></path> <path class="st3" d="M2804.03,1536.63c0,5.62,2.79,8.92,6.71,8.92c3.55,0,5.26-1.92,6.31-4.28h0.72c-1.09,2.83-3.15,4.93-7,4.93 c-5.55,0-7.47-4.97-7.47-9.43c0-5.76,3.12-9.39,7.54-9.39c5.58,0,7.32,4.89,7.32,8.34c0,0.4,0,0.51-0.04,0.91H2804.03z M2817.48,1535.97c0-4.35-2.18-7.94-6.67-7.94c-3.99,0-6.53,3.3-6.74,7.94H2817.48z"></path> <path class="st3" d="M2823.21,1545.83v-27.23h0.72v27.23H2823.21z"></path> <path class="st3" d="M2830.24,1521.91v-3.3h0.73v3.3H2830.24z M2830.24,1527.82h0.73v18.02h-0.73V1527.82z"></path> <path class="st3" d="M2834.45,1527.82h3.37v-5.98h0.73v5.98h4.49v0.65h-4.49v13.63c0,1.96,0.4,3.41,2.65,3.41 c0.47,0,1.12-0.04,1.45-0.18v0.65c-0.47,0.18-1.01,0.22-1.49,0.22c-2.39,0-3.33-1.05-3.33-4.28v-13.45h-3.37V1527.82z"></path> <path class="st3" d="M2846.3,1545.83v-4.06h0.73v4.06H2846.3z"></path> <path class="st3" d="M2033.32,1597.13l-3.81,9.93h-0.76l9.79-25.52h0.76l10.19,25.52h-0.8l-3.95-9.93H2033.32z M2044.45,1596.48 c-3.23-8.08-5.04-12.91-5.55-14.17h-0.04c-0.25,0.94-2.76,7.54-5.29,14.17H2044.45z"></path> <path class="st3" d="M2053.26,1597.85c0,5.62,2.79,8.92,6.71,8.92c3.55,0,5.26-1.92,6.31-4.28h0.73c-1.09,2.83-3.15,4.93-7,4.93 c-5.55,0-7.47-4.97-7.47-9.43c0-5.76,3.12-9.39,7.54-9.39c5.58,0,7.32,4.89,7.32,8.34c0,0.4,0,0.51-0.04,0.91H2053.26z M2066.71,1597.2c0-4.35-2.17-7.94-6.67-7.94c-3.99,0-6.53,3.3-6.74,7.94H2066.71z"></path> <path class="st3" d="M2072.4,1593.43c0-1.78-0.04-3.99-0.04-4.39h0.73c0.04,0.83,0.07,2.39,0.04,4.53 c0.65-1.96,2.5-4.97,6.85-4.97c3.01,0,6.09,1.74,6.09,6.96v11.49h-0.76v-11.42c0-3.59-1.74-6.34-5.44-6.34 c-4.31,0-6.74,3.63-6.74,7.87v9.9h-0.72V1593.43z"></path> <path class="st3" d="M2091.68,1597.85c0,5.62,2.79,8.92,6.71,8.92c3.55,0,5.26-1.92,6.31-4.28h0.73c-1.09,2.83-3.15,4.93-7,4.93 c-5.55,0-7.47-4.97-7.47-9.43c0-5.76,3.12-9.39,7.54-9.39c5.58,0,7.32,4.89,7.32,8.34c0,0.4,0,0.51-0.04,0.91H2091.68z M2105.13,1597.2c0-4.35-2.17-7.94-6.67-7.94c-3.99,0-6.53,3.3-6.74,7.94H2105.13z"></path> <path class="st3" d="M2122.64,1603c0,2.28,0.11,3.59,0.18,4.06h-0.73c-0.07-0.58-0.18-1.74-0.18-4.02 c-0.98,3.05-3.26,4.46-6.56,4.46c-4.35,0-6.05-2.57-6.05-5.15c0-3.88,3.01-5.47,8.05-5.47c2.07,0,3.26,0,4.57,0.04v-2.54 c0-2.61-1.09-5.11-5.37-5.11c-3.99,0-5.37,1.99-5.62,4.75h-0.73c0.15-2.61,1.6-5.4,6.38-5.4c4.31,0,6.05,2.39,6.05,5.55V1603z M2121.92,1597.56c-1.23-0.04-2.72-0.04-4.6-0.04c-4.89,0-7.25,1.56-7.25,4.79c0,2.79,2.21,4.49,5.33,4.49 c4.21,0,6.53-2.57,6.53-7.5V1597.56z"></path> <path class="st3" d="M2128.95,1593.43c0-1.78-0.04-3.99-0.04-4.39h0.73c0.04,0.83,0.07,2.39,0.04,4.53 c0.65-1.96,2.5-4.97,6.85-4.97c3.01,0,6.09,1.74,6.09,6.96v11.49h-0.76v-11.42c0-3.59-1.74-6.34-5.44-6.34 c-4.31,0-6.74,3.63-6.74,7.87v9.9h-0.72V1593.43z"></path> <path class="st3" d="M2170.75,1602.13c0,1.78,0.04,4.13,0.04,4.93h-0.72c-0.04-0.25-0.11-2.68-0.07-4.46 c-0.83,2.72-2.86,4.82-6.45,4.82c-2.54,0-6.24-1.16-6.24-6.78v-11.6h0.72v11.89c0,2.97,1.56,5.8,5.55,5.8 c3.73,0,6.42-2.54,6.42-7.79v-9.9h0.76V1602.13z"></path> <path class="st3" d="M2176.91,1607.06v-27.23h0.73v27.23H2176.91z"></path> <path class="st3" d="M2181.12,1589.04h3.37v-5.98h0.72v5.98h4.5v0.65h-4.5v13.63c0,1.96,0.4,3.41,2.65,3.41 c0.47,0,1.12-0.04,1.45-0.18v0.65c-0.47,0.18-1.01,0.22-1.49,0.22c-2.39,0-3.33-1.05-3.33-4.28v-13.45h-3.37V1589.04z"></path> <path class="st3" d="M2192.97,1595.21c0-3.95,0-5.04-0.04-6.16h0.69c0.07,0.91,0.07,2.97,0.07,5.22 c0.91-3.15,3.92-5.55,6.82-5.66v0.73c-3.7,0.14-6.82,3.84-6.82,8.01v9.72h-0.73V1595.21z"></path> <path class="st3" d="M2204.39,1583.14v-3.3h0.73v3.3H2204.39z M2204.39,1589.04h0.73v18.02h-0.73V1589.04z"></path> <path class="st3" d="M2224.47,1602.17c-1.09,3.81-3.55,5.33-6.85,5.33c-4.71,0-7.61-3.63-7.61-9.43c0-5.69,3.19-9.46,7.79-9.46 c3.95,0,6.09,2.68,6.67,5.47h-0.76c-0.73-2.72-2.47-4.82-5.98-4.82c-4.64,0-6.96,4.13-6.96,8.81c0,5,2.28,8.77,6.89,8.77 c3.12,0,5.11-1.67,6.09-4.68H2224.47z"></path> <path class="st3" d="M2228.61,1597.85c0,5.62,2.79,8.92,6.71,8.92c3.55,0,5.26-1.92,6.31-4.28h0.72c-1.09,2.83-3.15,4.93-7,4.93 c-5.55,0-7.47-4.97-7.47-9.43c0-5.76,3.12-9.39,7.54-9.39c5.58,0,7.32,4.89,7.32,8.34c0,0.4,0,0.51-0.04,0.91H2228.61z M2242.06,1597.2c0-4.35-2.18-7.94-6.67-7.94c-3.99,0-6.53,3.3-6.74,7.94H2242.06z"></path> <path class="st3" d="M2246.66,1602.28c0.62,3.04,2.39,4.57,5.95,4.57c3.66,0,5.4-1.89,5.4-4.17c0-2.32-0.94-3.63-5.58-4.86 c-4.53-1.2-5.55-2.5-5.55-4.82c0-2.28,1.74-4.39,5.58-4.39c3.7,0,5.69,2.18,5.98,4.89h-0.72c-0.29-1.99-1.6-4.24-5.29-4.24 c-3.48,0-4.82,1.81-4.82,3.66c0,2.1,0.98,3.23,5.11,4.28c4.71,1.2,6.05,2.76,6.05,5.4c0,3.01-2.43,4.89-6.16,4.89 c-4.24,0-6.16-2.03-6.67-5.22H2246.66z"></path> <path class="st3" d="M2272.62,1589.04v21.39c0,2.97-0.62,5.04-3.52,5.04h-0.25v-0.65h0.07c1.38,0,2.97-0.15,2.97-4.28v-21.5 H2272.62z M2271.89,1583.14v-3.3h0.72v3.3H2271.89z"></path> <path class="st3" d="M2292.23,1602.13c0,1.78,0.04,4.13,0.04,4.93h-0.73c-0.04-0.25-0.11-2.68-0.07-4.46 c-0.83,2.72-2.86,4.82-6.45,4.82c-2.54,0-6.24-1.16-6.24-6.78v-11.6h0.73v11.89c0,2.97,1.56,5.8,5.55,5.8 c3.73,0,6.42-2.54,6.42-7.79v-9.9h0.76V1602.13z"></path> <path class="st3" d="M2297.38,1602.28c0.62,3.04,2.39,4.57,5.95,4.57c3.66,0,5.4-1.89,5.4-4.17c0-2.32-0.94-3.63-5.58-4.86 c-4.53-1.2-5.55-2.5-5.55-4.82c0-2.28,1.74-4.39,5.58-4.39c3.7,0,5.69,2.18,5.98,4.89h-0.73c-0.29-1.99-1.59-4.24-5.29-4.24 c-3.48,0-4.82,1.81-4.82,3.66c0,2.1,0.98,3.23,5.11,4.28c4.71,1.2,6.05,2.76,6.05,5.4c0,3.01-2.43,4.89-6.16,4.89 c-4.24,0-6.16-2.03-6.67-5.22H2297.38z"></path> <path class="st3" d="M2311.55,1589.04h3.37v-5.98h0.72v5.98h4.5v0.65h-4.5v13.63c0,1.96,0.4,3.41,2.65,3.41 c0.47,0,1.12-0.04,1.45-0.18v0.65c-0.47,0.18-1.01,0.22-1.49,0.22c-2.39,0-3.33-1.05-3.33-4.28v-13.45h-3.37V1589.04z"></path> <path class="st3" d="M2337.87,1598.04c0,6.05-3.19,9.53-7.98,9.53c-4.75,0-7.79-3.66-7.79-9.46c0-6.24,3.52-9.57,7.98-9.57 C2334.5,1588.54,2337.87,1592.02,2337.87,1598.04z M2322.86,1598.07c0,4.78,2.39,8.85,7.03,8.85c4.68,0,7.21-3.81,7.21-8.85 c0-4.86-2.5-8.88-7.1-8.88C2325.33,1589.19,2322.86,1593.32,2322.86,1598.07z"></path> <path class="st3" d="M2350.45,1602.28c0.62,3.04,2.39,4.57,5.94,4.57c3.66,0,5.4-1.89,5.4-4.17c0-2.32-0.94-3.63-5.58-4.86 c-4.53-1.2-5.55-2.5-5.55-4.82c0-2.28,1.74-4.39,5.58-4.39c3.7,0,5.69,2.18,5.98,4.89h-0.72c-0.29-1.99-1.6-4.24-5.29-4.24 c-3.48,0-4.82,1.81-4.82,3.66c0,2.1,0.98,3.23,5.11,4.28c4.71,1.2,6.05,2.76,6.05,5.4c0,3.01-2.43,4.89-6.16,4.89 c-4.24,0-6.16-2.03-6.67-5.22H2350.45z"></path> <path class="st3" d="M2366.91,1597.85c0,5.62,2.79,8.92,6.71,8.92c3.55,0,5.26-1.92,6.31-4.28h0.72c-1.09,2.83-3.15,4.93-7,4.93 c-5.55,0-7.47-4.97-7.47-9.43c0-5.76,3.12-9.39,7.54-9.39c5.58,0,7.32,4.89,7.32,8.34c0,0.4,0,0.51-0.04,0.91H2366.91z M2380.36,1597.2c0-4.35-2.18-7.94-6.67-7.94c-3.99,0-6.53,3.3-6.74,7.94H2380.36z"></path> <path class="st3" d="M2399.68,1579.84v22.91c0,1.27,0.04,3.26,0.04,4.31h-0.69c-0.04-0.62-0.07-2.61-0.07-4.53 c-0.83,2.65-2.61,4.97-6.82,4.97c-3.92,0-7.43-3.08-7.43-9.24c0-6.53,3.77-9.64,7.9-9.64c4.46,0,5.91,3.08,6.34,4.28v-13.05 H2399.68z M2392.18,1606.81c4.46,0,6.85-3.04,6.85-9.13c0-5.33-2.1-8.37-6.49-8.37c-4.39,0-7.07,3.81-7.07,8.88 C2385.47,1603.62,2388.33,1606.81,2392.18,1606.81z"></path> <path class="st3" d="M2427.34,1602.31c-0.62,2.1-2.32,5.18-6.74,5.18c-3.99,0-7.5-2.97-7.5-9.21c0-6.45,3.62-9.68,7.9-9.68 c4.35,0,5.84,2.79,6.34,4.42c0-2.43,0.04-3.59,0.07-3.99h0.69c0,0.65-0.04,3.59-0.04,4.82v21.32h-0.73V1602.31z M2420.63,1606.81 c4.21,0,6.78-3.12,6.78-9.13c0-5.26-1.96-8.37-6.49-8.37c-4.39,0-7.07,3.77-7.07,8.92 C2413.85,1603.76,2416.75,1606.81,2420.63,1606.81z"></path> <path class="st3" d="M2447.68,1602.13c0,1.78,0.04,4.13,0.04,4.93h-0.72c-0.04-0.25-0.11-2.68-0.07-4.46 c-0.83,2.72-2.86,4.82-6.45,4.82c-2.54,0-6.24-1.16-6.24-6.78v-11.6h0.72v11.89c0,2.97,1.56,5.8,5.55,5.8 c3.73,0,6.42-2.54,6.42-7.79v-9.9h0.76V1602.13z"></path> <path class="st3" d="M2466.02,1603c0,2.28,0.11,3.59,0.18,4.06h-0.73c-0.07-0.58-0.18-1.74-0.18-4.02 c-0.98,3.05-3.26,4.46-6.56,4.46c-4.35,0-6.05-2.57-6.05-5.15c0-3.88,3.01-5.47,8.05-5.47c2.07,0,3.26,0,4.57,0.04v-2.54 c0-2.61-1.09-5.11-5.36-5.11c-3.99,0-5.37,1.99-5.62,4.75h-0.73c0.15-2.61,1.6-5.4,6.38-5.4c4.31,0,6.05,2.39,6.05,5.55V1603z M2465.3,1597.56c-1.23-0.04-2.72-0.04-4.6-0.04c-4.89,0-7.25,1.56-7.25,4.79c0,2.79,2.21,4.49,5.33,4.49 c4.21,0,6.53-2.57,6.53-7.5V1597.56z"></path> <path class="st3" d="M2472.33,1593.14c0-1.49,0-3.26-0.04-4.1h0.73c0.04,0.62,0.07,2.79,0.04,4.24c0.62-2.03,2.28-4.68,6.24-4.68 c3.05,0,4.86,1.74,5.47,4.28c0.54-1.52,2.14-4.28,6.24-4.28c3.23,0,5.91,1.96,5.91,6.67v11.78h-0.76v-11.71 c0-3.23-1.52-6.05-5.22-6.05c-3.84,0-5.95,2.79-5.95,6.6v11.17h-0.76v-11.82c0-3.44-1.59-5.95-5.04-5.95 c-3.59,0-6.13,2.9-6.13,7.79v9.97h-0.72V1593.14z"></path> <path class="st3" d="M2512.21,1607.06v-17.36h-3.23v-0.65h3.23v-3.08c0-3.3,0.51-6.49,4.21-6.49c0.69,0,1.34,0.11,1.67,0.29v0.69 c-0.4-0.18-1.05-0.33-1.67-0.33c-2.39,0-3.48,1.41-3.48,5.47v3.44h3.95v0.65h-3.95v17.36H2512.21z"></path> <path class="st3" d="M2519.28,1597.85c0,5.62,2.79,8.92,6.71,8.92c3.55,0,5.26-1.92,6.31-4.28h0.73c-1.09,2.83-3.15,4.93-7,4.93 c-5.55,0-7.47-4.97-7.47-9.43c0-5.76,3.12-9.39,7.54-9.39c5.58,0,7.32,4.89,7.32,8.34c0,0.4,0,0.51-0.04,0.91H2519.28z M2532.73,1597.2c0-4.35-2.17-7.94-6.67-7.94c-3.99,0-6.53,3.3-6.74,7.94H2532.73z"></path> <path class="st3" d="M2538.42,1595.21c0-3.95,0-5.04-0.04-6.16h0.69c0.07,0.91,0.07,2.97,0.07,5.22 c0.91-3.15,3.92-5.55,6.82-5.66v0.73c-3.7,0.14-6.82,3.84-6.82,8.01v9.72h-0.73V1595.21z"></path> <path class="st3" d="M2549.4,1593.14c0-1.49,0-3.26-0.04-4.1h0.73c0.04,0.62,0.07,2.79,0.04,4.24c0.62-2.03,2.28-4.68,6.24-4.68 c3.04,0,4.86,1.74,5.47,4.28c0.54-1.52,2.14-4.28,6.24-4.28c3.23,0,5.91,1.96,5.91,6.67v11.78h-0.76v-11.71 c0-3.23-1.52-6.05-5.22-6.05c-3.84,0-5.95,2.79-5.95,6.6v11.17h-0.76v-11.82c0-3.44-1.6-5.95-5.04-5.95 c-3.59,0-6.13,2.9-6.13,7.79v9.97h-0.72V1593.14z"></path> <path class="st3" d="M2579.6,1597.85c0,5.62,2.79,8.92,6.71,8.92c3.55,0,5.26-1.92,6.31-4.28h0.73c-1.09,2.83-3.15,4.93-7,4.93 c-5.55,0-7.47-4.97-7.47-9.43c0-5.76,3.12-9.39,7.54-9.39c5.58,0,7.32,4.89,7.32,8.34c0,0.4,0,0.51-0.04,0.91H2579.6z M2593.05,1597.2c0-4.35-2.17-7.94-6.67-7.94c-3.99,0-6.53,3.3-6.74,7.94H2593.05z"></path> <path class="st3" d="M2598.74,1593.43c0-1.78-0.04-3.99-0.04-4.39h0.73c0.04,0.83,0.07,2.39,0.04,4.53 c0.65-1.96,2.5-4.97,6.85-4.97c3.01,0,6.09,1.74,6.09,6.96v11.49h-0.76v-11.42c0-3.59-1.74-6.34-5.44-6.34 c-4.31,0-6.74,3.63-6.74,7.87v9.9h-0.73V1593.43z"></path> <path class="st3" d="M2615.6,1589.04h3.37v-5.98h0.72v5.98h4.5v0.65h-4.5v13.63c0,1.96,0.4,3.41,2.65,3.41 c0.47,0,1.12-0.04,1.45-0.18v0.65c-0.47,0.18-1.02,0.22-1.49,0.22c-2.39,0-3.33-1.05-3.33-4.28v-13.45h-3.37V1589.04z"></path> <path class="st3" d="M2640.68,1602.13c0,1.78,0.04,4.13,0.04,4.93H2640c-0.04-0.25-0.11-2.68-0.07-4.46 c-0.83,2.72-2.86,4.82-6.45,4.82c-2.54,0-6.24-1.16-6.24-6.78v-11.6h0.72v11.89c0,2.97,1.56,5.8,5.55,5.8 c3.73,0,6.42-2.54,6.42-7.79v-9.9h0.76V1602.13z"></path> <path class="st3" d="M2646.85,1593.14c0-1.49,0-3.26-0.04-4.1h0.73c0.04,0.62,0.07,2.79,0.04,4.24c0.62-2.03,2.28-4.68,6.24-4.68 c3.04,0,4.86,1.74,5.47,4.28c0.54-1.52,2.14-4.28,6.24-4.28c3.23,0,5.91,1.96,5.91,6.67v11.78h-0.76v-11.71 c0-3.23-1.52-6.05-5.22-6.05c-3.84,0-5.95,2.79-5.95,6.6v11.17h-0.76v-11.82c0-3.44-1.6-5.95-5.04-5.95 c-3.59,0-6.13,2.9-6.13,7.79v9.97h-0.72V1593.14z"></path> <path class="st3" d="M2699.3,1602.17c-1.09,3.81-3.55,5.33-6.85,5.33c-4.71,0-7.61-3.63-7.61-9.43c0-5.69,3.19-9.46,7.79-9.46 c3.95,0,6.09,2.68,6.67,5.47h-0.76c-0.72-2.72-2.47-4.82-5.98-4.82c-4.64,0-6.96,4.13-6.96,8.81c0,5,2.28,8.77,6.89,8.77 c3.12,0,5.11-1.67,6.09-4.68H2699.3z"></path> <path class="st3" d="M2718.48,1598.04c0,6.05-3.19,9.53-7.98,9.53c-4.75,0-7.79-3.66-7.79-9.46c0-6.24,3.52-9.57,7.98-9.57 C2715.11,1588.54,2718.48,1592.02,2718.48,1598.04z M2703.47,1598.07c0,4.78,2.39,8.85,7.03,8.85c4.68,0,7.21-3.81,7.21-8.85 c0-4.86-2.5-8.88-7.11-8.88C2705.94,1589.19,2703.47,1593.32,2703.47,1598.07z"></path> <path class="st3" d="M2723.38,1593.14c0-1.49,0-3.26-0.04-4.1h0.73c0.04,0.62,0.07,2.79,0.04,4.24c0.62-2.03,2.28-4.68,6.24-4.68 c3.04,0,4.86,1.74,5.47,4.28c0.54-1.52,2.14-4.28,6.24-4.28c3.23,0,5.91,1.96,5.91,6.67v11.78h-0.76v-11.71 c0-3.23-1.52-6.05-5.22-6.05c-3.84,0-5.94,2.79-5.94,6.6v11.17h-0.76v-11.82c0-3.44-1.6-5.95-5.04-5.95 c-3.59,0-6.13,2.9-6.13,7.79v9.97h-0.73V1593.14z"></path> <path class="st3" d="M2754.26,1593.14c0-1.49,0-3.26-0.04-4.1h0.73c0.04,0.62,0.07,2.79,0.04,4.24c0.62-2.03,2.28-4.68,6.24-4.68 c3.04,0,4.86,1.74,5.47,4.28c0.54-1.52,2.14-4.28,6.24-4.28c3.23,0,5.91,1.96,5.91,6.67v11.78h-0.76v-11.71 c0-3.23-1.52-6.05-5.22-6.05c-3.84,0-5.95,2.79-5.95,6.6v11.17h-0.76v-11.82c0-3.44-1.6-5.95-5.04-5.95 c-3.59,0-6.13,2.9-6.13,7.79v9.97h-0.72V1593.14z"></path> <path class="st3" d="M2799.51,1598.04c0,6.05-3.19,9.53-7.98,9.53c-4.75,0-7.79-3.66-7.79-9.46c0-6.24,3.52-9.57,7.98-9.57 C2796.13,1588.54,2799.51,1592.02,2799.51,1598.04z M2784.5,1598.07c0,4.78,2.39,8.85,7.03,8.85c4.68,0,7.21-3.81,7.21-8.85 c0-4.86-2.5-8.88-7.1-8.88C2786.96,1589.19,2784.5,1593.32,2784.5,1598.07z"></path> <path class="st3" d="M2818.1,1579.84v22.91c0,1.27,0.04,3.26,0.04,4.31h-0.69c-0.04-0.62-0.07-2.61-0.07-4.53 c-0.83,2.65-2.61,4.97-6.82,4.97c-3.92,0-7.43-3.08-7.43-9.24c0-6.53,3.77-9.64,7.9-9.64c4.46,0,5.91,3.08,6.34,4.28v-13.05 H2818.1z M2810.6,1606.81c4.46,0,6.85-3.04,6.85-9.13c0-5.33-2.1-8.37-6.49-8.37c-4.39,0-7.07,3.81-7.07,8.88 C2803.89,1603.62,2806.76,1606.81,2810.6,1606.81z"></path> <path class="st3" d="M2838.77,1598.04c0,6.05-3.19,9.53-7.98,9.53c-4.75,0-7.79-3.66-7.79-9.46c0-6.24,3.52-9.57,7.98-9.57 C2835.4,1588.54,2838.77,1592.02,2838.77,1598.04z M2823.76,1598.07c0,4.78,2.39,8.85,7.03,8.85c4.68,0,7.21-3.81,7.21-8.85 c0-4.86-2.5-8.88-7.11-8.88C2826.22,1589.19,2823.76,1593.32,2823.76,1598.07z"></path> <path class="st3" d="M2841.96,1607.06V1603h0.72v4.06H2841.96z"></path> <path class="st3" d="M2031.21,1642.77h8.52c4.42,0,7.65,2.46,7.65,6.85c0,4.46-2.97,6.85-8.05,6.85h-7.4v11.82h-0.72V1642.77z M2031.94,1655.82h7.5c3.84,0,7.18-1.52,7.18-6.16c0-3.44-2.36-6.24-6.92-6.24h-7.76V1655.82z"></path> <path class="st3" d="M2051.01,1659.08c0,5.62,2.79,8.92,6.71,8.92c3.55,0,5.26-1.92,6.31-4.28h0.73c-1.09,2.83-3.15,4.93-7,4.93 c-5.55,0-7.47-4.97-7.47-9.43c0-5.76,3.12-9.39,7.54-9.39c5.58,0,7.32,4.89,7.32,8.34c0,0.4,0,0.51-0.04,0.91H2051.01z M2064.46,1658.43c0-4.35-2.18-7.94-6.67-7.94c-3.99,0-6.53,3.3-6.74,7.94H2064.46z"></path> <path class="st3" d="M2070.19,1668.29v-27.23h0.73v27.23H2070.19z"></path> <path class="st3" d="M2077.22,1668.29v-27.23h0.73v27.23H2077.22z"></path> <path class="st3" d="M2083.56,1659.08c0,5.62,2.79,8.92,6.71,8.92c3.55,0,5.26-1.92,6.31-4.28h0.73c-1.09,2.83-3.15,4.93-7,4.93 c-5.55,0-7.47-4.97-7.47-9.43c0-5.76,3.12-9.39,7.54-9.39c5.58,0,7.32,4.89,7.32,8.34c0,0.4,0,0.51-0.04,0.91H2083.56z M2097.01,1658.43c0-4.35-2.18-7.94-6.67-7.94c-3.99,0-6.53,3.3-6.74,7.94H2097.01z"></path> <path class="st3" d="M2102.7,1654.66c0-1.78-0.04-3.99-0.04-4.39h0.72c0.04,0.83,0.07,2.39,0.04,4.53 c0.65-1.96,2.5-4.97,6.85-4.97c3.01,0,6.09,1.74,6.09,6.96v11.49h-0.76v-11.42c0-3.59-1.74-6.34-5.44-6.34 c-4.31,0-6.74,3.63-6.74,7.87v9.9h-0.72V1654.66z"></path> <path class="st3" d="M2119.56,1650.27h3.37v-5.98h0.73v5.98h4.49v0.65h-4.49v13.63c0,1.96,0.4,3.41,2.65,3.41 c0.47,0,1.12-0.04,1.45-0.18v0.65c-0.47,0.18-1.02,0.22-1.49,0.22c-2.39,0-3.33-1.05-3.33-4.28v-13.45h-3.37V1650.27z"></path> <path class="st3" d="M2130.84,1659.08c0,5.62,2.79,8.92,6.71,8.92c3.55,0,5.26-1.92,6.31-4.28h0.73c-1.09,2.83-3.15,4.93-7,4.93 c-5.55,0-7.47-4.97-7.47-9.43c0-5.76,3.12-9.39,7.54-9.39c5.58,0,7.32,4.89,7.32,8.34c0,0.4,0,0.51-0.04,0.91H2130.84z M2144.28,1658.43c0-4.35-2.18-7.94-6.67-7.94c-3.99,0-6.53,3.3-6.74,7.94H2144.28z"></path> <path class="st3" d="M2148.89,1663.5c0.62,3.04,2.39,4.57,5.95,4.57c3.66,0,5.4-1.89,5.4-4.17c0-2.32-0.94-3.63-5.58-4.86 c-4.53-1.2-5.55-2.5-5.55-4.82c0-2.28,1.74-4.39,5.58-4.39c3.7,0,5.69,2.18,5.98,4.89h-0.73c-0.29-1.99-1.59-4.24-5.29-4.24 c-3.48,0-4.82,1.81-4.82,3.66c0,2.1,0.98,3.23,5.11,4.28c4.71,1.2,6.05,2.76,6.05,5.4c0,3.01-2.43,4.89-6.16,4.89 c-4.24,0-6.16-2.03-6.67-5.22H2148.89z"></path> <path class="st3" d="M2178.87,1663.54c-0.62,2.1-2.32,5.18-6.74,5.18c-3.99,0-7.5-2.97-7.5-9.21c0-6.45,3.62-9.68,7.9-9.68 c4.35,0,5.84,2.79,6.34,4.42c0-2.43,0.04-3.59,0.07-3.99h0.69c0,0.65-0.04,3.59-0.04,4.82v21.32h-0.72V1663.54z M2172.16,1668.04 c4.21,0,6.78-3.12,6.78-9.13c0-5.26-1.96-8.37-6.49-8.37c-4.39,0-7.07,3.77-7.07,8.92 C2165.38,1664.99,2168.28,1668.04,2172.16,1668.04z"></path> <path class="st3" d="M2199.21,1663.36c0,1.78,0.04,4.13,0.04,4.93h-0.72c-0.04-0.25-0.11-2.68-0.07-4.46 c-0.83,2.72-2.86,4.82-6.45,4.82c-2.54,0-6.24-1.16-6.24-6.78v-11.6h0.72v11.89c0,2.97,1.56,5.8,5.55,5.8 c3.73,0,6.42-2.54,6.42-7.79v-9.9h0.76V1663.36z"></path> <path class="st3" d="M2204.83,1659.08c0,5.62,2.79,8.92,6.71,8.92c3.55,0,5.26-1.92,6.31-4.28h0.72c-1.09,2.83-3.15,4.93-7,4.93 c-5.55,0-7.47-4.97-7.47-9.43c0-5.76,3.12-9.39,7.54-9.39c5.58,0,7.32,4.89,7.32,8.34c0,0.4,0,0.51-0.04,0.91H2204.83z M2218.28,1658.43c0-4.35-2.17-7.94-6.67-7.94c-3.99,0-6.53,3.3-6.74,7.94H2218.28z"></path> <path class="st3" d="M2244.41,1664.23c0,2.28,0.11,3.59,0.18,4.06h-0.73c-0.07-0.58-0.18-1.74-0.18-4.02 c-0.98,3.05-3.26,4.46-6.56,4.46c-4.35,0-6.05-2.57-6.05-5.15c0-3.88,3.01-5.47,8.05-5.47c2.07,0,3.26,0,4.57,0.04v-2.54 c0-2.61-1.09-5.11-5.37-5.11c-3.99,0-5.37,1.99-5.62,4.75h-0.73c0.15-2.61,1.6-5.4,6.38-5.4c4.31,0,6.05,2.39,6.05,5.55V1664.23z M2243.69,1658.79c-1.23-0.04-2.72-0.04-4.6-0.04c-4.89,0-7.25,1.56-7.25,4.79c0,2.79,2.21,4.49,5.33,4.49 c4.21,0,6.53-2.57,6.53-7.5V1658.79z"></path> <path class="st3" d="M2247.75,1650.27h3.37v-5.98h0.72v5.98h4.5v0.65h-4.5v13.63c0,1.96,0.4,3.41,2.65,3.41 c0.47,0,1.12-0.04,1.45-0.18v0.65c-0.47,0.18-1.01,0.22-1.49,0.22c-2.39,0-3.33-1.05-3.33-4.28v-13.45h-3.37V1650.27z"></path> <path class="st3" d="M2265.44,1650.27h3.37v-5.98h0.72v5.98h4.5v0.65h-4.5v13.63c0,1.96,0.4,3.41,2.65,3.41 c0.47,0,1.12-0.04,1.45-0.18v0.65c-0.47,0.18-1.01,0.22-1.49,0.22c-2.39,0-3.33-1.05-3.33-4.28v-13.45h-3.37V1650.27z"></path> <path class="st3" d="M2276.71,1659.08c0,5.62,2.79,8.92,6.71,8.92c3.55,0,5.26-1.92,6.31-4.28h0.72c-1.09,2.83-3.15,4.93-7,4.93 c-5.55,0-7.47-4.97-7.47-9.43c0-5.76,3.12-9.39,7.54-9.39c5.58,0,7.32,4.89,7.32,8.34c0,0.4,0,0.51-0.04,0.91H2276.71z M2290.16,1658.43c0-4.35-2.18-7.94-6.67-7.94c-3.99,0-6.53,3.3-6.74,7.94H2290.16z"></path> <path class="st3" d="M2295.89,1668.29v-27.23h0.72v27.23H2295.89z"></path> <path class="st3" d="M2302.92,1668.29v-27.23h0.72v27.23H2302.92z"></path> <path class="st3" d="M2323.26,1663.36c0,1.78,0.04,4.13,0.04,4.93h-0.73c-0.04-0.25-0.11-2.68-0.07-4.46 c-0.83,2.72-2.86,4.82-6.45,4.82c-2.54,0-6.24-1.16-6.24-6.78v-11.6h0.73v11.89c0,2.97,1.56,5.8,5.55,5.8 c3.73,0,6.42-2.54,6.42-7.79v-9.9h0.76V1663.36z"></path> <path class="st3" d="M2328.41,1663.5c0.62,3.04,2.39,4.57,5.94,4.57c3.66,0,5.4-1.89,5.4-4.17c0-2.32-0.94-3.63-5.58-4.86 c-4.53-1.2-5.55-2.5-5.55-4.82c0-2.28,1.74-4.39,5.58-4.39c3.7,0,5.69,2.18,5.98,4.89h-0.72c-0.29-1.99-1.6-4.24-5.29-4.24 c-3.48,0-4.82,1.81-4.82,3.66c0,2.1,0.98,3.23,5.11,4.28c4.71,1.2,6.05,2.76,6.05,5.4c0,3.01-2.43,4.89-6.16,4.89 c-4.24,0-6.16-2.03-6.67-5.22H2328.41z"></path> <path class="st3" d="M2353.64,1668.29v-27.23h0.72v27.23H2353.64z"></path> <path class="st3" d="M2360.67,1644.36v-3.3h0.73v3.3H2360.67z M2360.67,1650.27h0.73v18.02h-0.73V1650.27z"></path> <path class="st3" d="M2381.16,1667.67c0,5.76-1.81,9.03-7.69,9.03c-4.31,0-6.42-2.46-6.82-5.18h0.73 c0.54,2.65,2.57,4.53,6.13,4.53c5.4,0,6.92-3.01,6.92-8.48v-3.99c-0.94,3.08-3.15,4.71-6.6,4.71c-4.24,0-7.5-3.33-7.5-8.99 c0-6.31,3.88-9.46,7.83-9.46s5.73,2.25,6.31,4.39c0-1.99,0.04-3.7,0.04-3.95h0.69c0,0.44-0.04,2.54-0.04,4.89V1667.67z M2373.87,1667.6c5.4,0,6.6-4.28,6.6-8.66c0-3.59-0.58-8.41-6.34-8.41c-4.31,0-7.03,3.66-7.03,8.74 C2367.09,1664.59,2370.13,1667.6,2373.87,1667.6z"></path> <path class="st3" d="M2400.77,1663.36c0,1.78,0.04,4.13,0.04,4.93h-0.72c-0.04-0.25-0.11-2.68-0.07-4.46 c-0.83,2.72-2.86,4.82-6.45,4.82c-2.54,0-6.24-1.16-6.24-6.78v-11.6h0.72v11.89c0,2.97,1.56,5.8,5.55,5.8 c3.73,0,6.42-2.54,6.42-7.79v-9.9h0.76V1663.36z"></path> <path class="st3" d="M2406.93,1668.29v-27.23h0.73v27.23H2406.93z"></path> <path class="st3" d="M2425.89,1664.23c0,2.28,0.11,3.59,0.18,4.06h-0.73c-0.07-0.58-0.18-1.74-0.18-4.02 c-0.98,3.05-3.26,4.46-6.56,4.46c-4.35,0-6.05-2.57-6.05-5.15c0-3.88,3.01-5.47,8.05-5.47c2.07,0,3.26,0,4.57,0.04v-2.54 c0-2.61-1.09-5.11-5.37-5.11c-3.99,0-5.37,1.99-5.62,4.75h-0.72c0.15-2.61,1.59-5.4,6.38-5.4c4.31,0,6.05,2.39,6.05,5.55V1664.23 z M2425.17,1658.79c-1.23-0.04-2.72-0.04-4.6-0.04c-4.89,0-7.25,1.56-7.25,4.79c0,2.79,2.21,4.49,5.33,4.49 c4.21,0,6.53-2.57,6.53-7.5V1658.79z"></path> <path class="st3" d="M2430.78,1668.29v-4.06h0.72v4.06H2430.78z"></path> </g> <g class="st2"> <g> <path class="st3" d="M2403.37,1806.39c-1.48,5.15-5.24,8.96-12.09,8.96c-9.13,0-13.84-7.12-13.84-15.94 c0-8.46,4.66-16.12,13.93-16.12c7.03,0,11.02,3.94,12,9.18h-3.18c-1.3-3.76-3.76-6.4-8.96-6.4c-7.39,0-10.43,6.72-10.43,13.3 c0,6.45,2.96,13.21,10.61,13.21c4.97,0,7.34-2.69,8.73-6.18H2403.37z"></path> <path class="st3" d="M2409.81,1783.74h3.18v28.43h16.57l-0.49,2.82h-19.26V1783.74z"></path> <path class="st3" d="M2437.44,1783.74v31.26h-3.18v-31.26H2437.44z"></path> <path class="st3" d="M2470.13,1806.39c-1.48,5.15-5.24,8.96-12.09,8.96c-9.14,0-13.84-7.12-13.84-15.94 c0-8.46,4.66-16.12,13.93-16.12c7.03,0,11.02,3.94,12,9.18h-3.18c-1.3-3.76-3.76-6.4-8.96-6.4c-7.39,0-10.43,6.72-10.43,13.3 c0,6.45,2.96,13.21,10.61,13.21c4.97,0,7.34-2.69,8.73-6.18H2470.13z"></path> <path class="st3" d="M2476.57,1783.74h3.18v15.85c2.42-2.42,10.93-10.57,16.21-15.85h4.08l-13.75,13.25l14.51,18h-3.94 l-12.85-15.94l-4.25,3.81v12.13h-3.18V1783.74z"></path> </g> <g id="join_link"> <path class="st3" d="M2516.87,1844.13h-157.96c-20.56,0-37.28-16.73-37.28-37.28v-10c0-20.56,16.73-37.28,37.28-37.28h157.96 c20.56,0,37.28,16.73,37.28,37.28v10C2554.15,1827.41,2537.43,1844.13,2516.87,1844.13z M2358.91,1761.74 c-19.36,0-35.11,15.75-35.11,35.11v10c0,19.36,15.75,35.11,35.11,35.11h157.96c19.36,0,35.11-15.75,35.11-35.11v-10 c0-19.36-15.75-35.11-35.11-35.11H2358.91z"></path> </g> </g> <g class="st2"> <path d="M2077.82,1177.7v81.98h-18.56v-179.93h67.28c36.09,0,55.17,19.59,55.17,47.69c0,23.2-13.4,37.64-32.22,42.28 c16.76,4.12,29.39,15.72,29.39,46.66v7.22c0,12.37-1.03,28.87,2.32,36.09h-18.3c-3.35-7.73-2.84-21.91-2.84-38.15v-4.12 c0-27.84-7.99-39.7-41.5-39.7H2077.82z M2077.82,1161.71h41.5c29.64,0,43.05-11.09,43.05-33.25c0-20.88-13.4-32.74-39.7-32.74 h-44.85V1161.71z"></path> <path d="M2333.02,1173.06h-90.74v70.38h99.51l-2.58,16.24h-115.23v-179.93h113.43v16.24h-95.12v60.84h90.74V1173.06z"></path> <path d="M2375.81,1079.74h112.14v16.24h-93.83v63.67h87.9v16.24h-87.9v83.78h-18.3V1079.74z"></path> <path d="M2627.91,1173.06h-90.74v70.38h99.51l-2.58,16.24h-115.23v-179.93h113.43v16.24h-95.12v60.84h90.74V1173.06z"></path> <path d="M2689.26,1177.7v81.98h-18.56v-179.93h67.28c36.09,0,55.17,19.59,55.17,47.69c0,23.2-13.4,37.64-32.22,42.28 c16.76,4.12,29.39,15.72,29.39,46.66v7.22c0,12.37-1.03,28.87,2.32,36.09h-18.3c-3.35-7.73-2.84-21.91-2.84-38.15v-4.12 c0-27.84-7.99-39.7-41.5-39.7H2689.26z M2689.26,1161.71h41.5c29.64,0,43.05-11.09,43.05-33.25c0-20.88-13.4-32.74-39.7-32.74 h-44.85V1161.71z"></path> <path class="st3" d="M2062.65,1390.34l-14.68,40.15h-12.73l44.75-123.45h15.39l46.52,123.45h-13.62l-14.86-40.15H2062.65z M2109.7,1379.2c-12.91-34.84-19.63-52.18-22.11-61.02h-0.18c-3.01,9.9-10.79,31.31-21.05,61.02H2109.7z"></path> <path class="st3" d="M2208.21,1307.04h76.94v11.14h-64.38v43.69h60.31v11.14h-60.31v57.48h-12.56V1307.04z"></path> <path class="st3" d="M2319.1,1374.25v56.24h-12.74v-123.45h46.16c24.76,0,37.85,13.44,37.85,32.72c0,15.92-9.2,25.82-22.11,29.01 c11.5,2.83,20.16,10.79,20.16,32.01v4.95c0,8.49-0.71,19.81,1.59,24.76h-12.56c-2.3-5.31-1.95-15.03-1.95-26.18v-2.83 c0-19.1-5.48-27.24-28.48-27.24H2319.1z M2319.1,1363.28h28.47c20.34,0,29.54-7.6,29.54-22.82c0-14.33-9.2-22.46-27.24-22.46 h-30.77V1363.28z"></path> <path class="st3" d="M2431.93,1307.04v123.45h-12.56v-123.45H2431.93z"></path> <path class="st3" d="M2541.94,1371.06h-62.26v48.28h68.27l-1.77,11.14h-79.06v-123.45h77.82v11.14h-65.26v41.74h62.26V1371.06z"></path> <path class="st3" d="M2571.29,1430.49v-123.45h17.51c18.57,29.36,60.66,94.8,68.09,108.24h0.18 c-1.06-16.98-0.88-35.73-0.88-55.89v-52.35h12.2v123.45h-16.27c-17.51-27.77-60.67-96.92-68.98-110.72h-0.35 c0.88,15.21,0.88,34.67,0.88,56.95v53.77H2571.29z"></path> <path class="st3" d="M2703.58,1307.04h42.45c34.14,0,57.66,23.7,57.66,60.49c0,36.79-22.99,62.96-58.01,62.96h-42.09V1307.04z M2716.14,1419.35h28.12c30.95,0,45.99-21.93,45.99-51.29c0-25.82-13.62-49.88-45.99-49.88h-28.12V1419.35z"></path> </g> </g> <g id="friends"> <g id="businessman"> <g> <defs> <path id="SVGID_1_" d="M1777.56,49.09h-334.96c-87.49,0-159.07,71.58-159.07,159.07v87.07c0,87.49,71.58,159.07,159.07,159.07 h7.44c-5.02,43.97-22.11,86.41-46.18,124.09c-2.96,4.63,2.66,9.91,7.14,6.73c48.74-34.61,90.15-79.5,120.79-130.82h245.77 c87.49,0,159.07-71.58,159.07-159.07v-87.07C1936.63,120.67,1865.05,49.09,1777.56,49.09z"></path> </defs> <use xlink:href="#SVGID_1_" style="overflow:visible;fill:#E95E37;"></use> <clipPath id="SVGID_2_"> <use xlink:href="#SVGID_1_" style="overflow:visible;"></use> </clipPath> </g> <g> <path class="st4" d="M1522.39,454.08c6.58-37.13,11.51-69.37,11.46-84.38c-0.16-44.42-76.37-41.85-92.8,8.19 c0,0-3.92,33.41-9.13,76.19H1522.39z"></path> <path class="st4" d="M1777.52,454.08c-5.22-42.78-9.13-76.19-9.13-76.19c-16.43-50.04-92.64-52.61-92.8-8.19 c-0.05,15.01,4.88,47.25,11.46,84.38H1777.52z"></path> <g> <path class="st4" d="M1737.02,454.08c-1.21-55.37-2.31-96.18-3.06-102.16c-1.87-14.97-40.01-18.38-61.87-27.18 c-9.44-3.8-19.52-5.73-29.69-5.73h-75.14c-10.26,0-20.42,1.95-29.92,5.82c-21.7,8.83-59.25,12.17-61.11,27.08 c-0.75,6.02-1.94,46.89-3.24,102.16H1737.02z"></path> <g> <g> <g> <polygon class="st5" points="1568.45,268.42 1568.45,295.49 1568.45,349.01 1638.97,349.01 1638.97,284.35 1638.97,268.42 "></polygon> <path class="st6" d="M1638.97,268.42h-70.52v27.08v19.58c25.05-1.87,50.1-9.78,70.52-24.82v-5.9V268.42z"></path> </g> <path class="st5" d="M1664.16,333.81c0,11.98-60.49,32.22-60.49,32.22s-60.49-20.23-60.49-32.22 c0-11.98,27.08-15.78,60.49-15.78C1637.08,318.03,1664.16,321.83,1664.16,333.81z"></path> </g> <g> <g> <g> <g> <g> <path class="st5" d="M1493.24,205.34c0.08-0.88,0.19-1.75,0.31-2.61c0.6-4.27,1.75-8.8,4.98-11.7 c3.27-2.94,7.99-3.56,12.35-3.42c11.28,0.37,22.26,5.13,30.26,12.95c-3.33,10.86-11.16,22.2-22.46,25.79 c-9.02,2.86-20.2-0.59-24.01-9.14C1493.04,213.54,1492.87,209.4,1493.24,205.34z"></path> </g> </g> <g> <g> <path class="st5" d="M1708.21,205.34c-0.08-0.88-0.19-1.75-0.31-2.61c-0.6-4.27-1.75-8.8-4.98-11.7 c-3.27-2.94-7.99-3.56-12.35-3.42c-11.28,0.37-22.26,5.13-30.26,12.95c3.33,10.86,11.16,22.2,22.46,25.79 c9.02,2.86,20.2-0.59,24.01-9.14C1708.41,213.54,1708.58,209.4,1708.21,205.34z"></path> </g> </g> </g> <path class="st5" d="M1527.61,206.59c-1.19,42.98,33.94,85.17,71.83,86.22c37.89,1.05,75.29-39.13,76.48-82.11 c0.04-1.43,2.68-58.9,2.68-58.9c1.08-38.92-24.58-71.24-63.46-72.32l-19.91-0.55c-38.83-1.08-71.19,29.53-72.34,68.39 C1522.24,169.03,1527.65,204.93,1527.61,206.59z"></path> <path class="st7" d="M1546.85,221.98c-6.35-39.7-5.19-79.4-6.47-119.11c-10.46,11.9-16.99,27.38-17.49,44.45 c-0.64,21.7,4.77,57.6,4.73,59.27c-1.19,42.98,33.94,85.17,71.83,86.22c9.33,0.26,18.63-1.99,27.37-6.16 C1589.07,287.2,1552.59,260.75,1546.85,221.98z"></path> </g> <path class="st7" d="M1612.32,218.95c-2.08,4.81-8.43,7.19-13.15,4.71c-1.84-0.97-3.33,1.9-1.48,2.87 c6.18,3.25,14.72,0.34,17.51-6.1c0.35-0.8,0.12-1.76-0.7-2.18C1613.76,217.87,1612.67,218.14,1612.32,218.95L1612.32,218.95z "></path> <g> <path class="st3" d="M1612.31,233.88c2.12-0.4,4.21-0.93,6.26-1.58c2.77-0.88,5.53-2,8.46-2.09 c2.93-0.09,6.15,1.12,7.38,3.7c0.98,2.05,0.46,4.54-0.82,6.41c-1.28,1.87-3.21,3.22-5.19,4.4 c-8.46,5.01-18.54,9.97-28.51,9.41c-9.05-2.1-17.49-6.68-24.05-13.08c-1.99-1.94-3.92-7.62-2.21-9.75 c1.73-2.17,5.27-1.14,7.94-0.12C1591.28,234.9,1602.11,235.82,1612.31,233.88z"></path> </g> <g> <path class="st8" d="M1545.52,185.47c9.09-5.18,19.11-4.06,29.12-1.97c1.64,0.35,1.92-3.66,0.64-5.74l0,0 c-1.28-2.07-3.35-3.98-4.61-4.12c-7.99-1.04-15.84,0.88-22.82,5.56c-1.09,0.74-2.64,2.88-3.49,4.66l0,0 C1543.53,185.64,1544.03,186.31,1545.52,185.47z"></path> <g> <g> <g> <g> <path class="st6" d="M1563.21,211.78l-0.95,0.02c-2.77,0.07-5.1-2.14-5.18-4.91l-0.28-10.69 c-0.07-2.77,2.14-5.1,4.91-5.18l0.95-0.02c2.77-0.07,5.1,2.14,5.18,4.91l0.28,10.69 C1568.19,209.38,1565.98,211.71,1563.21,211.78z"></path> </g> </g> </g> </g> <path class="st8" d="M1652.47,185.47c-9.09-5.18-19.11-4.06-29.12-1.97c-1.64,0.35-1.92-3.66-0.64-5.74l0,0 c1.28-2.07,3.35-3.98,4.61-4.12c7.99-1.04,15.84,0.88,22.82,5.56c1.09,0.74,2.64,2.88,3.49,4.66l0,0 C1654.46,185.64,1653.96,186.31,1652.47,185.47z"></path> <g> <g> <g> <g> <path class="st6" d="M1634.78,211.78l0.95,0.02c2.77,0.07,5.1-2.14,5.18-4.91l0.28-10.69c0.07-2.77-2.14-5.1-4.91-5.18 l-0.95-0.02c-2.77-0.07-5.1,2.14-5.18,4.91l-0.28,10.69C1629.8,209.38,1632.01,211.71,1634.78,211.78z"></path> </g> </g> </g> </g> </g> <g> <g> <path class="st8" d="M1696.82,175.27c-0.85,0.62-1.75,1.17-2.68,1.66c-4.9,2.54-10.72,3.19-16.19,2.12 c0.68,12.12-2.14,51.04-5.27,50.59c-1.52-0.22-2.7-7.74-3.03-13.85c-0.65-12.12-0.43-19.91-1.47-29.48 c-1.49-0.55-2.89-1.31-4.14-2.29c-3.88-3.03-5.93-7.85-5.94-12.64c-14.43-0.95-28.64-5-41.15-12.01 c-6.73-3.77-13.09-8.46-17.46-14.68c-1.09-1.55-2.05-3.21-2.84-4.94c-0.02,0.02-0.04,0.03-0.06,0.05 c-7.38,5.32-18.41,5.1-25.74-0.2c-0.82,5.16-3.06,10.1-6.64,14.02c-6.89,7.56-22.04,11.06-32.16,8.82 c-0.59,20.13,2.57,40.05,1.98,60.18c-0.08,2.62-2.66,5.46-3.66,7.9c-1,2.44-14.42-62.41-16.55-91.97 c-4.28-0.41-8.49-1.26-12.5-2.75c-8.5-3.15-16.08-9.52-18.72-17.92c-2.75-8.76,0.28-18.58,6.26-25.7 c4.21-5.01,9.7-8.83,15.68-11.77c-0.42-2.73-0.25-5.55,0.58-8.18c2.31-7.37,8.98-13.02,16.53-15.52 c5.83-1.93,12.11-2.17,18.25-1.33c4.05-10.18,11.95-19.21,21.72-24.85c17.19-9.93,38.7-10.76,58.3-6.74 c14.07,2.89,27.61,8.14,39.85,15.42c5.3-2.12,11.09-3.12,16.82-2.83c9.32,0.46,18.42,4.32,25.07,10.62 c2.6,2.46,4.91,5.47,5.27,8.96c0.13,1.31-0.1,2.68-0.64,3.91c3.78,2.65,6.83,6.25,8.57,10.44 c2.88,6.91,2.05,15.05-1.78,21.49c5.65,3.18,10.56,7.42,13.95,12.78c6.24,9.87,6.51,22.85,1.21,33.22 c-4.58,8.98-13.09,15.89-22.88,19.24c0.06,0.49,0.1,0.98,0.12,1.47C1705.71,164.98,1702.21,171.36,1696.82,175.27z"></path> </g> </g> <g> <path class="st9" d="M1679.72,65.05c7,8.68,5.55,22.29,1.97,25.17s-2.42-9.81-9.43-18.49s-19.51-10.06-15.93-12.94 S1672.72,56.37,1679.72,65.05z"></path> <path class="st9" d="M1534.69,75.81c7.38-5.41,18.47-3.71,20.7-0.68c2.23,3.04-8.13,1.62-15.51,7.03 c-7.38,5.41-8.97,15.61-11.2,12.57C1526.45,91.7,1527.32,81.23,1534.69,75.81z"></path> <path class="st9" d="M1684.49,105.24c0,2.63-1.09,4.76-2.43,4.76c-1.34,0-2.43-2.13-2.43-4.76c0-2.63,1.09-4.76,2.43-4.76 C1683.4,100.48,1684.49,102.61,1684.49,105.24z"></path> </g> </g> </g> <g> <g> <g> <g> <polygon class="st10" points="1604.13,362.36 1632.76,361.17 1620.61,404.71 1587.65,404.71 1575.5,361.17 "></polygon> </g> <g> <polygon class="st10" points="1625.89,454.08 1620.61,403.96 1587.65,403.96 1583.13,454.08 "></polygon> </g> </g> </g> <path class="st3" d="M1639.05,318.13c0,0,0.73,18.18-2.19,24.27c-3.21,6.68-29.22,19.8-29.22,19.8s25.97,13.96,27.6,19.15 c1.62,5.19,13.64,28.24,13.64,28.24s23.37-62.98,23.05-74.99c-0.32-12.01-25.97-19.15-25.97-19.15L1639.05,318.13z"></path> <path class="st3" d="M1568.44,318.13c0,0-0.73,18.18,2.19,24.27c3.21,6.68,29.22,19.8,29.22,19.8s-25.97,13.96-27.6,19.15 c-1.62,5.19-13.64,28.24-13.64,28.24s-23.37-62.98-23.05-74.99c0.32-12.01,25.97-19.15,25.97-19.15L1568.44,318.13z"></path> </g> </g> </g> </g> <g id="man_1_"> <g> <defs> <path id="SVGID_3_" d="M506.81,573.61H180.42c-85.25,0-155,69.75-155,155v84.84c0,85.25,69.75,155,155,155h141.69 c8.92,29.48,21.99,57.71,38.72,83.57c2.91,4.5,9.91,1.9,9.16-3.4c-2.45-17.18-1.62-34.93,1.25-52.11 c1.58-9.47,3.77-18.81,6.32-28.06h129.25c85.25,0,155-69.75,155-155v-84.84C661.81,643.36,592.06,573.61,506.81,573.61z"></path> </defs> <use xlink:href="#SVGID_3_" style="overflow:visible;fill:#65C8D0;"></use> <clipPath id="SVGID_4_"> <use xlink:href="#SVGID_3_" style="overflow:visible;"></use> </clipPath> </g> <g id="man"> <path class="st11" d="M487.22,968.44c-2.64-23.79-7.23-46.86-15.14-61.04c-22.12-39.66-104.87-55.02-152.77-55.02 c-47.9,0-109.17,14.48-131.49,37.2c-9.92,10.1-15.76,44.15-19.19,78.86H487.22z"></path> <path class="st3" d="M236.81,895.8c13,19,34.12,24.53,55,27c39.11,4.63,84.79,5.15,107-22c8.77-10.72,9.18-24.28,5.57-36.07 c-29.18-8.59-61.38-12.35-85.06-12.35c-25.89,0-55.69,4.23-81.13,11.71C231.84,873.99,229.6,885.97,236.81,895.8z"></path> <g> <rect x="269.64" y="775.57" class="st5" width="97.05" height="118.81"></rect> <path class="st6" d="M269.64,775.57v59.62c32.98,8.43,72.32,3.55,97.05-21.24v-38.38H269.64z"></path> <path class="st5" d="M386.3,880.15c0,18.95-42.82,27.5-65.26,27.5c-22.44,0-66.93-8.56-66.93-27.5 c0-18.95,27.56-28.88,64.06-28.88S386.3,861.21,386.3,880.15z"></path> </g> <g> <g> <g> <g> <g> <path class="st5" d="M198.7,725.87c0.09-0.96,0.2-1.91,0.34-2.86c0.66-4.67,1.91-9.62,5.45-12.79 c3.58-3.21,8.74-3.89,13.5-3.74c12.33,0.4,24.33,5.61,33.08,14.15c-3.64,11.87-12.2,24.28-24.55,28.19 c-9.86,3.13-22.09-0.65-26.25-9.99C198.48,734.83,198.29,730.31,198.7,725.87z"></path> </g> </g> <g> <g> <path class="st5" d="M433.73,725.87c-0.09-0.96-0.2-1.91-0.34-2.86c-0.66-4.67-1.91-9.62-5.45-12.79 c-3.58-3.21-8.74-3.89-13.5-3.74c-12.33,0.4-24.33,5.61-33.08,14.15c3.64,11.87,12.2,24.28,24.55,28.19 c9.86,3.13,22.09-0.65,26.25-9.99C433.94,734.83,434.14,730.31,433.73,725.87z"></path> </g> </g> </g> <path class="st5" d="M236.27,727.24c-1.3,47,37.1,93.12,78.53,94.27c41.43,1.15,82.32-42.78,83.62-89.78 c0.04-1.56,2.93-64.4,2.93-64.4c1.18-42.55-26.87-77.89-69.38-79.07l-21.77-0.6c-42.45-1.18-77.84,32.28-79.09,74.77 C230.4,686.17,236.32,725.42,236.27,727.24z"></path> <path class="st7" d="M260.47,776.8c-17.51-44.49-24.17-112.52-8.46-164.91c-12.47,13.25-20.33,30.93-20.91,50.55 c-0.7,23.73,5.22,62.98,5.17,64.8c-1.3,47,37.1,93.12,78.53,94.27c0.95,0.03,1.91,0,2.86-0.02 C295.55,809.34,268.94,798.32,260.47,776.8z"></path> </g> <path class="st7" d="M328.89,740.75c-2.28,5.26-9.21,7.87-14.38,5.15c-2.01-1.06-3.64,2.08-1.62,3.14 c6.75,3.55,16.09,0.37,19.14-6.67c0.38-0.88,0.13-1.92-0.76-2.38C330.47,739.57,329.27,739.87,328.89,740.75L328.89,740.75z"></path> <g> <path class="st12" d="M275.46,731.88L275.46,731.88c3.92,0,7.13-3.21,7.13-7.13v-8.15c0-3.92-3.21-7.13-7.13-7.13l0,0 c-3.92,0-7.13,3.21-7.13,7.13v8.15C268.33,728.67,271.54,731.88,275.46,731.88z"></path> <path class="st12" d="M359.97,731.88L359.97,731.88c-3.92,0-7.13-3.21-7.13-7.13v-8.15c0-3.92,3.21-7.13,7.13-7.13l0,0 c3.92,0,7.13,3.21,7.13,7.13v8.15C367.1,728.67,363.89,731.88,359.97,731.88z"></path> <path class="st12" d="M295.51,696.97c0.09-1.79-0.26-3.9-1.89-5.23c-1.18-0.96-2.75-1.26-4.21-1.44 c-12.29-1.5-24.08,2.23-34.02,8.89c2.09,1.11,4.23,2.1,6.38,3c11.16-4.1,29.31-0.61,30.67-0.32 C293.85,701.46,295.42,698.64,295.51,696.97z"></path> <path class="st12" d="M339.92,696.97c-0.09-1.79,0.26-3.9,1.89-5.23c1.18-0.96,2.75-1.26,4.21-1.44 c12.29-1.5,24.08,2.23,34.02,8.89c-2.09,1.11-4.23,2.1-6.38,3c-11.16-4.1-29.31-0.61-30.67-0.32 C341.58,701.46,340.01,698.64,339.92,696.97z"></path> </g> <g> <g> <path class="st13" d="M389.43,557.66c13.65,0.27,33.7,24.2,33.09,37.01c-0.91,19.17-20.06,140.41-20.06,140.41 c-1.41,3.76-4.68,3.82-7.08,0.67c-2.4-3.15,1.45-58.7-0.48-83.87c-12.21-6.18-25.63-16.46-32.46-28.76 c-2.32,1.96-4.8,3.72-7.42,5.25c-15.04,8.78-33.98,9.47-49.7,2.23c-8.02,7.47-16.53,14.26-25.96,19.57 c-13.44,7.56-29.22,11.75-44.14,9.83c0.54,22.8,1.64,72.53,0.39,73.97c-1.25,1.44-4.14,1.11-4.33-0.84 c0,0-29.42-126.3-11.32-157.12c24.35-41.44,151.22-71.74,162.12-56.41c10.89,15.34-4.54,38.34-4.54,38.34 S382.65,557.52,389.43,557.66z"></path> </g> <g> <g> <path class="st14" d="M354.73,582.93c10.17-2.83,20.21-6.75,30.06-11.97c-7.53,0.34-15.57,0.49-23.84,0.28 C359.41,575.38,357.27,579.27,354.73,582.93z"></path> </g> <g> <path class="st14" d="M315.2,565.49c-17.95-4.57-34.45-12.37-46.43-25.2c-19.95,8.97-37.19,19.87-46.18,31.83 c22.82,7.77,46.25,13.69,69.64,15.79C300.66,581.53,309.29,574.29,315.2,565.49z"></path> </g> <g> <path class="st14" d="M328.53,568.27c-4.37,7.71-10.46,14.41-17.2,20.45c7.62-0.04,15.21-0.52,22.76-1.55 c5.26-4.82,10.4-10.37,13.54-16.59C341.26,570.1,334.86,569.34,328.53,568.27z"></path> </g> </g> </g> <g> <path class="st13" d="M238.55,760.68c0,0,99.92-20.3,155.27,1.46c0,0-27.3,63.08-76.9,63.09 C267.32,825.25,238.55,760.68,238.55,760.68z"></path> <path class="st15" d="M253.83,758.04c-9.52,1.48-15.27,2.65-15.27,2.65s28.77,64.56,78.37,64.55 c11.66,0,22.09-3.49,31.22-8.83C308.29,817.9,269.52,798.97,253.83,758.04z"></path> <g> <path class="st3" d="M350.6,763.59c0,0-14.05,5.23-30.83,5.39c-10.05,0.1-30.68-5.25-30.68-5.25s3.16,8.95,5.57,12.18 c5.64,7.53,35.61,11.81,50.19-0.12C347.43,773.68,350.6,763.59,350.6,763.59z"></path> </g> </g> </g> </g> </g> <g id="girl"> <g> <defs> <path id="SVGID_5_" d="M2258.75,554.4h-326.39c-84.62,0-153.95,68.72-154.98,153.11c-29.41-2.83-58.29-11.22-84.54-24.79 c-2.37-1.23-5.27-2.49-7.56-1.13c-3.32,1.98-2.01,7.02-0.23,10.45c21.74,41.98,53.84,78.43,92.36,105.81 c1.94,83.6,70.91,151.39,154.95,151.39h326.39c85.25,0,155-69.75,155-155V709.4C2413.75,624.15,2344,554.4,2258.75,554.4z"></path> </defs> <use xlink:href="#SVGID_5_" style="overflow:visible;fill:#5D6AB1;"></use> <clipPath id="SVGID_6_"> <use xlink:href="#SVGID_5_" style="overflow:visible;"></use> </clipPath> </g> <g id="woman_1_"> <g> <path class="st16" d="M2206.55,618.35c14.34,51.17,10.6,107.71-10.38,156.74c0,0-60.98,28-114.44,20.06 c-53.46-7.93-84.62-38.71-84.62-38.71c-7.12-9.96-7.32-37.93-6.23-58.71c1.72-32.9,12.89-69.73,22.6-101.2L2206.55,618.35z"></path> </g> <path class="st17" d="M2265.54,949.24c-1.44-32.4-5.63-72.36-17.07-92.89c-21.19-37.99-100.45-52.7-146.33-52.7 c-45.88,0-104.56,13.87-125.94,35.63c-12.85,13.08-18.55,68.13-21.06,109.96H2265.54z"></path> <path class="st3" d="M2141.37,887.19c-11.01,0-24.6-5.43-28.81-17.46c-0.23-0.66,0.12-1.38,0.78-1.61 c0.66-0.23,1.38,0.12,1.61,0.78c2.67,7.63,12.04,15.77,26.35,15.77c0.14,0,0.27,0,0.41,0c12.55-0.14,25.12-6.39,32.79-16.33 c7.67-9.94,10.55-23.68,7.5-35.86c-0.17-0.68,0.24-1.36,0.92-1.53c0.68-0.17,1.36,0.24,1.53,0.92 c3.23,12.91,0.18,27.48-7.95,38.02c-8.14,10.54-21.46,17.17-34.77,17.31C2141.61,887.18,2141.49,887.19,2141.37,887.19z"></path> <path class="st3" d="M2064.92,885.44c-2.29,0-4.58-0.18-6.83-0.55c-14.81-2.41-27.6-12.75-32.56-26.36 c-5.14-14.07-1.2-30.69,9.57-40.42c0.52-0.47,1.32-0.43,1.79,0.09c0.47,0.52,0.43,1.32-0.09,1.79 c-10.03,9.06-13.69,24.55-8.89,37.68c4.66,12.76,16.67,22.47,30.59,24.73c13.31,2.16,27.84-2.6,37.94-12.42 c0.5-0.49,1.3-0.48,1.79,0.02c0.49,0.5,0.48,1.3-0.02,1.79C2089.24,880.5,2076.96,885.44,2064.92,885.44z"></path> <g> <rect x="2054.56" y="730.08" class="st5" width="92.96" height="113.8"></rect> <path class="st6" d="M2054.56,730.08v57.1c31.59,8.07,69.27,3.4,92.96-20.34v-36.76H2054.56z"></path> <path class="st5" d="M2166.3,823.48c0,18.15-41.02,38.85-62.51,38.85c-21.49,0-64.11-20.71-64.11-38.85 c0-18.15,26.4-20.89,61.36-20.89C2136.01,802.59,2166.3,805.34,2166.3,823.48z"></path> </g> <g> <g> <g> <g> <g> <path class="st5" d="M1990.13,682.81c0.14-0.9,0.31-1.79,0.5-2.67c0.92-4.35,2.41-8.93,5.93-11.64 c3.57-2.75,8.47-2.98,12.95-2.46c11.59,1.35,22.57,7.22,30.28,15.97c-4.17,10.91-13.01,21.94-24.9,24.65 c-9.48,2.17-20.77-2.36-24.1-11.5C1989.36,691.25,1989.46,686.97,1990.13,682.81z"></path> </g> </g> <g> <g> <path class="st5" d="M2205.61,706.93c0.06-0.91,0.09-1.81,0.11-2.71c0.07-4.45-0.37-9.24-3.21-12.66 c-2.88-3.47-7.6-4.78-12.09-5.26c-11.61-1.24-23.61,2.05-33.06,8.88c1.66,11.57,7.84,24.27,18.83,29.55 c8.77,4.21,20.78,2.29,26.04-5.89C2204.5,715.33,2205.34,711.13,2205.61,706.93z"></path> </g> </g> </g> </g> <path class="st5" d="M2026.85,692.99c-4.63,41.39,25.88,84.96,62.4,89.05s75.91-31.66,80.55-73.05 c0.15-1.38,12.18-56.13,12.18-56.13c4.19-37.47-22.78-71.25-60.26-75.45l-19.19-2.15c-37.43-4.19-71.18,22.72-75.43,60.14 C2024.71,656.3,2027.03,691.39,2026.85,692.99z"></path> <path class="st7" d="M2070.79,765.63c-55.78-36.97-36.06-107.45-28.2-166.36c-8.32,9.92-13.93,22.3-15.51,36.13 c-2.38,20.9-0.06,55.98-0.24,57.59c-4.63,41.39,25.88,84.96,62.4,89.05c7.39,0.83,14.89,0,22.2-2.15 C2097.41,779.06,2083.42,774.48,2070.79,765.63z"></path> <path class="st7" d="M2102.77,717.18c-3.08,4.04-9.6,4.8-13.47,1.36c-1.5-1.34-3.58,1.01-2.07,2.36 c5.05,4.5,13.76,3.76,17.89-1.65c0.51-0.67,0.52-1.63-0.14-2.21C2104.38,716.51,2103.28,716.51,2102.77,717.18L2102.77,717.18z "></path> <g> <g> <path class="st12" d="M2131.26,670.57c-0.06-2.84,4.44-5.82,8.17-5.03c9.01,1.91,20.17,9.34,18.72,12.86 c-0.78,1.89-4.98-4.05-12.8-6.25C2137.52,669.96,2131.32,673.41,2131.26,670.57z"></path> <path class="st12" d="M2137.82,703.61L2137.82,703.61c-4.12-0.46-7.12-4.21-6.66-8.34l0.96-8.57 c0.46-4.12,4.21-7.12,8.34-6.66l0,0c4.12,0.46,7.12,4.21,6.66,8.34l-0.96,8.57C2145.7,701.08,2141.95,704.08,2137.82,703.61z "></path> </g> <g> <path class="st12" d="M2071.72,663.91c0.69-2.76-3.04-6.66-6.85-6.71c-9.21-0.13-21.73,4.65-21.1,8.4 c0.34,2.02,3.52-2.29,13.87-3.26C2067.98,661.36,2071.03,666.66,2071.72,663.91z"></path> <path class="st12" d="M2058.01,694.68L2058.01,694.68c4.12,0.46,7.88-2.54,8.34-6.66l0.96-8.57 c0.46-4.12-2.54-7.88-6.66-8.34l0,0c-4.12-0.46-7.88,2.54-8.34,6.66l-0.96,8.57 C2050.89,690.47,2053.89,694.22,2058.01,694.68z"></path> </g> </g> <path class="st18" d="M2078.17,737.01c10.28,9.84,27.9,10.09,38.53,0.66c1.5-1.34-0.44-3.79-1.96-2.45 c-9.68,8.59-25.37,8.21-34.7-0.72C2078.59,733.1,2076.73,735.63,2078.17,737.01L2078.17,737.01z"></path> <g> <g> <path class="st16" d="M2021.01,575.8c-7.19,12.6-10.33,27.76-11.21,42.47c-0.76,12.71-0.07,25.44,0.2,38.17 c29.52-13.08,40.86-25.81,56.71-54.82c0,0,36.69,40.44,67.1,57.12c32.44,17.8,48.13,23.03,76.34,27.81 c2.87-21.04,5.42-33.23,4.62-54.41c-0.98-26.07-6.94-52.48-21.14-74.08c-14.2-21.6-37.44-37.82-62.94-39.32 c-23.42-1.37-47.94,11.43-58.55,32.58c-14.28-4.15-31.43,1.4-42.25,12.58C2026.39,567.5,2023.46,571.5,2021.01,575.8z"></path> </g> <g> <path class="st19" d="M2139.87,598.6c23.46,10.82,48.88,18.94,74.11,22.07c-1.08-11.25-3.19-22.41-6.57-33.09 c-20.06,7.64-43.89,1.65-67.44-5.88C2139.67,587.33,2139.68,592.96,2139.87,598.6z"></path> </g> <g> <path class="st19" d="M2124.66,576.68c-2.35-0.77-4.7-1.54-7.02-2.28c-0.15,4.33-0.11,8.65,0.2,12.93 c2.08,1.17,4.19,2.32,6.32,3.45C2124.14,586.09,2124.29,581.38,2124.66,576.68z"></path> </g> <g> <path class="st19" d="M2102.26,569.94c-5.57-1.42-10.99-2.53-16.19-3.11c5.04,3.75,10.39,7.42,15.95,11 C2102.03,575.21,2102.11,572.58,2102.26,569.94z"></path> </g> </g> </g> </g> </g> </g> <g id="woman_showing_phone_1_"> <g> <path class="st20" d="M1198.37,950.45c0,44.92,8.33,158.69-103.68,158.69S817.88,1003.01,817.88,958.1c0,0,95.86-35.95,202.81-37 C1132.69,919.99,1198.37,950.45,1198.37,950.45z"></path> </g> <g> <polygon class="st20" points="946.1,801.28 946.1,860.99 946.1,979.01 1101.62,979.01 1101.62,836.42 1101.62,801.28 "></polygon> <path class="st21" d="M1101.62,801.28H946.1v59.71v43.19c55.24-4.13,110.48-21.56,155.52-54.74v-13.01V801.28z"></path> </g> <g> <ellipse class="st22" cx="780.76" cy="562.45" rx="99.02" ry="100.96"></ellipse> <ellipse class="st22" cx="1166.4" cy="438.17" rx="99.02" ry="100.96"></ellipse> <g> <g> <path class="st20" d="M802.24,688.61c0.08-1.78,0.22-3.55,0.39-5.31c0.84-8.7,2.74-17.94,9.03-24 c6.37-6.14,15.88-7.67,24.73-7.62c22.91,0.11,45.61,9.15,62.55,24.54c-5.76,22.2-20.6,45.63-43.18,53.53 c-18.03,6.3-41.03-0.07-49.52-17.17C802.58,705.23,801.85,696.86,802.24,688.61z"></path> </g> <g> <path class="st20" d="M1204.72,671.4c-0.03,1.78-0.1,3.56-0.19,5.32c-0.45,8.7-1.65,17.96-5.98,24.09 c-4.39,6.21-11.05,7.84-17.28,7.9c-16.13,0.15-32.24-8.65-44.4-23.85c3.7-22.26,13.78-45.85,29.55-54 c12.59-6.5,28.87-0.39,35.12,16.62C1204.22,654.79,1204.86,663.14,1204.72,671.4z"></path> </g> </g> <path class="st20" d="M878.51,694.56c1.43,81.75,71.84,160.08,143.98,160.08s139.8-78.33,138.37-160.08 c-0.05-2.72,0.03-112.08,0.03-112.08c-1.3-74.02-52.85-134.1-126.87-134.1H996.1c-73.92,0-132.83,59.87-131.67,133.79 C865.08,623.46,878.45,691.4,878.51,694.56z"></path> <path class="st7" d="M1047.43,698.14c3.3,9.41-2.49,20.93-12.3,23.55c-3.82,1.02-2.2,6.96,1.63,5.93 c12.83-3.43,21.01-18.51,16.6-31.12c-0.55-1.57-2.1-2.61-3.78-2.15C1048.06,694.78,1046.88,696.57,1047.43,698.14L1047.43,698.14 z"></path> <g> <path class="st12" d="M971.43,617.59c0.74-5.52-7.39-12.33-14.84-11.6c-18,1.76-41.38,13.81-39.32,20.99 c1.11,3.87,6.37-5.23,26.34-9.39C963.58,613.43,970.69,623.11,971.43,617.59z"></path> <path class="st12" d="M951.41,680.61L951.41,680.61c8.15,0,14.81-6.66,14.81-14.81v-16.93c0-8.15-6.67-14.81-14.81-14.81l0,0 c-8.15,0-14.81,6.66-14.81,14.81v16.93C936.6,673.95,943.26,680.61,951.41,680.61z"></path> </g> <g> <g> <path class="st23" d="M804.4,477.28c-10.34,26.55-12.06,56.88-9.53,85.7c2.18,24.89,49.97,129.44,54.16,154.07 c53.81-21.14,50.37-156.2,78.81-213.63c24.28,47.57,71.93,78.09,119.46,102.41c49.79,25.49,104.44,38.53,159.3,49.31 c-0.49-41.68-2.13-83.39-9.78-124.28c-9.42-50.33-28.6-99.89-62.4-137.74c-33.8-37.85-83.59-62.65-133.54-58.21 c-45.88,4.09-89.78,36.01-104.3,80.12c-28.93-3.95-60.62,11.77-78.42,36.61C812.46,459.6,807.93,468.22,804.4,477.28z"></path> </g> <g> <path class="st24" d="M952.02,448.79c-15.86-4.91-31.28-10.99-46.02-18.19c14.04,12.55,29.24,23.68,45.33,33.36 C951.47,458.91,951.71,453.85,952.02,448.79z"></path> </g> <g> <path class="st24" d="M1166.39,439.8c-60.79,27.02-132,30.23-197.46,13.72c-0.46,6.52-0.96,13.03-1.32,19.55 c67.64,35.4,148.34,46.66,223.35,31.58C1185.1,482.15,1177.06,460.19,1166.39,439.8z"></path> </g> <path class="st23" d="M896.82,577.96c-3.5,38.99-10.05,77.67-19.48,115.66c-9.42,37.93-21.71,75.14-36.75,111.21 c-8.41,20.18-17.76,39.98-27.89,59.35c-1.24,2.38-0.61,5.39,1.78,6.79c2.23,1.31,5.55,0.6,6.79-1.78 c18.42-35.23,34.14-71.89,46.98-109.51c12.78-37.46,22.69-75.9,29.6-114.88c3.92-22.14,6.89-44.46,8.9-66.86 c0.24-2.67-2.45-4.96-4.96-4.96C898.9,572.99,897.06,575.28,896.82,577.96L896.82,577.96z"></path> <path class="st23" d="M891.23,571.85c-1.16,33.19-8.56,66.01-21.23,96.77c-12.57,30.52-30.55,58.96-52.73,83.4 c-12.43,13.69-26.19,26.2-41.13,37.1c-1.81,1.32-2.71,3.61-1.49,5.69c1.05,1.79,3.87,2.82,5.69,1.49 c27.75-20.24,51.59-45.45,70.54-74.09c18.82-28.42,32.77-60.21,40.81-93.34c4.53-18.67,7.19-37.82,7.86-57.03 C899.73,566.5,891.41,566.5,891.23,571.85L891.23,571.85z"></path> <path class="st23" d="M1191.54,559.53c9.66,37.01,14.15,75.26,13.52,113.5c-0.63,38.23-6.35,76.34-17.04,113.06 c-6.02,20.69-13.63,40.91-22.78,60.42c-1.35,2.88,2.93,5.4,4.29,2.51c16.48-35.13,28.08-72.46,34.5-110.72 c6.41-38.26,7.78-77.36,3.84-115.96c-2.21-21.63-6.05-43.08-11.54-64.12C1195.52,555.12,1190.73,556.43,1191.54,559.53 L1191.54,559.53z"></path> <path class="st23" d="M1185.6,559.44c11.07,35.9,14.96,73.78,12.03,111.21c-2.91,37.17-12.56,73.91-28.52,107.61 c-9.02,19.04-20.04,37.1-32.9,53.79c-0.83,1.07-0.15,2.77,0.89,3.4c1.27,0.76,2.58,0.17,3.4-0.89 c23.19-30.07,40.3-64.66,50.78-101.13c10.48-36.47,14.39-74.92,11.19-112.74c-1.8-21.21-5.79-42.22-12.07-62.56 C1189.45,555.07,1184.65,556.37,1185.6,559.44L1185.6,559.44z"></path> </g> <g> <path class="st12" d="M1089.03,617.59c-0.74-5.52,7.39-12.33,14.84-11.6c18,1.76,41.38,13.81,39.32,20.99 c-1.11,3.87-10.6-6.82-26.34-9.39S1089.77,623.11,1089.03,617.59z"></path> <path class="st12" d="M1109.04,680.61L1109.04,680.61c-8.15,0-14.81-6.66-14.81-14.81v-16.93c0-8.15,6.67-14.81,14.81-14.81l0,0 c8.15,0,14.81,6.66,14.81,14.81v16.93C1123.85,673.95,1117.19,680.61,1109.04,680.61z"></path> </g> <g> <path class="st25" d="M1004.5,734.2h80.45c8.83,0,15.3,4.55,13.35,9.34c-6.74,16.52-23.82,49.18-53.57,49.18 c-29.75,0-46.83-32.66-53.57-49.18C989.2,738.75,995.67,734.2,1004.5,734.2z"></path> <path class="st3" d="M1004.5,734.2c0,0,5.11,15.7,40.23,15.7c35.11,0,36.83-15.7,36.83-15.7H1004.5z"></path> </g> </g> <path class="st20" d="M1245.31,1002.49c0,0,76.13,365.59,92.45,415.91c16.31,50.32-24.39,99.43-54.89,110.79 c-38.23,14.24-70.8-62.52-74.44-92.98c-4.95-41.48-109.41-413.77-109.41-413.77S1211.81,925.85,1245.31,1002.49z"></path> <g> <path class="st26" d="M1267,1347.21c21.95-6.03,43.8-12.26,65.55-18.69c-23.73-110.62-47.46-221.24-71.18-331.86 c-4.03-18.8-15.84-35.31-35.71-45.65c-15.41-8.02-29.4-15.04-44.58-8.55c-26.17,11.18-59.31,87.54-70.26,119.37 c-5.42,128.26,18.56,184.92,31.87,313.94C1188.54,1365.11,1221.91,1359.6,1267,1347.21z"></path> </g> <path class="st20" d="M1512.58,1086.47c0,0-259.75,300.08-282.35,334.6c-22.6,34.52,16.34,129.49,58.41,105.67 c42.07-23.82,289.51-394.83,289.51-394.83S1583.64,1069.21,1512.58,1086.47z"></path> <g> <g> <g> <g> <g> <g> <g> <path class="st20" d="M1528.11,1036.4c16.31-6.94,36.46-20,116.49,27.17c2.96,1.74-50.34,98.96-94.56,95.63 c-30.19-2.27-53.14-41.19-53.42-74.72C1496.45,1063.88,1528.11,1036.4,1528.11,1036.4z"></path> </g> </g> </g> </g> </g> </g> <g> <g> <path class="st27" d="M1635.82,1116h-93.81c-11.66,0-21.2-9.54-21.2-21.2V910.72c0-11.66,9.54-21.2,21.2-21.2h93.81 c11.66,0,21.2,9.54,21.2,21.2v184.07C1657.02,1106.46,1647.48,1116,1635.82,1116z"></path> <path class="st28" d="M1640.75,1116h-93.82c-11.66,0-21.2-9.54-21.2-21.2V910.72c0-11.66,9.54-21.2,21.2-21.2h93.82 c11.66,0,21.2,9.54,21.2,21.2v184.07C1661.94,1106.46,1652.4,1116,1640.75,1116z"></path> <path class="st29" d="M1546.93,1113.66c-10.4,0-18.86-8.46-18.86-18.86V910.72c0-10.4,8.46-18.86,18.86-18.86h93.82 c10.4,0,18.86,8.46,18.86,18.86v184.07c0,10.4-8.46,18.86-18.86,18.86H1546.93z"></path> </g> <path class="st28" d="M1614.82,896.76h-42.22c-1.99,0-3.62-1.63-3.62-3.62l0,0c0-1.99,1.63-3.62,3.62-3.62h42.22 c1.99,0,3.62,1.63,3.62,3.62l0,0C1618.44,895.13,1616.81,896.76,1614.82,896.76z"></path> <path class="st30" d="M1637.16,971.62c-2.9,2.9-5.8,5.8-8.69,8.69c-6.89,6.89-13.79,13.79-20.68,20.68 c-8.4,8.4-16.8,16.79-25.19,25.19c-7.21,7.21-14.42,14.42-21.63,21.63c-3.52,3.52-7.22,6.94-10.6,10.6 c-0.05,0.05-0.1,0.1-0.15,0.15c-1.42,1.42,0.78,3.63,2.21,2.21c2.9-2.9,5.8-5.8,8.69-8.69c6.89-6.89,13.79-13.79,20.68-20.68 c8.4-8.4,16.8-16.8,25.19-25.19c7.21-7.21,14.42-14.42,21.63-21.63c3.52-3.52,7.22-6.94,10.6-10.6c0.05-0.05,0.1-0.1,0.15-0.15 C1640.79,972.41,1638.58,970.2,1637.16,971.62L1637.16,971.62z"></path> <path class="st30" d="M1569.73,990.89c4.89-4.7,9.78-9.4,14.67-14.11c7.81-7.51,15.61-15.01,23.42-22.52 c1.81-1.74,3.61-3.47,5.42-5.21c1.45-1.39-0.76-3.6-2.21-2.21c-4.89,4.7-9.78,9.4-14.67,14.11 c-7.81,7.51-15.61,15.01-23.42,22.52c-1.81,1.74-3.61,3.47-5.42,5.21C1566.08,990.08,1568.29,992.28,1569.73,990.89 L1569.73,990.89z"></path> </g> <g> <path class="st20" d="M1651.99,1033.95l32.66-13.18c5.41-2.18,8.56-10.14,6.99-17.69l0,0c-1.57-7.54-7.28-11.93-12.69-9.74 l-32.66,13.18c-5.41,2.18-8.56,10.14-6.99,17.69l0,0C1640.87,1031.75,1646.58,1036.14,1651.99,1033.95z"></path> <path class="st20" d="M1646.45,1007.27l32.66-13.18c5.41-2.18,8.56-10.14,6.99-17.69l0,0c-1.57-7.54-7.28-11.93-12.69-9.74 l-32.66,13.18c-5.41,2.18-8.56,10.14-6.99,17.69l0,0C1635.32,1005.07,1641.03,1009.46,1646.45,1007.27z"></path> <path class="st20" d="M1651.67,1059.65l32.66-13.18c5.41-2.18,8.56-10.14,6.99-17.69l0,0c-1.57-7.54-7.28-11.93-12.69-9.74 l-32.66,13.18c-5.41,2.18-8.56,10.14-6.99,17.69v0C1640.55,1057.45,1646.26,1061.83,1651.67,1059.65z"></path> <path class="st20" d="M1652.74,1083.47l26.71-10.78c4.43-1.79,7-8.29,5.72-14.46l0,0c-1.28-6.17-5.95-9.75-10.38-7.97 l-26.71,10.78c-4.43,1.79-7,8.29-5.72,14.46l0,0C1643.64,1081.68,1648.31,1085.26,1652.74,1083.47z"></path> <path class="st7" d="M1679.54,996.12c-4.95,2.17-9.9,4.33-14.85,6.49c-6.19,2.7-12.37,5.72-18.64,8.05 c-5.91,2.19-10.84-3.64-12.87-11.01c-0.7-2.55,2.22-3.73,2.91-1.2c1.65,5.99,5.37,9.72,9.94,7.8c2.58-1.08,5.16-2.2,7.73-3.32 c6.66-2.89,13.32-5.79,19.97-8.7c1.65-0.72,3.29-1.44,4.94-2.16C1680.55,991.24,1681.41,995.3,1679.54,996.12L1679.54,996.12z"></path> <path class="st7" d="M1686.14,1021.86c-4.95,2.17-9.9,4.33-14.85,6.49c-6.19,2.7-12.37,5.72-18.64,8.05 c-5.91,2.19-10.84-3.64-12.87-11.01c-0.7-2.55,2.22-3.73,2.91-1.2c1.65,5.99,5.37,9.72,9.94,7.8c2.58-1.08,5.16-2.2,7.73-3.32 c6.66-2.89,13.32-5.79,19.97-8.7c1.65-0.72,3.29-1.44,4.94-2.16C1687.15,1016.98,1688.01,1021.04,1686.14,1021.86 L1686.14,1021.86z"></path> <path class="st7" d="M1679.62,1048.69c-9.59,4.41-19.14,9.28-28.84,13.14c-5.11,2.03-9.37-3-11.07-9.42 c-0.59-2.22,1.94-3.25,2.52-1.04c0.72,2.74,2.07,5.39,4.02,6.64c1.52,0.97,2.98,0.66,4.51-0.02c2.2-0.97,4.4-1.97,6.59-2.97 c5.76-2.62,11.51-5.25,17.26-7.89c1.42-0.65,2.84-1.3,4.26-1.96C1680.49,1044.43,1681.23,1047.95,1679.62,1048.69 L1679.62,1048.69z"></path> </g> <path class="st20" d="M1504.21,1116.97c-9.92-32.25-16.12-57.6-14.59-79.78c0.82-11.98,4.79-10.55,16.33-21.21 c17.4-16.06,41.84-35.36,47.6-18.33c8.76,25.9-29.57,46.19-25.09,53.03C1555.07,1091.26,1514.13,1149.22,1504.21,1116.97z"></path> </g> <path class="st20" d="M711.95,1793.05c0,0,11.38-21.69,21.43-26.82c10.04-5.14,63.61-10.27,63.61-10.27s-2.68,19.4-14.73,23.4 c-12.05,3.99-38.17,23.97-38.17,23.97L711.95,1793.05z"></path> <path class="st20" d="M732.74,1039.32c0,0-159.08,337.85-186.65,383c-27.57,45.15,0.59,102.37,27.61,120.52 c33.87,22.74,83.4-44.34,94.02-73.11c14.46-39.19,202.65-376.97,202.65-376.97S783.15,972.57,732.74,1039.32z"></path> <g> <g> <g> <path class="st26" d="M1026.47,1829.24c-17.47,0-33.85-1.42-48.7-4.22c-86.86-16.39-191.66-49.32-210.1-65.68 c20.27-39.13,68.24-151,101.46-382.05l0.13-0.89l-80.79-246.91l12.74-180.28c10.3-1.7,53.12-8.66,99.73-14.92 c32.6,36.48,69.94,107.69,157.63,107.69c87.7,0,83.49-86.13,90.9-107.98c37.16,5.3,49.4,9.24,53.85,9.91 c25.53,71.57,73.87,217.88,78.5,271.84c4.39,51.16-6.8,66.11-43.86,115.62c-2.22,2.97-7.38,9.88-7.38,9.88l-0.15,0.72 c-38.51,184.68-55.78,339.41-51.34,459.94C1165.84,1806.49,1096.45,1829.24,1026.47,1829.24 C1026.48,1829.24,1026.48,1829.24,1026.47,1829.24z"></path> </g> </g> <g> <g> <path class="st31" d="M1070.87,1071c74.1-1.21,92.02-68.41,100.9-133.52c-6.21-1.07-13.55-2.24-22.29-3.49 c-7.41,21.85-3.2,107.98-90.9,107.98c-87.7,0-125.03-71.21-157.63-107.69c-9.11,1.22-18.08,2.48-26.68,3.71 C909.96,1012.04,988.97,1072.55,1070.87,1071z"></path> </g> </g> </g> <g> <path class="st26" d="M636.59,1321.87c-19.02-12.5-37.89-25.16-56.6-37.98c56.66-97.93,113.32-195.86,169.97-293.79 c9.63-16.65,23.03-37.1,45.13-40.82c17.14-2.88,34.4,6.58,46.84,17.43c21.45,18.7,30.57,98.11,31.18,131.77 c-34.36,123.69-74.64,170.21-127.04,288.85C705.71,1363.07,675.67,1347.54,636.59,1321.87z"></path> </g> <g> <path class="st32" d="M704.68,1947.41h510.49c-11.49-77.69-20.21-134.52-20.21-134.52s8.87-327.1,38.72-470.25 c42.78-57.38,56.21-71.63,51.45-127.17c-4.76-55.54-47.07-202.75-71.43-270.87c0,0-13.03-5.55-31.37-7.1 c24.21,77.72,37.14,156,52.38,237.76c9.93,52.96-36.41,168.8-36.41,168.8c-91.02,18.2-182.04,19.86-268.09-9.93 c-27.36-68.3-64.1-135.82-81.17-205.39c-15.11-61.55-5.3-122.75-14.52-185.77c-17.87-2.13-36.73,3.42-36.73,3.42 c-10.23,62.86-6.05,109.35-8.96,202.59c32.74,80.64,44.3,147.22,77.03,227.85c-15.16,105.43-46.28,267.81-95.56,369.88 C726.22,1824.12,712.43,1870.15,704.68,1947.41z"></path> </g> <g> <path class="st33" d="M1187.95,1395.04c-2,1-29.58,4.42-27.95,9.57s32.92,25.08,34.92,43.08 c6.12,55.06-13.48,114.95-26.56,168.07c-12.79,51.96-25.55,103.76-48.16,152.51c-2.16,4.65-4.41,9.34-5.26,14.4 c-1.45,8.64,3.49,17.32,7.32,24.78c22.42,43.78,28.76,91.85,37.18,139.97h55.73c-11.49-77.69-20.21-134.52-20.21-134.52 s8.54-315.02,37.08-462.06L1187.95,1395.04z"></path> </g> <g> <path class="st20" d="M660.11,1833.31c0,0-117.33-311.12-122.19-342.64c-4.86-31.52,72.26-85.43,99.3-55.08 c27.04,30.34,87.6,353.72,87.6,353.72S716.01,1868.48,660.11,1833.31z"></path> <g> <path class="st20" d="M655.42,1798.43L655.42,1798.43c5.48-22.69,27.67-37.2,50.65-33.12l78.14,22.57l35.09-1.73 c21.28-2.3,30.11,5.71,25.95,22.22l-15.2,61.97c-2.41,9.55-9.44,17.25-18.74,20.51c-16.41,5.75-48.01,4.88-65.01,1.15 c-11.23-2.46-50.21-28.36-77.57-47.9C654.07,1833.63,651.18,1815.95,655.42,1798.43z"></path> <path class="st7" d="M835.76,1800.6c-10.31,2.46-20.64,4.85-30.99,7.04c-4.59,0.97-9.92,2.59-14.45,2.59 c-5.84,0-12.08-2.45-17.63-4.05c-5.17-1.49-10.32-3.05-15.44-4.7c-2.51-0.81-4.05,3.29-1.53,4.1c10.59,3.41,21.66,7.57,32.7,8.9 c4.28,0.51,8.84-0.84,13.03-1.69c7.13-1.45,14.23-3.05,21.33-4.68c4.55-1.04,9.1-2.1,13.64-3.19 C838.98,1804.32,838.36,1799.98,835.76,1800.6L835.76,1800.6z"></path> <path class="st7" d="M832.19,1831.42c-10.31,2.46-20.64,4.85-30.99,7.04c-4.61,0.98-9.91,2.55-14.45,2.59 c-5.84,0.06-12.03-1.99-17.67-3.31c-5.31-1.25-10.61-2.57-15.89-3.97c-2.53-0.67-4.08,3.43-1.53,4.1 c10.83,2.87,22.02,6.37,33.18,7.45c4.31,0.42,8.82-0.85,13.03-1.71c7.13-1.45,14.23-3.05,21.33-4.68 c4.55-1.04,9.1-2.1,13.64-3.19C835.41,1835.14,834.79,1830.8,832.19,1831.42L832.19,1831.42z"></path> <path class="st7" d="M828.69,1858.45c-10.31,2.46-20.64,4.85-30.99,7.04c-4.61,0.98-9.91,2.55-14.45,2.59 c-5.84,0.06-12.03-1.99-17.67-3.31c-5.31-1.25-10.61-2.57-15.89-3.97c-2.53-0.67-4.08,3.43-1.53,4.1 c10.83,2.87,22.02,6.37,33.18,7.45c4.31,0.42,8.82-0.85,13.03-1.71c7.13-1.45,14.23-3.05,21.33-4.68 c4.55-1.04,9.1-2.1,13.64-3.19C831.91,1862.16,831.29,1857.82,828.69,1858.45L828.69,1858.45z"></path> </g> </g> <g> <path class="st34" d="M968.01,1321.79c14.75-3.85,29.33-8.3,43.71-13.35c14.36-5.04,28.52-10.68,42.43-16.88 c13.85-6.17,27.46-12.91,40.76-20.18c13.37-7.31,26.44-15.17,39.17-23.55c12.71-8.37,25.07-17.28,37.06-26.66 c1.48-1.16,2.95-2.32,4.42-3.5c1.51-1.21-0.63-3.32-2.12-2.12c-11.8,9.44-24,18.38-36.54,26.81 c-12.53,8.42-25.4,16.33-38.57,23.71c-13.23,7.41-26.77,14.28-40.56,20.59c-13.74,6.29-27.74,12.01-41.95,17.15 c-14.19,5.14-28.6,9.69-43.16,13.65c-1.81,0.49-3.63,0.97-5.44,1.45C965.35,1319.39,966.14,1322.28,968.01,1321.79 L968.01,1321.79z"></path> <path class="st34" d="M814.43,1229.72c-21.76-20.97-43.52-41.95-65.28-62.92c-6.1-5.88-12.2-11.75-18.29-17.63 c-1.39-1.34-3.51,0.78-2.12,2.12c21.76,20.97,43.52,41.95,65.28,62.92c6.1,5.88,12.2,11.75,18.29,17.63 C813.69,1233.19,815.82,1231.07,814.43,1229.72L814.43,1229.72z"></path> <path class="st34" d="M806.6,1240.71c-17.54-3.13-35.09-6.25-52.63-9.38c-1.89-0.34-2.7,2.55-0.8,2.89 c17.54,3.13,35.09,6.25,52.63,9.38C807.69,1243.94,808.5,1241.04,806.6,1240.71L806.6,1240.71z"></path> <path class="st34" d="M1126.87,1351.76c11.33-11.38,22.65-22.77,33.98-34.15c1.36-1.37-0.76-3.49-2.12-2.12 c-11.33,11.38-22.65,22.77-33.98,34.15C1123.39,1351.01,1125.51,1353.13,1126.87,1351.76L1126.87,1351.76z"></path> </g> </g> </g> </svg> 