<svg xmlns="http://www.w3.org/2000/svg" width="41.334" height="47.238" viewBox="0 0 41.334 47.238">
  <path id="Icon_awesome-calendar-check" data-name="Icon awesome-calendar-check" d="M40.226,14.762H1.107A1.107,1.107,0,0,1,0,13.655V10.333A4.429,4.429,0,0,1,4.429,5.9H8.857v-4.8A1.107,1.107,0,0,1,9.964,0h3.691a1.107,1.107,0,0,1,1.107,1.107V5.9h11.81v-4.8A1.107,1.107,0,0,1,27.679,0h3.691a1.107,1.107,0,0,1,1.107,1.107V5.9h4.429a4.429,4.429,0,0,1,4.429,4.429v3.321A1.107,1.107,0,0,1,40.226,14.762ZM1.107,17.714H40.226a1.107,1.107,0,0,1,1.107,1.107V42.81a4.429,4.429,0,0,1-4.429,4.429H4.429A4.429,4.429,0,0,1,0,42.81V18.822A1.107,1.107,0,0,1,1.107,17.714Zm30.751,8.852-2.6-2.62a1.107,1.107,0,0,0-1.566-.006l-9.783,9.7-4.242-4.277a1.107,1.107,0,0,0-1.566-.006l-2.62,2.6a1.107,1.107,0,0,0-.006,1.566L17.1,41.209a1.107,1.107,0,0,0,1.566.006L31.852,28.132a1.107,1.107,0,0,0,.006-1.566Z" fill="#1f1666"/>
</svg>
