<svg xmlns="http://www.w3.org/2000/svg" width="39.747" height="55.646" viewBox="0 0 39.747 55.646">
  <g id="Icon_ionic-ios-card" data-name="Icon ionic-ios-card" transform="translate(39.747) rotate(90)">
    <path id="路径_7" data-name="路径 7" d="M55.646,3.975A3.986,3.986,0,0,0,51.671,0H3.975A3.986,3.986,0,0,0,0,3.975V9.937H55.646Z" transform="translate(0 0)" fill="#1f1666"/>
    <path id="路径_8" data-name="路径 8" d="M0,19.874a3.986,3.986,0,0,0,3.975,3.975h47.7a3.986,3.986,0,0,0,3.975-3.975V0H0Zm17.638-5.962h20.37a1.744,1.744,0,0,1,1.739,1.739h0a1.744,1.744,0,0,1-1.739,1.739H17.638A1.744,1.744,0,0,1,15.9,15.65h0A1.744,1.744,0,0,1,17.638,13.911Zm-8.943,0h1.491a1.744,1.744,0,0,1,1.739,1.739h0a1.744,1.744,0,0,1-1.739,1.739H8.695A1.744,1.744,0,0,1,6.956,15.65h0A1.744,1.744,0,0,1,8.695,13.911Z" transform="translate(0 15.899)" fill="#1f1666"/>
  </g>
</svg>
