<svg id="组_48" data-name="组 48" xmlns="http://www.w3.org/2000/svg" width="39.877" height="39.639" viewBox="0 0 39.877 39.639">
  <path id="路径_35" data-name="路径 35" d="M877.13,509.423v.793c-.03.169-.068.337-.09.507-.152,1.14-.217,2.3-.466,3.417a19.135,19.135,0,0,1-6.4,10.622,19.566,19.566,0,0,1-12.14,4.791,3.445,3.445,0,0,0-.478.087h-.8a4.131,4.131,0,0,0-.445-.086c-.639-.055-1.284-.066-1.917-.157a19.915,19.915,0,0,1-6.772-2.229,19.579,19.579,0,0,1-8.378-8.72,18.56,18.56,0,0,1-1.961-9.383,22.1,22.1,0,0,1,.434-3.489,19.212,19.212,0,0,1,6.417-10.693,19.576,19.576,0,0,1,12.146-4.794,3.487,3.487,0,0,0,.478-.087h.8c.148.03.295.072.444.087.792.078,1.593.1,2.375.23a19.587,19.587,0,0,1,11.168,5.853,19.3,19.3,0,0,1,5.5,12.812A2.968,2.968,0,0,0,877.13,509.423Zm-18.676-7.838c0-.275.006-.551,0-.826a.645.645,0,0,0-.687-.682c-.4-.006-.8,0-1.2,0a.641.641,0,0,0-.7.7c-.006.5-.013.991,0,1.486.008.26-.084.36-.347.409a5.059,5.059,0,0,0-2.2.961,3.94,3.94,0,0,0-1.484,3.9A3.218,3.218,0,0,0,854,510.269a23.293,23.293,0,0,0,2.62.7c.749.188,1.513.326,2.252.546A1.435,1.435,0,0,1,859.9,512.6a2.083,2.083,0,0,1-1.233,2.494,3.945,3.945,0,0,1-1.792.255,2.511,2.511,0,0,1-2.712-2.081.633.633,0,0,0-.616-.558c-.509-.025-1.021-.022-1.531,0a.6.6,0,0,0-.583.7,4.641,4.641,0,0,0,1.181,2.5,5.127,5.127,0,0,0,2.953,1.456c.25.045.3.146.3.367-.011.506-.006,1.013,0,1.519a.644.644,0,0,0,.638.736,8.332,8.332,0,0,0,1.328,0,.638.638,0,0,0,.625-.713c.006-.451,0-.9,0-1.354,0-.489,0-.485.464-.6a4.884,4.884,0,0,0,3.115-2.089,4.327,4.327,0,0,0,.619-2.875,3.347,3.347,0,0,0-1.633-2.723,10.07,10.07,0,0,0-3.475-1.039,14.056,14.056,0,0,1-2.232-.594,1.42,1.42,0,0,1-.7-.7,1.734,1.734,0,0,1,1.15-2.462,5.711,5.711,0,0,1,1.544-.136,2.168,2.168,0,0,1,2.243,1.61.677.677,0,0,0,.7.5c.432-.007.865,0,1.3,0a.607.607,0,0,0,.613-.781,4.224,4.224,0,0,0-1.218-2.192,4.62,4.62,0,0,0-2.2-1.1c-.223-.05-.293-.15-.284-.36C858.463,502.114,858.455,501.849,858.454,501.585Zm-4.993-4.55h0c0-.22.008-.44,0-.66a.571.571,0,0,0-.615-.589,1.637,1.637,0,0,0-.485.088,14.984,14.984,0,0,0-10.265,13.67,13.861,13.861,0,0,0,.438,4.05,14.974,14.974,0,0,0,9.95,10.62c.611.2.978-.061.981-.69,0-.308,0-.616,0-.924a1.011,1.011,0,0,0-.722-1.057,16.258,16.258,0,0,1-2.527-1.31,12,12,0,0,1-5.251-12.492,11.672,11.672,0,0,1,4.073-7.041,12.487,12.487,0,0,1,3.72-2.207.941.941,0,0,0,.707-1.028C853.462,497.322,853.461,497.178,853.461,497.035Zm16.175,12.976c-.086.74-.13,1.488-.264,2.22a12.352,12.352,0,0,1-7.837,9.33.9.9,0,0,0-.681,1q0,.462,0,.925c0,.68.349.929,1.009.711a14.656,14.656,0,0,0,8-6.175,14.363,14.363,0,0,0,1.984-11.254,14.615,14.615,0,0,0-6.8-9.465,14.279,14.279,0,0,0-3.191-1.464c-.637-.206-1,.053-1,.7q0,.462,0,.925a.934.934,0,0,0,.71,1.023A12.471,12.471,0,0,1,869.636,510.012Z" transform="translate(-837.253 -490)" fill="#2775c9"/>
  <path id="路径_36" data-name="路径 36" d="M915.066,542.337c0,.264.008.529,0,.793a.3.3,0,0,0,.282.36,4.561,4.561,0,0,1,2.179,1.1,4.234,4.234,0,0,1,1.206,2.192.606.606,0,0,1-.607.781c-.429.008-.858,0-1.286,0a.671.671,0,0,1-.689-.5,2.15,2.15,0,0,0-2.222-1.61,5.607,5.607,0,0,0-1.53.136,1.738,1.738,0,0,0-1.139,2.462,1.412,1.412,0,0,0,.695.7,13.808,13.808,0,0,0,2.212.594,9.914,9.914,0,0,1,3.443,1.039,3.352,3.352,0,0,1,1.618,2.723,4.359,4.359,0,0,1-.613,2.875,4.837,4.837,0,0,1-3.086,2.089c-.459.113-.46.109-.46.6,0,.451,0,.9,0,1.354a.636.636,0,0,1-.62.713,8.208,8.208,0,0,1-1.316,0A.642.642,0,0,1,912.5,560c0-.506-.009-1.013,0-1.519.005-.221-.046-.322-.294-.367a5.063,5.063,0,0,1-2.925-1.456,4.66,4.66,0,0,1-1.17-2.5.6.6,0,0,1,.578-.7c.505-.02,1.012-.023,1.516,0a.629.629,0,0,1,.61.558A2.493,2.493,0,0,0,913.5,556.1a3.881,3.881,0,0,0,1.775-.255,2.088,2.088,0,0,0,1.221-2.494,1.429,1.429,0,0,0-1.016-1.079c-.733-.22-1.489-.358-2.231-.546a22.872,22.872,0,0,1-2.6-.7,3.212,3.212,0,0,1-2.147-2.736,3.959,3.959,0,0,1,1.47-3.9,4.991,4.991,0,0,1,2.179-.961c.261-.049.352-.149.344-.409-.015-.495-.009-.991,0-1.486a.638.638,0,0,1,.7-.7c.4,0,.792-.006,1.187,0a.642.642,0,0,1,.681.682C915.071,541.786,915.066,542.061,915.066,542.337Z" transform="translate(-893.878 -530.752)" fill="#fff"/>
  <path id="路径_37" data-name="路径 37" d="M872.656,520.443c0,.143,0,.286,0,.429a.941.941,0,0,1-.7,1.028,12.344,12.344,0,0,0-3.686,2.207,11.7,11.7,0,0,0-4.036,7.041,12.051,12.051,0,0,0,5.2,12.492,16.023,16.023,0,0,0,2.5,1.31,1.011,1.011,0,0,1,.715,1.057q0,.462,0,.924c0,.629-.367.885-.972.69a14.574,14.574,0,0,1-5.031-2.81A14.758,14.758,0,0,1,861.826,537a13.979,13.979,0,0,1-.434-4.05,14.956,14.956,0,0,1,10.171-13.67,1.605,1.605,0,0,1,.481-.088.568.568,0,0,1,.61.589c.01.22,0,.44,0,.66Z" transform="translate(-856.598 -513.407)" fill="#fff"/>
  <path id="路径_38" data-name="路径 38" d="M963.932,533.372a12.467,12.467,0,0,0-8-11.517.933.933,0,0,1-.7-1.023q0-.462,0-.925c0-.65.362-.909.994-.7a14.069,14.069,0,0,1,3.161,1.464,14.931,14.931,0,0,1-3.156,26.893c-.654.218-1-.03-1-.711q0-.463,0-.925a.9.9,0,0,1,.674-1,12.309,12.309,0,0,0,7.765-9.33C963.8,534.861,963.847,534.113,963.932,533.372Z" transform="translate(-931.481 -513.361)" fill="#fff"/>
</svg>
