<svg xmlns="http://www.w3.org/2000/svg" width="52" height="52" viewBox="0 0 52 52">
  <g id="组_4" data-name="组 4" transform="translate(-599.55 -256.55)">
    <g id="路径_5" data-name="路径 5" transform="translate(11.473 6.011)" fill="none">
      <path d="M611.885,273.686l6.469,7.294,10.46-17.754Z" stroke="none"/>
      <path d="M 618.1893920898438 279.2886962890625 L 625.8989868164063 266.20263671875 L 613.4215698242188 273.9122314453125 L 618.1893920898438 279.2886962890625 M 618.3532104492188 280.9806518554688 L 611.8847045898438 273.6863403320313 L 628.8129272460938 263.2266845703125 L 618.3532104492188 280.9806518554688 Z" stroke="none" fill="#f7b163"/>
    </g>
    <g id="路径_6" data-name="路径 6" transform="matrix(0.017, -1, 1, 0.017, 612.972, 296.25)" fill="none">
      <path d="M16.928,10.46,10.46,17.754,0,0Z" stroke="none"/>
      <path d="M 10.62343597412109 16.06202125549316 L 15.39122867584229 10.68554210662842 L 2.913800239562988 2.975958108901978 L 10.62343597412109 16.06202125549316 M 10.45959949493408 17.75396347045898 L -0.0001207421883009374 3.642578121798579e-06 L 16.92809867858887 10.45965385437012 L 10.45959949493408 17.75396347045898 Z" stroke="none" fill="#f7b163"/>
    </g>
    <g id="椭圆_7" data-name="椭圆 7" transform="translate(599.55 256.55)" fill="none" stroke="#f7b163" stroke-width="1">
      <circle cx="26" cy="26" r="26" stroke="none"/>
      <circle cx="26" cy="26" r="25.5" fill="none"/>
    </g>
  </g>
</svg>
