<svg xmlns="http://www.w3.org/2000/svg" width="15.84" height="18.103" viewBox="0 0 15.84 18.103">
  <path id="Icon_awesome-bell" data-name="Icon awesome-bell" d="M7.92,18.1a2.262,2.262,0,0,0,2.262-2.263H5.658A2.262,2.262,0,0,0,7.92,18.1Zm7.616-5.293c-.683-.734-1.961-1.838-1.961-5.455A5.583,5.583,0,0,0,9.051,1.868V1.131a1.131,1.131,0,1,0-2.261,0v.737A5.583,5.583,0,0,0,2.266,7.354c0,3.617-1.278,4.721-1.961,5.455a1.1,1.1,0,0,0-.3.768,1.132,1.132,0,0,0,1.135,1.131H14.7a1.132,1.132,0,0,0,1.135-1.131,1.1,1.1,0,0,0-.3-.768Z" transform="translate(0)" fill="#f7b163"/>
</svg>
