<svg xmlns="http://www.w3.org/2000/svg" width="40" height="40" viewBox="0 0 40 40">
  <path id="路径_39" data-name="路径 39" d="M633.08-20.516a20,20,0,0,0-20,20,20,20,0,0,0,20,20,20,20,0,0,0,20-20A20,20,0,0,0,633.08-20.516Zm1.031,30.9v3.7h-2.24V10.491a10.356,10.356,0,0,1-5.441-1.565l.853-2.383A9.481,9.481,0,0,0,632.4,8.073c2.525,0,4.232-1.458,4.232-3.485,0-1.956-1.387-3.165-4.019-4.232C628.99-1.067,626.749-2.7,626.749-5.8c0-2.952,2.1-5.193,5.37-5.726v-3.592h2.205v3.45a9.488,9.488,0,0,1,4.623,1.245l-.889,2.347a8.6,8.6,0,0,0-4.481-1.209c-2.738,0-3.77,1.636-3.77,3.058,0,1.849,1.316,2.774,4.41,4.055,3.663,1.494,5.513,3.343,5.513,6.508C639.731,7.148,637.775,9.78,634.111,10.385Z" transform="translate(-613.08 20.516)" fill="#009245"/>
</svg>
