<svg xmlns="http://www.w3.org/2000/svg" width="18.95" height="18.95" viewBox="0 0 18.95 18.95">
  <path id="Icon_awesome-history" data-name="Icon awesome-history" d="M19.512,10.02A9.475,9.475,0,0,1,4.091,17.415a.916.916,0,0,1-.07-1.36l.43-.43a.919.919,0,0,1,1.218-.076A7.03,7.03,0,1,0,5.221,4.915L7.16,6.854A.611.611,0,0,1,6.728,7.9H1.174a.611.611,0,0,1-.611-.611V1.733A.611.611,0,0,1,1.606,1.3L3.492,3.187a9.475,9.475,0,0,1,16.02,6.833ZM12.6,13.03l.375-.483a.917.917,0,0,0-.161-1.287L11.26,10.051V6.064a.917.917,0,0,0-.917-.917H9.732a.917.917,0,0,0-.917.917v5.183l2.5,1.944A.917.917,0,0,0,12.6,13.03Z" transform="translate(-0.563 -0.563)" fill="#f7b163"/>
</svg>
