<svg xmlns="http://www.w3.org/2000/svg" width="53.571" height="32.143" viewBox="0 0 53.571 32.143">
  <path id="Icon_awesome-money-bill-alt" data-name="Icon awesome-money-bill-alt" d="M29.464,23.25H28.125V15.884a.669.669,0,0,0-.67-.67H26.319a2.006,2.006,0,0,0-1.114.337l-1.283.855a.669.669,0,0,0-.186.928l.743,1.114a.669.669,0,0,0,.928.186l.039-.026V23.25H24.107a.669.669,0,0,0-.67.67v1.339a.669.669,0,0,0,.67.67h5.357a.669.669,0,0,0,.67-.67V23.92A.669.669,0,0,0,29.464,23.25ZM50.893,4.5H2.679A2.679,2.679,0,0,0,0,7.179V33.964a2.679,2.679,0,0,0,2.679,2.679H50.893a2.679,2.679,0,0,0,2.679-2.679V7.179A2.679,2.679,0,0,0,50.893,4.5ZM4.018,32.625V27.268a5.357,5.357,0,0,1,5.357,5.357Zm0-18.75V8.518H9.375A5.357,5.357,0,0,1,4.018,13.875ZM26.786,29.946c-4.438,0-8.036-4.2-8.036-9.375s3.6-9.375,8.036-9.375,8.036,4.2,8.036,9.375S31.222,29.946,26.786,29.946Zm22.768,2.679H44.2a5.357,5.357,0,0,1,5.357-5.357Zm0-18.75A5.357,5.357,0,0,1,44.2,8.518h5.357Z" transform="translate(0 -4.5)" fill="#1f1666"/>
</svg>
