<svg xmlns="http://www.w3.org/2000/svg" width="118.102" height="126.872" viewBox="0 0 118.102 126.872">
  <g id="组_56" data-name="组 56" transform="translate(-101.5 0)">
    <path id="路径_47" data-name="路径 47" d="M826.3,604.414s16.782.868,12.873,6.151-14.18-3.1-14.18-3.1Z" transform="translate(-634.305 -514.273)" fill="#ffb8b8"/>
    <path id="路径_48" data-name="路径 48" d="M627.852,313.448l3.416.854s1.993,5.978,3.416,11.387,4.27,21.635,4.27,21.635l22.069,15.467-2.632,5.888-29.4-11.587-6.547-25.709Z" transform="translate(-466.788 -273.628)" fill="#575a89"/>
    <path id="路径_49" data-name="路径 49" d="M433.9,291.607l-1.273,26.662,2.657,7.927-7.782-5.707Z" transform="translate(-269.621 -241.176)" opacity="0.2"/>
    <path id="路径_50" data-name="路径 50" d="M509.907,630.713s3.7,9.963,4.27,16.8,1.139,12.241,1.139,12.241H497.951l-3.416-5.124v5.124H474.323s-5.693-18.5-3.416-20.78,23.912-11.956,23.912-11.956Z" transform="translate(-341.014 -532.964)" fill="#2f2e41"/>
    <rect id="矩形_32" data-name="矩形 32" width="100.479" height="0.346" transform="translate(101.5 126.526)" fill="#3f3d56"/>
    <circle id="椭圆_13" data-name="椭圆 13" cx="10.817" cy="10.817" r="10.817" transform="translate(136.298 7.369)" fill="#ffb8b8"/>
    <path id="路径_51" data-name="路径 51" d="M521.244,214.688l-.854,12.525,10.817,14.518,5.409-13.664s-4.839-3.131-1.993-9.679Z" transform="translate(-382.384 -191.948)" fill="#ffb8b8"/>
    <path id="路径_52" data-name="路径 52" d="M471.162,327.773c0,2.563-7.117,6.548-7.117,6.548v1.423l-2.847,1.423-6.262-12.524L453.229,338.3s-12.526,1.994-16.511,0-5.979-1.138-11.672-3.13,2.278-28.752,2.278-28.752l-5.693-41.276,12.438-6.219.655-.329,1.71-.315,2.622-.484,8.763,5.923.706,3.7.434,2.278,2.276-2.563,1.719-5.653,12.23,6.793-3.416,27.327S471.162,325.211,471.162,327.773Z" transform="translate(-301.569 -227.604)" fill="#575a89"/>
    <path id="路径_53" data-name="路径 53" d="M452.459,713.428s13.094,10.533,6.832,12.525-9.679-10.817-9.679-10.817Z" transform="translate(-323.846 -604.434)" fill="#ffb8b8"/>
    <path id="路径_54" data-name="路径 54" d="M383.636,300.849l-2.847-.569s-4.27,2.277-4.555,6.832-3.985,36.437-3.985,36.437l11.956,32.167,9.679-3.7-9.394-30.174,7.117-26.189Z" transform="translate(-259.863 -262.737)" fill="#575a89"/>
    <circle id="椭圆_14" data-name="椭圆 14" cx="1.038" cy="1.038" r="1.038" transform="translate(147.33 44.724)" fill="#2f2e41"/>
    <circle id="椭圆_15" data-name="椭圆 15" cx="1.038" cy="1.038" r="1.038" transform="translate(147.33 51.469)" fill="#2f2e41"/>
    <circle id="椭圆_16" data-name="椭圆 16" cx="1.038" cy="1.038" r="1.038" transform="translate(153.21 95.915)" fill="#2f2e41"/>
    <path id="路径_55" data-name="路径 55" d="M506.715,90.3l-2-.8s4.181-4.6,10-4.2l-1.636-1.8s4-1.6,7.635,2.6a35.487,35.487,0,0,1,5.5,7.732h2.141l-.894,1.968,3.128,1.968-3.211-.354a11,11,0,0,1,.087,3.264,4.223,4.223,0,0,1-1.547,2.763h0s-2.48-5.133-2.48-5.934v2s-2-1.8-2-3l-1.091,1.4h-7.271l1.091-1.8-4.181.6,1.636-2.2-6.473,9.091S501.443,93.3,506.715,90.3Z" transform="translate(-368.732 -83.197)" fill="#2f2e41"/>
    <circle id="椭圆_17" data-name="椭圆 17" cx="17.294" cy="17.294" r="17.294" transform="translate(185.014 49.037)" fill="#3f3d56"/>
    <circle id="椭圆_18" data-name="椭圆 18" cx="14.873" cy="14.873" r="14.873" transform="translate(187.435 51.458)" opacity="0.1"/>
    <path id="路径_56" data-name="路径 56" d="M874.273,433.339v-2.165a5.027,5.027,0,0,1-2.887-.943l.453-1.436a4.615,4.615,0,0,0,2.717.922,2.081,2.081,0,0,0,2.245-2.1c0-1.179-.736-1.908-2.132-2.551-1.924-.857-3.113-1.843-3.113-3.708a3.37,3.37,0,0,1,2.849-3.451v-2.165h1.17v2.079a4.59,4.59,0,0,1,2.453.75l-.472,1.415a4.169,4.169,0,0,0-2.377-.729,1.811,1.811,0,0,0-2,1.843c0,1.115.7,1.672,2.34,2.443,1.943.9,2.924,2.015,2.924,3.922a3.587,3.587,0,0,1-2.981,3.644v2.229Z" transform="translate(-672.678 -358.231)" fill="#6c63ff"/>
    <path id="路径_57" data-name="路径 57" d="M250.005,500.679l6.917,21.606L251.388,499.8Z" transform="translate(-122.822 -413.366)" opacity="0.2"/>
  </g>
</svg>
