<?xml version="1.0" standalone="no"?>
<!DOCTYPE svg PUBLIC "-//W3C//DTD SVG 20010904//EN"
 "http://www.w3.org/TR/2001/REC-SVG-20010904/DTD/svg10.dtd">
<svg version="1.0" xmlns="http://www.w3.org/2000/svg"
 width="1992.000000pt" height="1992.000000pt" viewBox="0 0 1992.000000 1992.000000"
 preserveAspectRatio="xMidYMid meet">
<metadata>
Created by potrace 1.16, written by Peter Selinger 2001-2019
</metadata>
<g transform="translate(0.000000,1992.000000) scale(0.100000,-0.100000)"
fill="#000000" stroke="none">
<path d="M9315 19779 c-2213 -134 -4321 -1022 -5960 -2514 -172 -156 -473
-455 -635 -630 -1547 -1673 -2446 -3785 -2580 -6062 -13 -222 -13 -994 0
-1216 111 -1883 745 -3658 1850 -5177 588 -808 1372 -1592 2180 -2180 1519
-1105 3294 -1739 5177 -1850 222 -13 994 -13 1216 0 1883 111 3658 745 5177
1850 808 588 1592 1372 2180 2180 1105 1519 1739 3294 1850 5177 13 222 13
994 0 1216 -111 1883 -745 3658 -1850 5177 -588 808 -1372 1592 -2180 2180
-1519 1105 -3294 1739 -5177 1850 -201 12 -1045 11 -1248 -1z m1160 -129
c1847 -94 3667 -740 5181 -1840 2258 -1640 3702 -4181 3959 -6965 49 -540 49
-1220 0 -1760 -308 -3336 -2306 -6270 -5296 -7780 -1190 -601 -2483 -947
-3829 -1025 -238 -14 -832 -14 -1070 0 -1726 100 -3360 640 -4796 1585 -2466
1623 -4057 4278 -4329 7220 -49 540 -49 1220 0 1760 337 3649 2697 6799 6100
8140 1310 517 2660 737 4080 665z" fill="gray" style="stroke-width: 200px; stroke: gray;"/>
<path d="M9475 16314 c-274 -26 -480 -55 -735 -105 -281 -54 -349 -71 -561
-136 -101 -31 -195 -58 -209 -61 -14 -3 -83 -27 -155 -55 -71 -27 -175 -66
-230 -87 -89 -33 -218 -90 -425 -188 -184 -87 -477 -254 -685 -391 -534 -350
-975 -744 -1430 -1277 -143 -167 -443 -589 -540 -759 -16 -27 -54 -93 -85
-145 -31 -52 -91 -165 -134 -250 -43 -85 -82 -159 -86 -165 -4 -5 -11 -21 -15
-35 -4 -14 -25 -61 -45 -105 -95 -204 -116 -259 -235 -605 -77 -225 -193 -672
-214 -830 -5 -36 -17 -112 -26 -170 -21 -137 -40 -294 -57 -455 -13 -133 -18
-690 -8 -1055 5 -195 2 -221 -46 -390 -68 -239 -234 -465 -444 -604 -88 -59
-159 -97 -542 -289 l-138 -69 0 -659 c0 -362 3 -659 8 -659 4 0 16 6 27 14 11
7 189 99 395 203 206 105 494 251 640 326 146 74 452 229 680 345 448 226 719
365 1010 514 102 53 311 160 465 238 154 78 408 208 565 288 338 172 742 378
1155 587 329 168 627 319 1052 536 153 78 395 201 538 274 143 73 397 202 565
288 168 85 438 222 600 305 162 83 390 198 505 257 319 163 788 402 1100 560
579 295 877 446 1105 562 129 66 255 130 280 143 25 12 53 26 63 31 34 18 434
223 727 372 162 82 421 214 575 292 154 79 413 210 575 293 603 307 895 455
1640 835 184 94 434 221 555 283 l220 111 3 662 c1 492 -1 661 -9 661 -18 0
-313 -149 -324 -164 -10 -13 -167 -94 -835 -434 -834 -424 -1320 -671 -1685
-857 -376 -192 -748 -381 -1060 -540 -154 -78 -408 -208 -565 -287 -157 -80
-406 -207 -555 -283 -148 -76 -394 -201 -545 -278 -151 -77 -401 -204 -555
-282 -306 -156 -664 -338 -1075 -547 -146 -75 -400 -204 -565 -288 -286 -145
-484 -246 -1105 -563 -151 -77 -401 -204 -555 -282 -339 -172 -805 -410 -1130
-575 -890 -454 -1117 -569 -1670 -850 -176 -89 -344 -176 -374 -192 -37 -22
-55 -27 -60 -19 -11 18 -33 267 -40 471 -15 398 22 862 99 1235 46 225 144
562 216 748 20 51 38 99 39 107 5 21 55 139 110 255 26 55 56 120 67 145 11
25 37 74 58 110 20 36 56 101 80 145 24 44 62 109 85 145 23 36 59 93 81 127
296 466 766 968 1232 1315 115 86 417 284 545 358 115 66 409 214 494 249 27
10 98 39 158 64 249 102 657 224 890 267 433 79 604 94 1035 94 436 0 555 -11
1040 -95 84 -15 308 -71 435 -111 55 -17 124 -37 154 -44 29 -8 138 -48 242
-89 104 -41 191 -75 194 -75 7 0 435 -213 460 -229 22 -13 -14 -31 710 340
187 95 377 192 423 213 45 22 82 45 82 50 -1 14 -94 82 -265 192 -241 155
-376 233 -670 383 -87 44 -334 155 -405 181 -41 16 -142 54 -224 85 -82 31
-179 65 -215 75 -36 10 -127 37 -201 60 -283 87 -635 157 -1085 216 -93 13
-233 17 -620 19 -275 1 -518 1 -540 -1z"/>
<path d="M17305 13066 c-168 -87 -593 -304 -1075 -548 -157 -80 -404 -206
-550 -280 -146 -75 -395 -202 -555 -283 -159 -81 -409 -208 -555 -283 -146
-74 -389 -198 -540 -275 -151 -76 -408 -207 -570 -290 -162 -82 -430 -219
-595 -302 -165 -84 -394 -201 -510 -260 -309 -158 -761 -388 -1080 -550 -649
-330 -902 -459 -1105 -562 -524 -268 -834 -425 -1085 -553 -148 -76 -398 -203
-555 -282 -157 -80 -422 -215 -590 -301 -168 -85 -404 -205 -525 -267 -121
-62 -348 -178 -505 -258 -157 -79 -413 -210 -570 -290 -157 -80 -420 -213
-585 -297 -165 -84 -408 -208 -540 -275 -132 -67 -373 -190 -535 -273 -349
-177 -684 -348 -1095 -557 -165 -84 -437 -222 -605 -307 -168 -85 -360 -184
-427 -220 l-123 -65 0 -648 0 -649 53 23 c28 13 99 49 156 80 57 30 107 54
111 51 8 -5 -30 -24 1220 613 260 132 599 305 1080 550 162 82 432 220 600
305 336 170 670 341 1060 540 140 71 381 194 535 272 154 78 413 210 575 292
162 83 414 211 560 286 146 74 391 199 545 277 154 78 399 203 545 278 146 74
391 199 545 277 154 78 390 199 525 267 135 69 385 196 555 283 171 87 425
216 565 288 311 158 725 369 1125 572 447 227 864 440 1100 560 116 59 345
176 510 260 165 84 393 200 508 258 114 59 207 103 207 99 0 -4 7 -61 16 -127
21 -164 30 -696 15 -890 -13 -170 -34 -362 -57 -510 -40 -265 -160 -708 -256
-950 -22 -55 -47 -120 -55 -145 -25 -74 -188 -412 -269 -558 -105 -188 -160
-276 -294 -465 -180 -256 -300 -400 -540 -650 -151 -157 -442 -412 -611 -533
-24 -18 -79 -57 -122 -88 -42 -31 -80 -56 -83 -56 -2 0 -39 -24 -82 -54 -42
-29 -104 -68 -137 -87 -33 -18 -93 -52 -133 -76 -67 -40 -473 -243 -487 -243
-3 0 -90 -34 -193 -75 -103 -41 -212 -81 -242 -89 -30 -8 -131 -37 -225 -64
-231 -67 -399 -101 -750 -151 -199 -29 -321 -36 -650 -35 -380 0 -489 8 -845
65 -250 39 -358 63 -550 120 -58 17 -134 39 -170 49 -181 50 -488 175 -745
302 -104 52 -200 100 -213 108 -21 14 -40 6 -315 -133 -778 -395 -902 -459
-902 -467 0 -20 288 -215 510 -345 101 -60 463 -255 473 -255 2 0 77 -33 166
-74 88 -41 172 -77 186 -81 14 -4 91 -34 171 -66 140 -55 548 -183 729 -227
195 -49 555 -111 850 -148 176 -22 920 -31 1143 -15 290 22 782 101 1042 167
177 45 527 152 650 200 66 25 165 63 220 84 213 81 609 277 833 412 62 37 115
68 119 68 3 0 54 34 114 75 59 41 111 75 114 75 7 0 215 152 333 243 290 224
623 536 862 807 347 393 653 839 899 1312 45 86 94 187 110 225 16 37 54 124
85 193 31 69 63 143 71 165 7 22 28 78 45 125 85 231 161 483 235 780 43 175
109 606 137 900 13 135 16 619 8 1050 l-4 215 33 120 c54 197 134 344 266 491
108 119 231 198 568 369 l297 149 0 658 c0 362 -3 658 -7 657 -5 -1 -80 -38
-168 -83z"/>
</g>
</svg>
