<svg id="Layer_1" data-name="Layer 1" xmlns="http://www.w3.org/2000/svg" viewBox="0 0 16 16"><defs><style>.cls-1{fill:#1a1a1a;}.cls-2{fill:#fff;}</style></defs><title>NEX_Ripple</title><circle class="cls-1" cx="8" cy="8" r="8"/><path class="cls-2" d="M11.81,11h-1a.23.23,0,0,1-.11-.07c-.5-.51-1-1-1.49-1.54a1.29,1.29,0,0,0-1.33-.49,1.51,1.51,0,0,0-.63.35c-.55.53-1.07,1.09-1.59,1.64a.33.33,0,0,1-.28.12H4.52l.1-.13c.7-.72,1.39-1.45,2.1-2.17a2,2,0,0,1,2.9,0c.7.71,1.39,1.43,2.09,2.16Z"/><path class="cls-2" d="M11.82,4.65l-1,1L9.58,7A2,2,0,0,1,6.75,7C6,6.24,5.31,5.49,4.59,4.74a.32.32,0,0,1-.06-.08h1s.09.07.13.11l1.56,1.6a1.26,1.26,0,0,0,1.87,0c.52-.53,1-1.08,1.56-1.6a.4.4,0,0,1,.27-.12C11.21,4.64,11.49,4.65,11.82,4.65Z"/></svg>